<svg width="1920" height="1080" viewBox="0 0 1920 1080" fill="none" xmlns="http://www.w3.org/2000/svg">
<g clip-path="url(#clip0_1_2)">
<g clip-path="url(#clip1_1_2)">
<rect x="1174.2" y="490.23" width="746" height="589.55" transform="rotate(0.033796 1174.2 490.23)" fill="#3EFAFA"/>
<rect x="1617" y="268" width="172" height="833" fill="#6C9FDA"/>
<path d="M1482.1 701.528C1416.62 701.528 1341.36 634.038 1274.77 666.104C1073.17 763.192 1100.92 600.731 1043 540.31L1044.9 536.768C1108.81 589.986 1188.6 633.286 1275.65 661.984C1354.31 687.921 1433.57 699.938 1504.81 696.767L1504.94 701.024C1497.41 701.361 1489.8 701.529 1482.1 701.528Z" fill="#F2F2F2"/>
<path d="M1960.13 309.265C1907.92 345.984 1804.05 334.384 1771.82 397.283C1674.22 587.723 1590.73 442.654 1505.28 426.965L1504.49 423.075C1590.03 429.665 1681.79 419.441 1769.84 393.508C1849.41 370.074 1920.4 335.214 1975.13 292.735L1978 296.06C1972.22 300.548 1966.26 304.949 1960.13 309.265Z" fill="#F2F2F2"/>
<path d="M1763.35 577.809C1770.91 577.809 1777.04 570.177 1777.04 560.762C1777.04 551.347 1770.91 543.715 1763.35 543.715C1755.79 543.715 1749.66 551.347 1749.66 560.762C1749.66 570.177 1755.79 577.809 1763.35 577.809Z" fill="#E6E6E6"/>
<path d="M1632.82 801.254L1616.9 712.35C1616.58 710.55 1617.04 708.706 1618.18 707.222C1619.33 705.738 1621.05 704.735 1622.99 704.434L1695.29 693.269C1697.23 692.972 1699.21 693.401 1700.81 694.462C1702.41 695.523 1703.49 697.129 1703.81 698.928L1719.73 787.832C1720.05 789.632 1719.59 791.476 1718.45 792.96C1717.3 794.444 1715.57 795.446 1713.64 795.747L1641.34 806.912C1639.4 807.21 1637.42 806.781 1635.82 805.72C1634.22 804.659 1633.14 803.053 1632.82 801.254Z" fill="#3F3D56"/>
<path d="M1633.55 773.545L1623.32 716.389C1623.02 714.704 1623.45 712.977 1624.52 711.587C1625.59 710.197 1627.21 709.258 1629.03 708.976L1691.16 699.381C1692.97 699.102 1694.83 699.504 1696.33 700.497C1697.83 701.491 1698.84 702.995 1699.14 704.68L1713.31 783.792C1713.61 785.478 1713.17 787.205 1712.1 788.595C1711.03 789.985 1709.41 790.924 1707.6 791.206L1669.11 797.15C1661.03 798.39 1652.74 796.601 1646.08 792.175C1639.41 787.75 1634.91 781.05 1633.55 773.545Z" fill="white"/>
<path d="M1636.24 730.783C1635.94 729.136 1636.37 727.448 1637.41 726.09C1638.46 724.732 1640.04 723.814 1641.81 723.539L1684.91 716.883C1685.79 716.747 1686.69 716.773 1687.56 716.96C1688.42 717.147 1689.24 717.491 1689.97 717.971C1690.69 718.452 1691.31 719.061 1691.78 719.763C1692.25 720.464 1692.57 721.245 1692.71 722.061C1692.86 722.877 1692.83 723.711 1692.63 724.517C1692.43 725.322 1692.06 726.083 1691.54 726.756C1691.02 727.428 1690.37 728 1689.61 728.437C1688.86 728.875 1688.02 729.17 1687.14 729.305L1644.04 735.961C1642.26 736.233 1640.45 735.841 1638.98 734.87C1637.52 733.899 1636.53 732.429 1636.24 730.783Z" fill="#E03B3B"/>
<path d="M1639.7 750.107C1639.4 748.46 1639.83 746.772 1640.87 745.414C1641.92 744.056 1643.5 743.139 1645.27 742.863L1688.37 736.207C1689.25 736.071 1690.15 736.097 1691.02 736.284C1691.88 736.471 1692.7 736.815 1693.43 737.296C1694.15 737.776 1694.77 738.385 1695.24 739.087C1695.71 739.788 1696.03 740.569 1696.17 741.385C1696.32 742.201 1696.29 743.035 1696.09 743.841C1695.89 744.646 1695.52 745.407 1695 746.08C1694.48 746.752 1693.83 747.324 1693.07 747.761C1692.32 748.199 1691.48 748.494 1690.6 748.629L1647.5 755.286C1645.72 755.558 1643.91 755.165 1642.44 754.194C1640.98 753.224 1639.99 751.754 1639.7 750.107Z" fill="#E03B3B"/>
<path d="M1643.16 769.431C1642.86 767.784 1643.29 766.096 1644.33 764.738C1645.38 763.38 1646.96 762.463 1648.73 762.187L1691.83 755.531C1693.61 755.257 1695.43 755.649 1696.89 756.62C1698.35 757.591 1699.34 759.062 1699.63 760.709C1699.93 762.357 1699.51 764.045 1698.46 765.404C1697.42 766.762 1695.83 767.679 1694.06 767.953L1650.96 774.61C1649.18 774.882 1647.37 774.489 1645.9 773.518C1644.44 772.548 1643.45 771.078 1643.16 769.431Z" fill="#E03B3B"/>
<path d="M1600.17 717.459C1598.29 715.491 1596.9 713.164 1596.09 710.64C1595.28 708.117 1595.07 705.46 1595.49 702.856C1595.9 700.251 1596.93 697.763 1598.49 695.567C1600.06 693.371 1602.12 691.519 1604.54 690.143L1579.32 578.628L1612.74 590.562L1632.09 697.099C1634.31 701.023 1634.9 705.567 1633.76 709.87C1632.61 714.172 1629.8 717.935 1625.87 720.445C1621.94 722.954 1617.15 724.037 1612.41 723.486C1607.68 722.936 1603.32 720.792 1600.17 717.459Z" fill="#FFB8B8"/>
<path d="M1589.05 1070.16L1616.56 1070.16L1629.65 971.607L1589.04 971.609L1589.05 1070.16Z" fill="#FFB6B6"/>
<path d="M1582.03 1061.82L1589.77 1061.82L1620.01 1050.4L1636.21 1061.82H1636.21C1645.37 1061.82 1654.15 1065.19 1660.63 1071.21C1667.1 1077.22 1670.74 1085.38 1670.74 1093.88V1094.92L1582.03 1094.93L1582.03 1061.82Z" fill="#2F2E41"/>
<path d="M1340.47 1036.94L1365.09 1048.34L1424.14 965.559L1387.8 948.739L1340.47 1036.94Z" fill="#FFB6B6"/>
<path d="M1338.19 1026.57L1345.12 1029.78L1377.67 1032.08L1386.68 1049.01L1386.69 1049.01C1394.88 1052.81 1401.12 1059.47 1404.02 1067.53C1406.93 1075.6 1406.27 1084.4 1402.18 1092.02L1401.68 1092.95L1322.29 1056.2L1338.19 1026.57Z" fill="#2F2E41"/>
<path d="M1601.24 622.578L1426.31 626.816L1429.36 705.924C1429.36 705.924 1426.31 727.114 1432.4 732.764C1438.48 738.415 1441.52 738.415 1438.48 748.303C1435.44 758.192 1427.57 852.674 1427.57 852.674C1427.57 852.674 1355.78 970.568 1358.82 973.394C1361.87 976.219 1364.91 973.394 1361.87 980.457C1358.82 987.52 1355.78 984.695 1358.82 987.52C1361.52 990.219 1364.06 993.048 1366.43 995.996H1416.01C1416.01 995.996 1418.78 981.87 1418.78 980.457C1418.78 979.044 1421.82 970.568 1421.82 969.156C1421.82 967.743 1508.45 882.505 1508.45 882.505L1526.7 741.24L1570.81 879.68C1570.81 879.68 1570.81 1001.17 1573.86 1003.99C1576.9 1006.82 1576.9 1005.41 1575.38 1011.06C1573.86 1016.71 1567.77 1015.29 1572.34 1019.53C1576.9 1023.77 1578.42 1016.71 1576.9 1023.77L1575.38 1030.83L1633.82 1031.44C1633.82 1031.44 1639.9 1019.53 1636.86 1015.29C1633.82 1011.06 1634 1012.21 1637.71 1005.28C1641.42 998.342 1642.94 996.93 1641.42 995.517C1639.9 994.104 1639.9 986.591 1639.9 986.591C1639.9 986.591 1617.97 708.749 1617.97 704.511C1617.85 702.331 1618.29 700.155 1619.23 698.156V692.404L1613.41 672.02L1601.24 622.578Z" fill="#2F2E41"/>
<path d="M1758.92 1017.07L1760.43 985.55C1776.16 977.739 1793.71 973.613 1811.55 973.531C1787 992.174 1790.07 1028.11 1773.42 1053.18C1768.17 1060.97 1761.09 1067.55 1752.72 1072.45C1744.35 1077.35 1734.9 1080.43 1725.08 1081.48L1704.53 1093.16C1701.71 1078.57 1702.33 1063.57 1706.35 1049.22C1710.37 1034.87 1717.69 1021.49 1727.81 1010.02C1733.56 1003.64 1740.15 997.953 1747.43 993.099C1752.35 1005.15 1758.92 1017.07 1758.92 1017.07Z" fill="#F2F2F2"/>
<path d="M1510.66 345.144L1598.28 509.71L1581.14 709.431L1469.18 699.93L1449.1 369.178L1510.66 345.144Z" fill="#2F2E41"/>
<path d="M1633.69 687.382L1582.49 683.036L1582.42 682.432L1548.06 418.229L1555.75 398.431C1557.59 393.731 1560.7 389.552 1564.8 386.301C1568.89 383.051 1573.82 380.839 1579.1 379.88C1583.13 379.16 1587.27 379.186 1591.29 379.958C1595.3 380.731 1599.11 382.233 1602.5 384.38C1605.89 386.526 1608.78 389.273 1611.02 392.464C1613.26 395.654 1614.8 399.225 1615.54 402.969L1624.74 449.093L1637.78 605.007L1633.69 687.382Z" fill="#2F2E41"/>
<path d="M1500.39 369.549L1510.72 346.605L1542.68 347.127L1576 390.904L1610.98 527.51C1610.98 527.51 1623.54 627.301 1610.98 632.569C1598.41 637.836 1555.84 631.331 1555.84 631.331L1500.39 369.549Z" fill="#E03B3B"/>
<path d="M1542.68 347.127C1542.68 347.127 1611.52 384.084 1614.21 403.376C1616.9 422.668 1625.92 658.789 1625.92 658.789L1601.57 644.179L1594.92 558.121L1565.21 381.928L1542.68 347.127Z" fill="#2F2E41"/>
<path d="M1526.43 336.377C1552.34 336.377 1573.34 316.869 1573.34 292.804C1573.34 268.739 1552.34 249.231 1526.43 249.231C1500.51 249.231 1479.51 268.739 1479.51 292.804C1479.51 316.869 1500.51 336.377 1526.43 336.377Z" fill="#FFB8B8"/>
<path d="M1473.21 264.174C1478.48 256.604 1488.36 251.56 1497.95 252.977C1498.84 247.297 1501.39 241.953 1505.33 237.526C1509.26 233.1 1514.43 229.762 1520.27 227.874C1526.11 225.987 1532.39 225.624 1538.44 226.823C1544.48 228.022 1550.05 230.739 1554.55 234.677C1556.03 233.71 1557.75 233.114 1559.55 232.947C1561.35 232.78 1563.17 233.047 1564.82 233.722C1568.12 235.115 1570.99 237.255 1573.17 239.944C1578.67 246.313 1582.21 253.949 1583.41 262.037C1584.6 270.125 1583.42 278.363 1579.97 285.875C1581.14 281.92 1576.88 278.2 1572.57 277.312C1568.25 276.425 1563.73 277.265 1559.36 276.687C1553.76 275.946 1548.72 272.927 1543.11 272.248C1538.39 271.677 1533.65 272.8 1529.05 273.926C1524.45 275.051 1519.71 276.199 1514.99 275.678C1510.27 275.158 1504.18 291.784 1504.26 303.494C1504.28 305.713 1503.79 308.562 1501.45 309.033C1498.58 309.613 1496.91 305.927 1494.17 304.922C1492.91 304.587 1491.56 304.719 1490.4 305.291C1489.24 305.863 1488.37 306.831 1487.96 307.99C1487.62 309.168 1487.58 310.406 1487.85 311.6C1488.13 312.795 1488.7 313.911 1489.54 314.856C1491.22 316.73 1493.22 318.339 1495.45 319.621L1494.32 320.492C1492.45 322.793 1488.56 322.893 1485.86 321.469C1483.27 319.844 1481.18 317.63 1479.78 315.04C1474.78 307.316 1470.39 299.086 1468.63 290.223C1466.86 281.361 1467.94 271.743 1473.21 264.174Z" fill="#2F2E41"/>
<path d="M1371.02 586.872L1464.75 493.477C1466.65 491.588 1469.28 490.477 1472.06 490.386C1474.84 490.295 1477.55 491.233 1479.58 492.992L1555.53 558.737C1557.56 560.501 1558.76 562.942 1558.86 565.524C1558.96 568.107 1557.95 570.62 1556.05 572.512L1462.32 665.907C1460.42 667.796 1457.79 668.907 1455.01 668.998C1452.23 669.089 1449.52 668.151 1447.48 666.392L1371.54 600.648C1369.5 598.883 1368.31 596.442 1368.21 593.86C1368.11 591.277 1369.12 588.764 1371.02 586.872Z" fill="#E6E6E6"/>
<path d="M1405.15 563.706L1465.41 503.663C1467.19 501.894 1469.65 500.853 1472.26 500.768C1474.86 500.683 1477.4 501.561 1479.31 503.209L1544.58 559.711C1546.48 561.363 1547.6 563.649 1547.69 566.068C1547.78 568.486 1546.84 570.84 1545.06 572.612L1461.65 655.721C1459.88 657.49 1457.41 658.531 1454.81 658.616C1452.2 658.701 1449.67 657.823 1447.76 656.174L1407.33 621.173C1398.85 613.814 1393.85 603.631 1393.45 592.857C1393.04 582.083 1397.25 571.6 1405.15 563.706Z" fill="white"/>
<path d="M1459.17 529.564C1460.91 527.836 1463.31 526.819 1465.86 526.735C1468.4 526.652 1470.88 527.51 1472.74 529.121L1518.02 568.316C1519.88 569.929 1520.98 572.163 1521.07 574.528C1521.16 576.892 1520.24 579.192 1518.5 580.923C1516.76 582.654 1514.36 583.672 1511.81 583.756C1509.26 583.839 1506.79 582.979 1504.92 581.366L1459.65 542.171C1457.78 540.557 1456.69 538.323 1456.6 535.959C1456.51 533.596 1457.43 531.296 1459.17 529.564Z" fill="#E6E6E6"/>
<path d="M1438.79 549.864C1440.53 548.136 1442.94 547.119 1445.48 547.036C1448.03 546.953 1450.5 547.811 1452.37 549.421L1497.65 588.616C1498.57 589.415 1499.31 590.375 1499.84 591.44C1500.36 592.506 1500.65 593.657 1500.7 594.828C1500.74 595.999 1500.54 597.166 1500.1 598.263C1499.65 599.361 1498.98 600.366 1498.12 601.223C1497.26 602.08 1496.23 602.771 1495.08 603.257C1493.94 603.743 1492.7 604.015 1491.44 604.056C1490.18 604.097 1488.92 603.907 1487.74 603.497C1486.56 603.087 1485.47 602.465 1484.55 601.666L1439.27 562.471C1437.41 560.857 1436.32 558.623 1436.23 556.26C1436.14 553.896 1437.06 551.596 1438.79 549.864Z" fill="#E6E6E6"/>
<path d="M1418.42 570.165C1420.16 568.436 1422.56 567.419 1425.11 567.336C1427.65 567.253 1430.13 568.111 1431.99 569.722L1477.27 608.917C1479.14 610.53 1480.23 612.764 1480.32 615.128C1480.41 617.493 1479.49 619.793 1477.75 621.524C1476.01 623.254 1473.61 624.273 1471.06 624.356C1468.52 624.439 1466.04 623.58 1464.18 621.967L1418.9 582.772C1417.04 581.157 1415.94 578.923 1415.85 576.56C1415.76 574.196 1416.69 571.896 1418.42 570.165Z" fill="#E6E6E6"/>
<path d="M1528.59 681.484L1496.18 724.579L1494.67 726.269C1492.05 729.2 1488.42 731.21 1484.4 731.965C1483.83 732.071 1483.25 732.151 1482.68 732.203C1481.97 732.271 1481.26 732.298 1480.54 732.285C1480.13 732.278 1479.73 732.257 1479.32 732.224C1476.96 732.035 1474.65 731.413 1472.55 730.393L1458.73 721.425C1457.62 720.712 1456.84 719.653 1456.51 718.444C1456.35 717.846 1456.31 717.226 1456.38 716.613C1456.48 715.754 1456.81 714.932 1457.35 714.225L1497.25 661.16C1498.1 660.037 1499.39 659.271 1500.84 659.031C1502.3 658.792 1503.8 659.097 1505.01 659.881L1527.21 674.282C1527.26 674.316 1527.31 674.351 1527.37 674.386C1527.4 674.409 1527.43 674.432 1527.46 674.457C1527.51 674.488 1527.55 674.521 1527.59 674.554C1527.65 674.594 1527.7 674.636 1527.75 674.679C1527.8 674.719 1527.84 674.759 1527.89 674.8L1527.92 674.824C1527.97 674.876 1528.03 674.929 1528.09 674.984C1528.14 675.038 1528.2 675.094 1528.25 675.15C1528.29 675.191 1528.32 675.233 1528.36 675.274L1528.36 675.278C1528.47 675.402 1528.57 675.531 1528.67 675.665C1528.7 675.705 1528.72 675.748 1528.75 675.79L1528.76 675.808C1528.79 675.842 1528.81 675.876 1528.83 675.91C1528.89 676.012 1528.95 676.117 1529.01 676.223C1529.11 676.4 1529.19 676.58 1529.26 676.765C1529.28 676.824 1529.3 676.884 1529.32 676.944C1529.34 676.992 1529.36 677.042 1529.37 677.093L1529.38 677.103L1529.38 677.123C1529.4 677.167 1529.41 677.21 1529.42 677.253C1529.44 677.336 1529.46 677.42 1529.48 677.504C1529.49 677.527 1529.49 677.55 1529.5 677.574C1529.5 677.597 1529.51 677.62 1529.51 677.644C1529.52 677.667 1529.52 677.69 1529.52 677.712L1529.53 677.749C1529.54 677.817 1529.55 677.886 1529.56 677.954C1529.57 678.04 1529.58 678.126 1529.58 678.211C1529.59 678.282 1529.59 678.352 1529.59 678.422C1529.59 678.486 1529.59 678.549 1529.59 678.613C1529.59 678.629 1529.59 678.646 1529.59 678.662C1529.59 678.728 1529.58 678.793 1529.58 678.858C1529.57 679.022 1529.55 679.186 1529.52 679.348C1529.51 679.408 1529.5 679.467 1529.49 679.527C1529.47 679.599 1529.45 679.671 1529.44 679.741C1529.43 679.768 1529.42 679.795 1529.41 679.821C1529.4 679.86 1529.39 679.899 1529.38 679.938C1529.37 679.982 1529.35 680.026 1529.34 680.068L1529.3 680.171C1529.28 680.232 1529.26 680.291 1529.23 680.351C1529.22 680.387 1529.2 680.423 1529.19 680.459C1529.07 680.716 1528.94 680.964 1528.79 681.201C1528.77 681.23 1528.75 681.259 1528.73 681.288C1528.68 681.354 1528.64 681.419 1528.59 681.484Z" fill="white"/>
<path d="M1506.64 683.121C1509.27 683.121 1511.4 681.143 1511.4 678.703C1511.4 676.263 1509.27 674.285 1506.64 674.285C1504.01 674.285 1501.88 676.263 1501.88 678.703C1501.88 681.143 1504.01 683.121 1506.64 683.121Z" fill="#E03B3B"/>
<path d="M1452.9 725.388C1451.02 723.42 1449.62 721.092 1448.81 718.569C1448 716.046 1447.8 713.389 1448.22 710.785C1448.63 708.18 1449.66 705.692 1451.22 703.496C1452.78 701.3 1454.85 699.448 1457.26 698.072L1432.05 586.557L1465.47 598.491L1484.82 705.028C1487.04 708.952 1487.63 713.496 1486.49 717.799C1485.34 722.101 1482.53 725.864 1478.6 728.374C1474.66 730.883 1469.88 731.966 1465.14 731.415C1460.4 730.865 1456.05 728.721 1452.9 725.388Z" fill="#FFB8B8"/>
<path d="M1434.39 680.137L1420.78 598.74L1415.67 442.415L1419.47 395.561C1419.78 391.763 1420.89 388.06 1422.75 384.664C1424.6 381.269 1427.17 378.248 1430.28 375.775C1433.4 373.303 1437.02 371.428 1440.92 370.259C1444.82 369.09 1448.94 368.65 1453.02 368.964C1458.39 369.388 1463.54 371.095 1467.99 373.918C1472.44 376.74 1476.02 380.583 1478.39 385.072L1488.33 403.987L1484.78 670.697L1434.39 680.137Z" fill="#2F2E41"/>
<path d="M1489.69 310.466C1489.72 309.972 1489.88 309.493 1490.15 309.071C1490.43 308.648 1490.81 308.295 1491.27 308.043C1491.73 307.791 1492.24 307.648 1492.78 307.625C1493.31 307.603 1493.84 307.703 1494.32 307.916C1494.8 308.128 1495.21 308.448 1495.53 308.845C1495.85 309.243 1496.05 309.706 1496.13 310.195C1496.21 310.684 1496.15 311.183 1495.97 311.649C1495.79 312.114 1495.49 312.531 1495.1 312.862L1500.55 321.176C1500.77 321.517 1500.84 321.926 1500.74 322.314C1500.63 322.702 1500.37 323.036 1500 323.243C1499.64 323.451 1499.2 323.515 1498.78 323.42C1498.36 323.326 1498 323.081 1497.78 322.74L1491.65 313.393C1491.04 313.152 1490.52 312.742 1490.17 312.218C1489.82 311.694 1489.65 311.082 1489.69 310.466Z" fill="white"/>
<path d="M1493.51 316.117C1493.71 316.488 1494.2 316.637 1494.6 316.45C1495 316.263 1495.16 315.81 1494.96 315.439L1493.5 312.752C1493.29 312.381 1492.81 312.232 1492.41 312.419C1492.01 312.606 1491.85 313.058 1492.05 313.429L1493.51 316.117Z" fill="#2F2E41"/>
<path fill-rule="evenodd" clip-rule="evenodd" d="M1224 226.409V226H1124V326H1124.41L1224 226.409Z" fill="#3EFAFA"/>
</g>
<path fill-rule="evenodd" clip-rule="evenodd" d="M99.4092 850.205H99V950.205H199V949.795L99.4092 850.205Z" fill="white"/>
<rect x="1033" y="334" width="20" height="20" rx="10" fill="white"/>
<g clip-path="url(#clip2_1_2)">
<path d="M1489.33 1080.35H1368.3L1367.12 1075.25L1360.65 1047.19L1354.19 1075.25L1353.02 1080.35H1228.52C1228.25 1078.63 1227.99 1076.93 1227.73 1075.25C1224.1 1052.08 1220.51 1032.79 1217.47 1027.27C1208.65 1011.29 1216.87 1021.3 1226.28 1011.88C1235.69 1002.47 1226.28 1011.88 1220.77 999.803C1215.25 987.723 1245.14 895.923 1245.14 895.923L1449.04 898.933C1449.04 898.933 1486.7 964.823 1487.09 973.913C1487.31 979.083 1488.36 1031.23 1489.22 1075.25C1489.26 1076.96 1489.29 1078.67 1489.33 1080.35Z" fill="#2F2E41"/>
<path d="M1370.41 959.765C1370.41 959.765 1457.19 999.69 1470.86 969.064C1484.53 938.439 1477.77 897.504 1469.3 892.146C1460.83 886.788 1451.52 862.103 1463.92 845.043C1476.31 827.983 1456.82 799.163 1451.36 796.22C1447.2 793.979 1435.9 667.698 1430.74 607.576C1429.94 598.282 1426.47 589.417 1420.75 582.048C1415.03 574.68 1407.31 569.121 1398.5 566.043L1377.98 532.91L1325.36 532.436L1299.06 568.888L1261.12 583.081L1232.64 700.708C1232.64 700.708 1232.36 752.665 1238.35 808.141C1240.21 825.401 1242.68 843.003 1245.95 859.485C1253.66 898.308 1220.09 930.279 1239.28 937.628C1292.8 958.125 1370.41 959.765 1370.41 959.765Z" fill="#E6E6E6"/>
<path d="M1261.47 884.136L1428.42 878.136C1429.56 878.136 1430.68 878.359 1431.73 878.793C1432.78 879.227 1433.73 879.863 1434.53 880.665C1435.33 881.467 1435.97 882.42 1436.4 883.467C1436.84 884.515 1437.06 885.638 1437.06 886.773V970.487C1437.06 971.621 1436.84 972.744 1436.4 973.792C1435.97 974.84 1435.33 975.792 1434.53 976.594C1433.73 977.396 1432.78 978.032 1431.73 978.467C1430.68 978.901 1429.56 979.124 1428.42 979.124H1271.47C1270.34 979.124 1269.21 978.901 1268.17 978.467C1267.12 978.032 1266.17 977.396 1265.36 976.594C1264.56 975.792 1263.92 974.84 1263.49 973.792C1263.06 972.744 1262.83 971.621 1262.83 970.487C1253.58 946.901 1245.84 923.942 1252.83 892.773C1252.83 890.482 1253.74 888.285 1255.36 886.665C1256.98 885.046 1259.18 884.136 1261.47 884.136Z" fill="#3F3D56"/>
<path d="M1417.5 894.422H1280.12V896.422H1417.5V894.422Z" fill="#2F2E41"/>
<path d="M1417.5 923.303H1280.12V927.586H1417.5V923.303Z" fill="#2F2E41"/>
<path d="M1406.13 833.026H1280.12V894.512H1406.13V833.026Z" fill="#F9A826"/>
<path opacity="0.2" d="M1406.13 833.026H1280.12V894.512H1406.13V833.026Z" fill="black"/>
<path d="M1406.13 833.026H1319.21V894.512H1406.13V833.026Z" fill="#F9A826"/>
<path d="M1392.54 843.294H1375.38C1375.22 843.294 1375.07 843.232 1374.96 843.12C1374.85 843.009 1374.79 842.858 1374.79 842.7C1374.79 842.543 1374.85 842.392 1374.96 842.28C1375.07 842.169 1375.22 842.106 1375.38 842.106H1392.54C1392.7 842.106 1392.85 842.169 1392.96 842.28C1393.08 842.392 1393.14 842.543 1393.14 842.7C1393.14 842.858 1393.08 843.009 1392.96 843.12C1392.85 843.232 1392.7 843.294 1392.54 843.294Z" fill="white"/>
<path d="M1307.91 886.182H1290.74C1290.59 886.182 1290.44 886.119 1290.33 886.008C1290.21 885.896 1290.15 885.746 1290.15 885.588C1290.15 885.431 1290.21 885.281 1290.33 885.169C1290.44 885.058 1290.59 884.995 1290.74 884.995H1307.91C1308.06 884.995 1308.22 885.057 1308.33 885.169C1308.44 885.28 1308.5 885.431 1308.5 885.588C1308.5 885.746 1308.44 885.897 1308.33 886.008C1308.22 886.12 1308.06 886.182 1307.91 886.182Z" fill="white"/>
<path d="M1340.93 843.294H1288.12C1287.98 843.297 1287.83 843.25 1287.72 843.16C1287.61 843.069 1287.53 842.942 1287.5 842.801C1287.49 842.717 1287.49 842.63 1287.51 842.547C1287.53 842.465 1287.57 842.388 1287.63 842.324C1287.69 842.26 1287.76 842.209 1287.84 842.177C1287.92 842.144 1288 842.13 1288.09 842.135H1341.21C1341.33 842.201 1341.42 842.304 1341.48 842.428C1341.53 842.552 1341.54 842.691 1341.51 842.823C1341.48 842.955 1341.4 843.072 1341.3 843.157C1341.19 843.243 1341.06 843.291 1340.93 843.294Z" fill="white"/>
<path d="M1425.57 978.214L1318.91 1001.87C1315.5 1001.87 1312.23 1000.51 1309.81 998.103C1307.4 995.692 1306.05 992.422 1306.05 989.012C1295.57 962.213 1295.4 937.093 1306.05 913.738C1306.05 910.328 1307.4 907.058 1309.81 904.647C1312.23 902.235 1315.5 900.881 1318.91 900.881L1425.57 877.226C1428.98 877.226 1432.25 878.58 1434.66 880.992C1437.07 883.403 1438.43 886.673 1438.43 890.083C1448.28 918.196 1456.43 945.786 1438.43 965.357C1438.43 968.767 1437.07 972.037 1434.66 974.448C1432.25 976.859 1428.98 978.214 1425.57 978.214Z" fill="#2F2E41"/>
<path d="M1329.25 916.857L1330.61 925.287L1400.21 923.472C1400.45 919.059 1368.83 915.754 1335.31 916.688L1329.25 916.857Z" fill="#3F3D56"/>
<path d="M1329.25 937.857L1330.61 946.287L1400.21 944.472C1400.45 940.059 1368.83 936.754 1335.31 937.688L1329.25 937.857Z" fill="#3F3D56"/>
<path d="M1329.25 962.857L1330.61 971.287L1400.21 969.472C1400.45 965.059 1368.83 961.754 1335.31 962.688L1329.25 962.857Z" fill="#3F3D56"/>
<path d="M1451.63 790.544L1449.67 809.362L1449.21 813.714L1448.51 820.702L1433.37 965.947C1434.62 970.137 1434.45 974.623 1432.88 978.705C1431.31 982.786 1428.43 986.233 1424.69 988.504C1420.38 991.078 1415.22 991.833 1410.34 990.604C1405.47 989.374 1401.28 986.26 1398.7 981.945C1398.61 981.792 1398.55 981.639 1398.46 981.486C1395.89 976.997 1395.16 971.682 1396.44 966.669C1397.73 961.656 1400.91 957.34 1405.32 954.637C1406.24 954.114 1407.19 953.663 1408.17 953.289L1408.05 949.213L1407.68 936.432L1407.41 926.778L1406.83 907.561L1406.61 900.113L1405.91 875.962L1405.23 852.669L1404.4 824.441L1403.76 802.742L1411.58 800.75L1451.63 790.544Z" fill="#A0616A"/>
<path d="M1466.77 765.996C1466.07 769.588 1465.43 771.91 1464.97 772.656C1461.01 778.846 1458.59 770.197 1460.77 786.778C1462.51 800.236 1452.03 798.55 1455.8 801.424C1462.02 806.177 1453.44 808.278 1449.67 810.848C1447.99 811.981 1452.65 811.712 1454.59 813.287C1455.5 814.007 1451.14 816.087 1452.22 816.541C1456.32 818.475 1453.96 819.94 1448.51 821.073C1439.47 822.924 1421.97 823.836 1411.39 824.196C1408.39 824.334 1405.94 824.389 1404.4 824.444C1403.27 824.472 1402.63 824.472 1402.63 824.472C1402.63 824.472 1399.96 822.759 1398.86 817.536C1398.06 813.888 1398.06 808.499 1400.27 800.761C1401.62 796.008 1403.91 792.609 1405.26 789.873C1406.04 788.597 1406.41 787.109 1406.31 785.617V785.589C1406.09 784.18 1405.08 782.881 1402.78 781.499C1398.64 779.012 1400.94 773.789 1404.16 768.87C1407.22 764.255 1411.09 759.861 1411.09 758.258C1411.09 754.859 1385.59 682.621 1385.59 682.621L1394.96 573.544C1402.12 568.634 1410.8 566.466 1419.42 567.437C1425.34 568.211 1431.93 570.698 1438.7 576.28C1444.62 581.172 1450.68 588.468 1456.51 599.024C1481.27 643.876 1472.05 739.521 1466.77 765.996Z" fill="#E6E6E6"/>
<path d="M1343.11 520.07C1373.34 520.07 1397.85 495.563 1397.85 465.332C1397.85 435.102 1373.34 410.595 1343.11 410.595C1312.88 410.595 1288.37 435.102 1288.37 465.332C1288.37 495.563 1312.88 520.07 1343.11 520.07Z" fill="#A0616A"/>
<path d="M1400.08 493.181C1400.08 493.181 1384.89 505.585 1376.56 509.203C1378.86 501.195 1381.27 487.446 1383.57 479.461C1384.76 475.259 1385.98 470.966 1385.79 466.623C1385.58 462.252 1383.71 457.737 1380 455.472C1378.2 454.368 1376.1 453.858 1374 454.014C1371.89 454.17 1369.89 454.984 1368.27 456.341C1366.66 457.699 1365.51 459.53 1364.99 461.576C1364.47 463.622 1364.61 465.778 1365.39 467.741C1361.76 467.493 1359.71 463.349 1359.27 459.725C1358.82 456.101 1359.16 452.153 1357.16 449.081C1355.23 446.103 1351.42 444.745 1347.85 444.908C1344.31 445.055 1340.94 446.509 1337.77 448.163C1328.7 452.856 1320.46 459.334 1310.7 462.431C1308.74 463.053 1306.73 463.491 1304.69 463.738C1304.76 457.836 1302.81 452.088 1299.15 447.455C1298.62 452.954 1297.07 458.306 1294.58 463.236C1289.87 462.322 1285.69 459.649 1282.89 455.762C1279.83 451.337 1279.08 445.632 1279.8 440.311C1280.15 437.867 1280.74 435.465 1281.57 433.141C1283.01 432.796 1284.41 432.311 1285.75 431.692C1288.71 430.396 1291.38 428.528 1293.62 426.195C1290.6 426.322 1287.57 426.107 1284.6 425.555C1284.67 425.379 1284.74 425.225 1284.82 425.049C1286.52 421.333 1288.4 417.495 1291.68 415.083C1294.97 412.672 1300.06 412.192 1302.91 415.131C1310.33 403.476 1322.07 395.245 1335.55 392.247C1349.04 389.25 1363.16 391.733 1374.82 399.149C1375.08 399.314 1375.34 399.482 1375.59 399.652C1373.47 402.079 1371.84 404.898 1370.79 407.95C1374.02 406.288 1377.46 405.05 1381.01 404.267C1383.51 407.059 1385.09 410.408 1384.41 413.99C1388.56 416.008 1396.64 419.37 1392.82 421.583C1402.74 430.463 1408.98 442.73 1410.33 455.976C1411.67 469.222 1408.01 482.492 1400.08 493.181Z" fill="#2F2E41"/>
<path d="M1332.21 869.168C1331.89 874.185 1329.59 878.868 1325.81 882.188C1322.04 885.509 1317.1 887.195 1312.08 886.878C1311.92 886.846 1311.74 886.824 1311.57 886.813C1306.41 886.389 1301.62 883.972 1298.21 880.074C1294.81 876.176 1293.06 871.104 1293.33 865.935C1293.42 864.889 1293.59 863.851 1293.84 862.83L1290.41 860.624L1279.66 853.665L1271.57 848.44L1255.4 838.012L1249.15 833.986L1248.31 833.45L1228.85 820.859L1213.22 810.773L1211.89 809.917L1209.28 808.225L1185.55 792.914L1179.17 788.803C1179.15 788.782 1179.17 788.782 1179.17 788.782C1178.96 788.375 1192.38 781.715 1192.17 781.308C1188.78 774.606 1184.5 768.974 1190.03 744.905L1184.4 734.776L1198.79 747.068L1202.1 749.916L1207.46 754.455L1273.67 810.945L1318.55 849.232C1322.71 850.58 1326.31 853.267 1328.78 856.874C1331.25 860.48 1332.46 864.803 1332.21 869.168Z" fill="#A0616A"/>
<path d="M1320.09 661.649L1245.85 775.805L1275.68 809.146L1273.67 810.945L1248.31 833.451L1241.14 839.81L1227.86 837.112C1227.86 837.112 1225.23 833.108 1211.38 831.052C1197.52 828.996 1205.59 824.286 1211.72 815.078C1213.18 812.872 1207.52 816.341 1207.16 815.57C1206.99 815.099 1203.56 813.536 1202.88 813.429C1200.05 812.893 1202.81 811.287 1198.74 810.452C1192.21 809.125 1191.83 813.75 1179.17 788.803C1179.15 788.782 1179.17 788.782 1179.17 788.782C1178.96 788.375 1178.76 787.989 1178.55 787.582C1175.17 780.88 1177.61 762.25 1183.13 738.181C1191.57 701.478 1207.16 652.141 1220.13 613.361C1222.66 605.829 1226.76 598.921 1232.16 593.097C1237.56 587.273 1244.15 582.666 1251.47 579.583C1258.79 576.499 1266.68 575.01 1274.62 575.214C1282.56 575.418 1290.37 577.311 1297.52 580.766C1304.68 584.222 1311.01 589.161 1316.11 595.255C1321.2 601.349 1324.94 608.458 1327.08 616.109C1329.21 623.761 1329.69 631.779 1328.49 639.631C1327.29 647.483 1324.42 654.989 1320.09 661.649Z" fill="#E6E6E6"/>
<path d="M1349.6 954.671C1349.91 954.724 1350.23 954.682 1350.51 954.549C1350.79 954.416 1351.03 954.2 1351.18 953.929C1351.34 953.659 1351.41 953.347 1351.38 953.036C1351.35 952.726 1351.23 952.431 1351.03 952.192L1350.98 951.768L1351.03 951.675C1351.43 950.978 1352.03 950.416 1352.76 950.06C1353.48 949.704 1354.29 949.569 1355.09 949.673C1355.89 949.776 1356.64 950.113 1357.25 950.642C1357.85 951.17 1358.29 951.866 1358.5 952.643C1359.36 955.742 1360.54 958.888 1360.53 962.051C1360.53 963.449 1360.28 964.835 1359.81 966.149C1363.47 960.244 1365.81 953.621 1366.69 946.73C1366.91 945 1367.03 943.26 1367.05 941.516C1367.07 940.087 1367.03 938.66 1366.92 937.236C1366.33 929.505 1363.91 922.024 1359.87 915.409C1357.7 913.849 1356.07 911.664 1355.18 909.147C1354.86 908.242 1354.68 907.295 1354.63 906.336C1354.88 906.403 1356.11 902.503 1355.94 902.234C1356.38 901.725 1357.07 901.532 1357.54 901.041C1359.86 898.601 1362.53 899.414 1363.5 903.249C1366.35 905.17 1366.06 907.725 1363.88 909.944C1362.5 911.355 1362.07 913.447 1360.81 914.987C1360.9 915.138 1361 915.285 1361.09 915.436C1362.73 918.208 1364.11 921.134 1365.18 924.173C1365.23 920.927 1366.06 917.74 1367.58 914.874C1369.1 912.215 1371.58 910.126 1373.8 907.942C1374.39 907.355 1375.14 906.955 1375.96 906.794C1376.77 906.633 1377.62 906.717 1378.39 907.037C1379.16 907.357 1379.81 907.897 1380.28 908.59C1380.74 909.282 1380.98 910.096 1380.98 910.929L1380.98 911.037C1380.67 911.162 1380.37 911.298 1380.08 911.444C1379.71 911.63 1379.4 911.924 1379.2 912.288C1379 912.651 1378.91 913.067 1378.95 913.481C1378.99 913.895 1379.15 914.288 1379.41 914.608C1379.68 914.928 1380.04 915.16 1380.44 915.274L1380.48 915.286C1380.25 916.301 1379.94 917.296 1379.56 918.265C1380.82 928.097 1375.07 930.897 1367.46 930.098C1367.28 930.163 1367.11 930.228 1366.93 930.289C1367.86 934.555 1368.23 938.923 1368.03 943.284C1367.9 945.856 1367.57 948.413 1367.03 950.931L1367.05 950.843C1367.96 948.081 1369.79 945.717 1372.24 944.15C1375.87 941.861 1380.64 941.45 1384.46 939.724C1384.87 939.529 1385.33 939.455 1385.77 939.51C1386.22 939.566 1386.65 939.748 1386.99 940.036C1387.34 940.324 1387.6 940.705 1387.74 941.135C1387.88 941.565 1387.89 942.026 1387.77 942.463L1387.75 942.556C1387.19 942.705 1386.65 942.888 1386.11 943.105C1385.81 943.23 1385.51 943.366 1385.21 943.512C1384.84 943.698 1384.53 943.992 1384.33 944.356C1384.13 944.719 1384.04 945.135 1384.08 945.549C1384.12 945.963 1384.28 946.356 1384.55 946.676C1384.81 946.996 1385.17 947.228 1385.57 947.342L1385.61 947.354L1385.69 947.377C1384.52 949.422 1383 951.249 1381.2 952.779C1378.62 960.898 1371.91 960.855 1365.14 957.545L1365.13 957.545C1363.93 960.82 1362.4 963.961 1360.55 966.918L1348.56 965.411C1348.53 965.273 1348.51 965.13 1348.49 964.992C1349.59 965.201 1350.71 965.275 1351.83 965.212C1351.08 964.009 1350.33 962.797 1349.58 961.594C1349.56 961.571 1349.54 961.547 1349.53 961.522C1349.15 960.907 1348.76 960.296 1348.38 959.68C1348.57 957.965 1348.98 956.281 1349.6 954.671Z" fill="#F2F2F2"/>
</g>
<g clip-path="url(#clip3_1_2)">
<path d="M1758.77 364.288C1746.29 387.025 1769.78 425.336 1746.11 433.291L1748.06 431.228C1762.35 412.631 1732.48 373.269 1746.77 354.671C1748.99 351.944 1750.9 348.946 1752.45 345.742" fill="#2F2E41"/>
<path d="M1875.61 697.858C1876.02 695.583 1875.95 693.241 1875.41 690.996C1874.87 688.751 1873.87 686.659 1872.48 684.866C1871.1 683.074 1869.36 681.624 1867.38 680.621C1865.41 679.617 1863.25 679.083 1861.07 679.056L1830.23 584.272L1813.16 607.29L1845.76 695.855C1845.96 699.749 1847.51 703.429 1850.1 706.198C1852.7 708.967 1856.16 710.633 1859.84 710.88C1863.52 711.127 1867.16 709.937 1870.06 707.537C1872.97 705.138 1874.94 701.694 1875.61 697.858Z" fill="#FFB8B8"/>
<path d="M1740.05 469.012C1740.05 469.012 1739.09 434.701 1768.09 454.357C1797.09 474.012 1860.24 658.133 1860.24 658.133L1828.82 676.119L1757.48 507.627L1740.05 469.012Z" fill="#504E4B"/>
<path d="M1825.61 1057.07L1811.13 1063.62L1780.37 1007.64L1801.74 997.979L1825.61 1057.07Z" fill="#FFB6B6"/>
<path d="M1843.98 1080.16L1833.59 1084.86L1827.55 1075.32L1826.99 1087.84L1799.45 1100.3C1798.13 1100.89 1796.66 1101.03 1795.26 1100.68C1793.86 1100.33 1792.61 1099.52 1791.68 1098.37C1790.74 1097.21 1790.19 1095.77 1790.08 1094.26C1789.98 1092.74 1790.34 1091.23 1791.1 1089.94L1806.61 1063.93L1802.37 1053.44L1826.1 1044.44L1843.98 1080.16Z" fill="#2F2E41"/>
<path d="M1598.59 1076.06L1582.86 1075.25L1578.34 1010.68L1601.55 1011.88L1598.59 1076.06Z" fill="#FFB6B6"/>
<path d="M1605.56 1105.32L1594.28 1104.74L1592.79 1093.37L1587.11 1104.37L1557.19 1102.82C1555.75 1102.75 1554.38 1102.19 1553.27 1101.23C1552.15 1100.27 1551.36 1098.96 1551 1097.49C1550.64 1096.02 1550.73 1094.47 1551.27 1093.06C1551.8 1091.65 1552.75 1090.46 1553.97 1089.66L1578.67 1073.43L1579.19 1062.04L1604.25 1064.93L1605.56 1105.32Z" fill="#2F2E41"/>
<path d="M1638.33 656.307C1638.33 656.307 1606.34 748.531 1605.82 758.852C1605.3 769.172 1596.18 899.681 1588.53 907.264C1580.88 914.847 1557.49 1032.41 1575.69 1041.61C1593.89 1050.8 1651.31 1035.57 1651.31 1035.57L1671.29 896.698L1678.07 790.305C1678.07 790.305 1698.73 1040.84 1736.2 1040.1C1773.67 1039.37 1819.33 1024.27 1819.33 1024.27L1766.88 872.546C1766.88 872.546 1767.63 692.922 1755.47 656.692C1743.31 620.463 1638.33 656.307 1638.33 656.307Z" fill="#2F2E41"/>
<path d="M1733.25 418.701L1690.41 422.852L1683.5 445.264C1683.5 445.264 1647.65 466.093 1655.59 475.556C1663.53 485.019 1653.82 548.79 1653.82 548.79L1656.01 600.554C1656.01 600.554 1653.65 636.417 1646.6 644.68C1639.55 652.943 1621.1 673.205 1634.13 663.511C1679.85 629.522 1759.75 658.202 1759.75 658.202L1748.34 584.238C1748.34 584.238 1774.26 463.141 1764.03 452.914C1753.8 442.687 1744.15 441.395 1744.15 441.395L1733.25 418.701Z" fill="#504E4B"/>
<path d="M1508.14 653.314C1510.29 652.89 1512.33 651.972 1514.11 650.625C1515.89 649.277 1517.37 647.533 1518.45 645.515C1519.52 643.497 1520.17 641.255 1520.33 638.945C1520.5 636.636 1520.18 634.316 1519.41 632.149L1591.67 567.299L1565.19 558.844L1499.06 623.175C1495.7 624.789 1493.02 627.649 1491.53 631.214C1490.03 634.778 1489.82 638.798 1490.94 642.514C1492.06 646.229 1494.43 649.38 1497.6 651.371C1500.77 653.361 1504.52 654.053 1508.14 653.314Z" fill="#FFB8B8"/>
<path d="M1691.64 483.684C1691.64 483.684 1705.88 452.839 1671.8 458.108C1637.71 463.377 1508.47 603.624 1508.47 603.624L1530.1 633.709L1660.72 511.273L1691.64 483.684Z" fill="#504E4B"/>
<path d="M1636.14 431.363L1501.02 614.501C1498.68 617.68 1497.63 621.709 1498.09 625.706C1498.56 629.703 1500.5 633.342 1503.5 635.825C1534.88 716.428 1628.76 776.2 1739.19 830.452C1742.2 832.928 1746.01 834.041 1749.79 833.549C1753.56 833.056 1757 830.997 1759.35 827.824L1894.47 644.687C1896.81 641.509 1897.87 637.479 1897.4 633.481C1896.94 629.484 1894.99 625.845 1891.99 623.363C1799.31 568.002 1719.66 503.861 1656.3 428.736C1653.29 426.263 1649.48 425.151 1645.71 425.643C1641.93 426.136 1638.49 428.193 1636.14 431.363Z" fill="#E6E6E6"/>
<path d="M1884.99 640.52L1843.86 696.265C1818.74 730.113 1781.97 752.067 1741.59 757.331C1701.22 762.595 1660.52 750.741 1628.37 724.36L1513.11 629.176C1511.4 627.766 1510.29 625.696 1510.02 623.422C1509.76 621.147 1510.35 618.854 1511.68 617.044L1642.26 440.078C1643.59 438.274 1645.55 437.105 1647.7 436.827C1649.85 436.549 1652.02 437.184 1653.73 438.594C1712.03 518.247 1790.08 580.233 1883.58 628.398C1885.28 629.809 1886.39 631.878 1886.65 634.15C1886.92 636.423 1886.32 638.714 1884.99 640.52Z" fill="white"/>
<path d="M1633.44 531.339L1606.66 567.643C1605.95 568.605 1604.9 569.229 1603.76 569.378C1602.61 569.526 1601.46 569.188 1600.55 568.437C1599.64 567.686 1599.05 566.583 1598.91 565.372C1598.77 564.16 1599.09 562.939 1599.79 561.976L1626.58 525.671C1626.93 525.194 1627.37 524.795 1627.87 524.496C1628.37 524.198 1628.91 524.006 1629.48 523.931C1630.05 523.857 1630.62 523.902 1631.18 524.063C1631.73 524.225 1632.24 524.499 1632.69 524.872C1633.14 525.244 1633.52 525.707 1633.8 526.233C1634.09 526.76 1634.27 527.34 1634.34 527.941C1634.41 528.541 1634.36 529.151 1634.21 529.734C1634.06 530.317 1633.8 530.862 1633.44 531.339Z" fill="#CCCCCC"/>
<path d="M1683.69 504.41L1624.86 584.137C1624.51 584.614 1624.07 585.012 1623.58 585.31C1623.08 585.609 1622.53 585.8 1621.96 585.874C1621.4 585.948 1620.82 585.903 1620.27 585.742C1619.72 585.58 1619.2 585.306 1618.75 584.934C1618.3 584.561 1617.92 584.099 1617.64 583.573C1617.36 583.046 1617.18 582.467 1617.11 581.866C1617.04 581.266 1617.08 580.657 1617.24 580.074C1617.39 579.491 1617.65 578.946 1618 578.469L1676.82 498.742C1677.18 498.264 1677.61 497.864 1678.11 497.565C1678.61 497.266 1679.16 497.074 1679.73 496.999C1680.29 496.925 1680.87 496.969 1681.42 497.131C1681.97 497.292 1682.49 497.567 1682.94 497.939C1683.39 498.312 1683.77 498.775 1684.05 499.302C1684.33 499.829 1684.51 500.409 1684.58 501.01C1684.65 501.611 1684.61 502.221 1684.46 502.804C1684.3 503.387 1684.04 503.933 1683.69 504.41Z" fill="#CCCCCC"/>
<path d="M1583.36 637.394C1599.2 637.394 1612.03 623.813 1612.03 607.06C1612.03 590.306 1599.2 576.725 1583.36 576.725C1567.52 576.725 1554.69 590.306 1554.69 607.06C1554.69 623.813 1567.52 637.394 1583.36 637.394Z" fill="#504E4B"/>
<path d="M1686.81 567.421L1614.56 665.342C1613.81 666.154 1612.8 666.645 1611.72 666.719C1610.65 666.794 1609.59 666.449 1608.74 665.748C1607.89 665.048 1607.32 664.041 1607.12 662.921C1606.93 661.801 1607.14 660.645 1607.7 659.674L1679.95 561.753C1680.7 560.941 1681.71 560.451 1682.79 560.376C1683.86 560.301 1684.92 560.647 1685.77 561.347C1686.62 562.048 1687.19 563.054 1687.39 564.174C1687.58 565.294 1687.37 566.45 1686.81 567.421Z" fill="#CCCCCC"/>
<path d="M1733.68 545.064L1632.84 681.738C1632.08 682.55 1631.07 683.04 1630 683.115C1628.93 683.19 1627.86 682.844 1627.02 682.144C1626.17 681.444 1625.59 680.437 1625.4 679.317C1625.21 678.197 1625.41 677.041 1625.98 676.07L1726.82 539.396C1727.57 538.584 1728.58 538.094 1729.66 538.019C1730.73 537.944 1731.79 538.29 1732.64 538.99C1733.49 539.69 1734.06 540.697 1734.26 541.817C1734.45 542.937 1734.24 544.093 1733.68 545.064Z" fill="#CCCCCC"/>
<path d="M1733.33 605.835L1661.08 703.756C1660.33 704.569 1659.32 705.059 1658.24 705.134C1657.17 705.209 1656.11 704.863 1655.26 704.163C1654.41 703.462 1653.84 702.456 1653.64 701.336C1653.45 700.216 1653.66 699.06 1654.22 698.089L1726.47 600.168C1727.22 599.355 1728.23 598.865 1729.31 598.79C1730.38 598.715 1731.44 599.061 1732.29 599.761C1733.14 600.462 1733.71 601.468 1733.91 602.588C1734.1 603.708 1733.89 604.864 1733.33 605.835Z" fill="#CCCCCC"/>
<path d="M1828.93 617.911L1756.68 715.832C1755.93 716.644 1754.92 717.135 1753.84 717.21C1752.77 717.285 1751.71 716.939 1750.86 716.238C1750.01 715.538 1749.43 714.532 1749.24 713.411C1749.05 712.291 1749.25 711.136 1749.82 710.165L1822.07 612.243C1822.82 611.431 1823.83 610.941 1824.9 610.866C1825.98 610.791 1827.04 611.137 1827.89 611.837C1828.74 612.538 1829.31 613.544 1829.5 614.664C1829.7 615.784 1829.49 616.94 1828.93 617.911Z" fill="#504E4B"/>
<path d="M1780.2 583.478L1679.36 720.152C1678.6 720.964 1677.59 721.455 1676.52 721.53C1675.45 721.605 1674.38 721.259 1673.54 720.558C1672.69 719.858 1672.11 718.852 1671.92 717.731C1671.73 716.611 1671.93 715.456 1672.5 714.485L1773.34 577.811C1774.09 576.998 1775.1 576.508 1776.18 576.433C1777.25 576.358 1778.31 576.704 1779.16 577.404C1780.01 578.105 1780.58 579.111 1780.78 580.231C1780.97 581.351 1780.76 582.507 1780.2 583.478Z" fill="#CCCCCC"/>
<path d="M1661.42 360.841C1661.42 368.21 1663.13 375.466 1666.39 381.974C1669.66 388.482 1674.39 394.042 1680.16 398.165C1685.93 402.289 1692.58 404.851 1699.5 405.625C1706.43 406.4 1713.43 405.364 1719.89 402.608C1726.35 399.852 1732.07 395.461 1736.55 389.819C1741.03 384.178 1744.14 377.459 1745.59 370.253C1747.04 363.046 1746.8 355.573 1744.89 348.488C1742.98 341.403 1739.45 334.923 1734.61 329.617L1734.41 329.402C1734.07 329.023 1733.73 328.645 1733.37 328.285C1733.37 328.285 1733.37 328.285 1733.36 328.284C1733.36 328.283 1733.36 328.281 1733.36 328.28C1733.36 328.278 1733.36 328.276 1733.35 328.274C1733.35 328.272 1733.35 328.269 1733.35 328.267C1732.91 327.835 1732.47 327.403 1732.01 326.989C1725.86 321.286 1718.29 317.578 1710.2 316.31C1702.11 315.043 1693.85 316.268 1686.4 319.84C1678.95 323.412 1672.63 329.179 1668.2 336.45C1663.78 343.722 1661.42 352.19 1661.42 360.841Z" fill="#2F2E41"/>
<path d="M1714.46 409.005C1734.17 409.005 1750.14 392.105 1750.14 371.257C1750.14 350.409 1734.17 333.508 1714.46 333.508C1694.75 333.508 1678.78 350.409 1678.78 371.257C1678.78 392.105 1694.75 409.005 1714.46 409.005Z" fill="#FFB8B8"/>
<path d="M1676.42 381.317C1672.93 364.689 1677.97 346.06 1688.96 334.959C1694.49 329.486 1701.37 325.775 1708.8 324.251C1716.23 322.726 1723.92 323.452 1730.98 326.343C1731.88 326.727 1732.78 327.146 1733.66 327.584L1734.07 327.788V327.851C1734.15 327.91 1734.23 327.971 1734.31 328.033C1734.47 328.198 1734.67 328.316 1734.9 328.377C1737.99 328.291 1741.07 328.899 1743.93 330.16C1746.8 331.422 1749.37 333.309 1751.49 335.697C1757.03 342.045 1759.63 352.304 1758.83 364.584L1758.81 364.968L1758.5 365.172C1754.31 367.979 1749.96 370.513 1745.49 372.761C1729.82 380.553 1715.52 381.997 1701.78 377.169L1701.52 377.081L1695.76 366.853C1694.57 373.907 1695.2 397.306 1688.41 398.573L1676.57 382.022L1676.42 381.317Z" fill="#2F2E41"/>
<path d="M1601.31 414.184C1613.45 407.553 1597.83 383.49 1600.97 369.42C1604.11 355.351 1626.71 350.825 1628.15 336.45C1629.59 322.074 1632.97 307.248 1641.94 296.34C1647.67 289.369 1656.11 284.224 1664.8 285.097C1667.75 285.392 1670.59 286.355 1673.15 287.919C1675.71 289.483 1677.92 291.612 1679.63 294.16C1681.34 296.709 1682.51 299.618 1683.06 302.688C1683.61 305.758 1683.53 308.919 1682.82 311.953C1685.3 308.243 1691.7 309.047 1693.29 313.267C1694.7 317.019 1691.58 321.563 1687.92 321.895C1683.12 328.159 1677.63 334.807 1670.12 336.071C1668.93 336.361 1667.68 336.361 1666.48 336.069C1665.29 335.776 1664.17 335.2 1663.21 334.384C1661.45 332.589 1661.31 328.999 1663.41 327.658C1653.97 331.625 1648.43 342.423 1647.03 353.066C1645.63 363.709 1647.57 374.478 1648.85 385.139C1650.12 395.799 1650.67 407.014 1646.72 416.914C1642.05 428.61 1631.3 436.994 1619.58 439.682C1607.85 442.37 1595.35 439.743 1584.74 433.823C1574.12 427.903 1565.27 418.865 1558.03 408.733C1570.49 418.092 1587.73 421.598 1601.31 414.184Z" fill="#2F2E41"/>
<path d="M1697.41 368.816C1684.94 391.554 1708.43 429.864 1684.75 437.82L1686.7 435.756C1701 417.159 1671.12 377.797 1685.42 359.2C1687.64 356.472 1689.54 353.474 1691.09 350.271" fill="#2F2E41"/>
<path d="M1678.09 380.972C1678.09 380.972 1688.66 339.233 1733.97 329.599C1734.02 329.582 1734.19 329.51 1734.41 329.402C1734.54 329.311 1734.71 329.221 1734.89 329.131C1734.37 328.825 1733.88 328.555 1733.37 328.285L1733.36 328.284L1733.36 328.28L1733.35 328.274L1733.35 328.267C1732.91 327.835 1732.47 327.403 1732.01 326.988L1730.72 327.043C1730.72 327.043 1685.25 319.426 1678.09 380.972Z" fill="#FD6584"/>
</g>
<rect x="970" y="302" width="20" height="20" rx="10" fill="white"/>
<rect x="1034" y="366" width="20" height="20" rx="10" fill="white"/>
<rect x="1002" y="366" width="20" height="20" rx="10" fill="white"/>
<rect x="970" y="366" width="20" height="20" rx="10" fill="white"/>
<rect x="1002" y="334" width="20" height="20" rx="10" fill="white"/>
<rect x="970" y="334" width="20" height="20" rx="10" fill="white"/>
<rect x="1033" y="302" width="20" height="20" rx="10" fill="white"/>
<rect x="1002" y="302" width="20" height="20" rx="10" fill="white"/>
<rect x="587" y="957" width="20" height="20" rx="10" fill="#3EFAFA"/>
<rect x="524" y="925" width="20" height="20" rx="10" fill="#3EFAFA"/>
<rect x="588" y="989" width="20" height="20" rx="10" fill="#3EFAFA"/>
<rect x="556" y="989" width="20" height="20" rx="10" fill="#3EFAFA"/>
<rect x="524" y="989" width="20" height="20" rx="10" fill="#3EFAFA"/>
<rect x="556" y="957" width="20" height="20" rx="10" fill="#3EFAFA"/>
<rect x="524" y="957" width="20" height="20" rx="10" fill="#3EFAFA"/>
<rect x="587" y="925" width="20" height="20" rx="10" fill="#3EFAFA"/>
<rect x="556" y="925" width="20" height="20" rx="10" fill="#3EFAFA"/>
</g>
<defs>
<clipPath id="clip0_1_2">
<rect width="1920" height="1080" fill="white"/>
</clipPath>
<clipPath id="clip1_1_2">
<rect width="935" height="925" fill="white" transform="translate(1043 172)"/>
</clipPath>
<clipPath id="clip2_1_2">
<rect width="312.325" height="689.353" fill="white" transform="translate(1177 391)"/>
</clipPath>
<clipPath id="clip3_1_2">
<rect width="1024" height="822" fill="white" transform="translate(1349 285)"/>
</clipPath>
</defs>
</svg>
