<svg width="1920" height="1080" viewBox="0 0 1920 1080" fill="none" xmlns="http://www.w3.org/2000/svg">
<g clip-path="url(#clip0_1_2)">
<rect y="780" width="626" height="300" fill="#3EFAFA"/>
<rect x="1019" y="628" width="902" height="453" fill="#6C9FDA"/>
<path d="M1650.11 645.286V775.286H1324.42C1287.31 775.286 1257.11 746.126 1257.11 710.286C1257.11 674.446 1287.31 645.286 1324.42 645.286H1650.11Z" fill="#F2F2F2"/>
<path d="M1658.11 774.286C1658.11 775.612 1657.59 776.883 1656.65 777.821C1655.71 778.759 1654.44 779.285 1653.11 779.286H1318.61C1300.45 779.286 1283.02 772.069 1270.18 759.223C1257.33 746.377 1250.11 728.953 1250.11 710.786C1250.11 692.619 1257.33 675.195 1270.18 662.349C1283.02 649.503 1300.45 642.286 1318.61 642.286H1653.11C1654.44 642.286 1655.71 642.813 1656.65 643.75C1657.59 644.688 1658.11 645.96 1658.11 647.286C1658.11 648.612 1657.59 649.884 1656.65 650.822C1655.71 651.759 1654.44 652.286 1653.11 652.286H1318.61C1303.1 652.286 1288.22 658.449 1277.25 669.42C1266.28 680.391 1260.11 695.271 1260.11 710.786C1260.11 726.301 1266.28 741.181 1277.25 752.152C1288.22 763.123 1303.1 769.286 1318.61 769.286H1653.11C1654.44 769.287 1655.71 769.813 1656.65 770.751C1657.59 771.689 1658.11 772.96 1658.11 774.286Z" fill="#8F8E9C"/>
<path d="M1650.11 675.286H1300.11C1299.85 675.286 1299.59 675.181 1299.41 674.993C1299.22 674.806 1299.11 674.551 1299.11 674.286C1299.11 674.021 1299.22 673.766 1299.41 673.579C1299.59 673.391 1299.85 673.286 1300.11 673.286H1650.11C1650.38 673.286 1650.63 673.391 1650.82 673.579C1651.01 673.766 1651.11 674.021 1651.11 674.286C1651.11 674.551 1651.01 674.806 1650.82 674.993C1650.63 675.181 1650.38 675.286 1650.11 675.286Z" fill="#CCCCCC"/>
<path d="M1650.11 699.286H1300.11C1299.85 699.286 1299.59 699.181 1299.41 698.993C1299.22 698.806 1299.11 698.551 1299.11 698.286C1299.11 698.021 1299.22 697.766 1299.41 697.579C1299.59 697.391 1299.85 697.286 1300.11 697.286H1650.11C1650.38 697.286 1650.63 697.391 1650.82 697.579C1651.01 697.766 1651.11 698.021 1651.11 698.286C1651.11 698.551 1651.01 698.806 1650.82 698.993C1650.63 699.181 1650.38 699.286 1650.11 699.286Z" fill="#CCCCCC"/>
<path d="M1650.11 723.286H1300.11C1299.85 723.286 1299.59 723.181 1299.41 722.993C1299.22 722.806 1299.11 722.551 1299.11 722.286C1299.11 722.021 1299.22 721.766 1299.41 721.579C1299.59 721.391 1299.85 721.286 1300.11 721.286H1650.11C1650.38 721.286 1650.63 721.391 1650.82 721.579C1651.01 721.766 1651.11 722.021 1651.11 722.286C1651.11 722.551 1651.01 722.806 1650.82 722.993C1650.63 723.181 1650.38 723.286 1650.11 723.286Z" fill="#CCCCCC"/>
<path d="M1650.11 747.286H1300.11C1299.85 747.286 1299.59 747.181 1299.41 746.993C1299.22 746.806 1299.11 746.551 1299.11 746.286C1299.11 746.021 1299.22 745.766 1299.41 745.579C1299.59 745.391 1299.85 745.286 1300.11 745.286H1650.11C1650.38 745.286 1650.63 745.391 1650.82 745.579C1651.01 745.766 1651.11 746.021 1651.11 746.286C1651.11 746.551 1651.01 746.806 1650.82 746.993C1650.63 747.181 1650.38 747.286 1650.11 747.286Z" fill="#CCCCCC"/>
<path d="M1901.83 669.757L1820.27 770.985L1566.65 566.635C1537.76 543.352 1532.54 501.703 1555.03 473.795C1577.51 445.887 1619.32 442.124 1648.22 465.407L1901.83 669.757Z" fill="#F2F2F2"/>
<path d="M1827.12 775.226C1826.29 776.258 1825.08 776.918 1823.77 777.059C1822.45 777.201 1821.13 776.814 1820.09 775.982L1559.62 566.11C1545.48 554.711 1536.44 538.16 1534.5 520.097C1532.55 502.034 1537.86 483.939 1549.26 469.792C1560.66 455.646 1577.21 446.606 1595.28 444.663C1613.34 442.72 1631.43 448.032 1645.58 459.431L1906.05 669.303C1906.56 669.715 1906.99 670.224 1907.3 670.8C1907.62 671.376 1907.82 672.009 1907.89 672.662C1907.96 673.315 1907.9 673.976 1907.71 674.606C1907.53 675.236 1907.22 675.824 1906.81 676.335C1906.4 676.847 1905.89 677.272 1905.31 677.587C1904.73 677.902 1904.1 678.1 1903.45 678.17C1902.8 678.24 1902.13 678.181 1901.5 677.995C1900.87 677.81 1900.29 677.502 1899.78 677.09L1639.31 467.218C1633.33 462.394 1626.45 458.796 1619.08 456.629C1611.71 454.463 1603.98 453.77 1596.34 454.59C1588.7 455.411 1581.3 457.728 1574.55 461.411C1567.81 465.093 1561.85 470.068 1557.03 476.052C1552.21 482.035 1548.62 488.91 1546.45 496.284C1544.29 503.657 1543.6 511.384 1544.42 519.024C1545.25 526.664 1547.57 534.067 1551.25 540.81C1554.94 547.553 1559.91 553.504 1565.9 558.323L1826.37 768.196C1827.4 769.028 1828.06 770.236 1828.2 771.554C1828.34 772.872 1827.96 774.193 1827.12 775.226Z" fill="#CCCCCC"/>
<path d="M1883.01 693.117L1610.47 473.52C1610.37 473.438 1610.28 473.336 1610.22 473.221C1610.16 473.105 1610.12 472.979 1610.1 472.848C1610.09 472.718 1610.1 472.586 1610.14 472.46C1610.18 472.334 1610.24 472.216 1610.32 472.114C1610.4 472.012 1610.5 471.927 1610.62 471.864C1610.73 471.801 1610.86 471.761 1610.99 471.747C1611.12 471.733 1611.25 471.745 1611.38 471.782C1611.51 471.819 1611.62 471.88 1611.73 471.963L1884.26 691.56C1884.37 691.642 1884.45 691.744 1884.51 691.859C1884.58 691.975 1884.62 692.101 1884.63 692.232C1884.65 692.362 1884.63 692.495 1884.6 692.621C1884.56 692.747 1884.5 692.865 1884.42 692.967C1884.33 693.069 1884.23 693.154 1884.12 693.217C1884 693.28 1883.87 693.32 1883.74 693.334C1883.61 693.348 1883.48 693.336 1883.35 693.299C1883.23 693.262 1883.11 693.2 1883.01 693.117Z" fill="#CCCCCC"/>
<path d="M1867.95 711.806L1595.41 492.208C1595.21 492.042 1595.07 491.8 1595.05 491.537C1595.02 491.273 1595.1 491.009 1595.26 490.803C1595.43 490.597 1595.67 490.465 1595.93 490.436C1596.2 490.408 1596.46 490.485 1596.67 490.651L1869.21 710.248C1869.31 710.331 1869.39 710.432 1869.46 710.548C1869.52 710.663 1869.56 710.789 1869.57 710.92C1869.59 711.051 1869.58 711.183 1869.54 711.309C1869.5 711.435 1869.44 711.553 1869.36 711.655C1869.28 711.758 1869.17 711.843 1869.06 711.906C1868.94 711.969 1868.82 712.008 1868.69 712.022C1868.55 712.036 1868.42 712.024 1868.3 711.987C1868.17 711.95 1868.05 711.888 1867.95 711.806Z" fill="#CCCCCC"/>
<path d="M1852.89 730.494L1580.35 510.897C1580.15 510.73 1580.02 510.489 1579.99 510.225C1579.96 509.961 1580.04 509.697 1580.2 509.491C1580.37 509.284 1580.61 509.152 1580.88 509.124C1581.14 509.095 1581.4 509.173 1581.61 509.339L1854.15 728.937C1854.25 729.019 1854.33 729.121 1854.4 729.236C1854.46 729.351 1854.5 729.478 1854.51 729.608C1854.53 729.739 1854.52 729.871 1854.48 729.997C1854.44 730.123 1854.38 730.24 1854.3 730.343C1854.22 730.445 1854.11 730.53 1854 730.593C1853.88 730.656 1853.76 730.695 1853.63 730.71C1853.5 730.724 1853.36 730.712 1853.24 730.675C1853.11 730.638 1853 730.576 1852.89 730.494Z" fill="#CCCCCC"/>
<path d="M1837.83 749.182L1565.3 529.585C1565.19 529.503 1565.11 529.401 1565.05 529.286C1564.98 529.17 1564.94 529.044 1564.93 528.913C1564.92 528.783 1564.93 528.651 1564.96 528.525C1565 528.399 1565.06 528.281 1565.15 528.179C1565.23 528.077 1565.33 527.992 1565.44 527.929C1565.56 527.866 1565.69 527.826 1565.82 527.812C1565.95 527.798 1566.08 527.81 1566.21 527.847C1566.33 527.884 1566.45 527.945 1566.55 528.028L1839.09 747.625C1839.19 747.707 1839.28 747.809 1839.34 747.924C1839.4 748.04 1839.44 748.166 1839.46 748.297C1839.47 748.427 1839.46 748.56 1839.42 748.686C1839.39 748.812 1839.32 748.929 1839.24 749.032C1839.16 749.134 1839.06 749.219 1838.94 749.282C1838.83 749.345 1838.7 749.385 1838.57 749.399C1838.44 749.413 1838.31 749.401 1838.18 749.364C1838.05 749.326 1837.94 749.265 1837.83 749.182Z" fill="#CCCCCC"/>
<path d="M1514.08 631.622L1502.65 631.621L1497.21 587.525L1514.09 587.527L1514.08 631.622Z" fill="#FFB8B8"/>
<path d="M1494.48 628.355H1516.53V642.236H1480.6C1480.6 640.413 1480.96 638.608 1481.66 636.924C1482.35 635.24 1483.38 633.71 1484.67 632.42C1485.96 631.131 1487.49 630.109 1489.17 629.411C1490.85 628.714 1492.66 628.355 1494.48 628.355Z" fill="#2F2E41"/>
<path d="M1397.29 631.622L1385.85 631.621L1380.42 587.525L1397.29 587.527L1397.29 631.622Z" fill="#FFB8B8"/>
<path d="M1377.69 628.355H1399.74V642.236H1363.81C1363.81 640.413 1364.16 638.608 1364.86 636.924C1365.56 635.24 1366.58 633.71 1367.87 632.42C1369.16 631.131 1370.69 630.109 1372.38 629.411C1374.06 628.714 1375.86 628.355 1377.69 628.355Z" fill="#2F2E41"/>
<path d="M1435.47 304.533V299.533C1435.47 290.98 1438.87 282.777 1444.92 276.729C1450.96 270.681 1459.17 267.283 1467.72 267.283C1476.27 267.283 1484.48 270.681 1490.53 276.729C1496.57 282.777 1499.97 290.98 1499.97 299.533V304.533C1499.97 310.699 1497.52 316.613 1493.16 320.973C1488.8 325.334 1482.89 327.783 1476.72 327.783H1458.72C1455.67 327.783 1452.64 327.182 1449.82 326.013C1447 324.845 1444.44 323.132 1442.28 320.973C1440.12 318.814 1438.41 316.251 1437.24 313.43C1436.07 310.61 1435.47 307.586 1435.47 304.533Z" fill="#2F2E41"/>
<path d="M1467.72 329.504C1481.29 329.504 1492.28 318.507 1492.28 304.942C1492.28 291.378 1481.29 280.381 1467.72 280.381C1454.16 280.381 1443.16 291.378 1443.16 304.942C1443.16 318.507 1454.16 329.504 1467.72 329.504Z" fill="#FFB8B8"/>
<path d="M1334.12 389.356C1335.12 388.414 1336.31 387.703 1337.61 387.272C1338.91 386.841 1340.29 386.7 1341.66 386.86C1343.02 387.02 1344.33 387.477 1345.49 388.198C1346.66 388.919 1347.65 389.886 1348.4 391.033L1369.46 387.05L1375 399.255L1345.19 404.462C1343.18 405.596 1340.82 405.954 1338.57 405.468C1336.31 404.982 1334.31 403.685 1332.95 401.823C1331.58 399.961 1330.95 397.663 1331.17 395.365C1331.38 393.068 1332.44 390.929 1334.12 389.356Z" fill="#FFB8B8"/>
<path d="M1448.85 345.388L1414.32 368.133L1356.06 386.736C1355.29 386.984 1354.63 387.492 1354.19 388.174C1353.75 388.856 1353.56 389.668 1353.65 390.474L1354.92 401.421C1354.98 401.905 1355.14 402.373 1355.38 402.793C1355.63 403.213 1355.96 403.577 1356.36 403.861C1356.76 404.146 1357.21 404.344 1357.69 404.443C1358.16 404.543 1358.66 404.542 1359.13 404.439L1413.96 392.687C1416.62 392.121 1419.13 391.017 1421.33 389.441L1460.12 361.844C1461.53 360.838 1462.65 359.486 1463.38 357.918C1464.11 356.35 1464.42 354.62 1464.28 352.897C1464.14 351.171 1463.55 349.512 1462.57 348.083C1461.59 346.654 1460.26 345.504 1458.7 344.746C1457.15 343.989 1455.42 343.65 1453.69 343.762C1451.96 343.875 1450.29 344.435 1448.85 345.388Z" fill="#CCCCCC"/>
<path d="M1502.85 619.109C1501.98 619.109 1501.12 618.853 1500.38 618.374C1499.65 617.894 1499.07 617.211 1498.72 616.407L1446.31 486.907C1446.18 486.626 1445.98 486.389 1445.72 486.228C1445.46 486.068 1445.15 485.991 1444.85 486.008C1444.54 486.025 1444.25 486.136 1444.01 486.325C1443.76 486.514 1443.59 486.772 1443.5 487.065L1400.74 613.138C1400.56 613.725 1400.26 614.269 1399.86 614.736C1399.46 615.203 1398.97 615.583 1398.42 615.854C1397.87 616.125 1397.27 616.28 1396.66 616.31C1396.04 616.341 1395.43 616.245 1394.86 616.03L1380.52 610.653C1379.74 610.363 1379.06 609.864 1378.55 609.21C1378.03 608.556 1377.71 607.773 1377.62 606.948C1371.17 550.756 1427.42 408.918 1427.99 407.492L1428.15 407.097L1479.43 418.44L1479.53 418.556C1499.99 440.874 1516.81 581.638 1519.97 609.63C1520.09 610.641 1519.86 611.662 1519.32 612.525C1518.78 613.388 1517.96 614.041 1517 614.377L1504.34 618.853C1503.86 619.022 1503.36 619.109 1502.85 619.109Z" fill="#2F2E41"/>
<path d="M1458.67 423.006C1446.25 423.006 1432.4 420.529 1428.13 410.305L1428.04 410.07L1428.17 409.852C1431.53 404.331 1435.98 394.912 1433.59 393.144C1428.88 389.662 1426.6 383.934 1426.8 376.118C1427.24 359.153 1438.8 344.09 1455.57 338.636C1460.25 337.138 1465.01 335.912 1469.83 334.964C1473.34 334.254 1476.97 334.332 1480.45 335.192C1483.93 336.052 1487.18 337.672 1489.96 339.935C1492.78 342.214 1495.05 345.088 1496.63 348.351C1498.2 351.613 1499.03 355.184 1499.06 358.806C1499.23 376.937 1496.44 402.189 1482.15 419.526C1481.48 420.331 1480.54 420.873 1479.51 421.057C1472.63 422.302 1465.66 422.953 1458.67 423.006Z" fill="#CCCCCC"/>
<path d="M1454.05 422.327C1454.73 419.901 1456.33 417.841 1458.52 416.593C1460.71 415.345 1463.3 415.011 1465.73 415.663C1466.23 415.801 1466.71 415.981 1467.18 416.199L1483.16 401.65L1494.28 409.14L1471.42 429.371C1470.39 431.232 1468.76 432.695 1466.8 433.526C1464.84 434.357 1462.66 434.509 1460.61 433.958C1459.41 433.63 1458.29 433.068 1457.31 432.305C1456.33 431.541 1455.51 430.591 1454.9 429.51C1454.29 428.428 1453.9 427.236 1453.76 426.004C1453.61 424.771 1453.71 423.521 1454.05 422.327Z" fill="#FFB8B8"/>
<path d="M1480.63 422.512C1479.59 422.512 1478.59 422.153 1477.79 421.496L1471.48 416.345C1470.96 415.915 1470.53 415.372 1470.25 414.757C1469.96 414.141 1469.82 413.469 1469.83 412.791C1469.84 412.112 1470 411.444 1470.31 410.838C1470.61 410.232 1471.05 409.702 1471.59 409.289L1498.03 389.01C1498.35 388.768 1498.55 388.413 1498.6 388.02C1498.66 387.628 1498.55 387.231 1498.32 386.915L1482 365.339C1480.1 362.84 1479.15 359.752 1479.31 356.619C1479.47 353.487 1480.74 350.513 1482.88 348.224C1485.14 345.785 1488.23 344.284 1491.55 344.019C1494.86 343.754 1498.15 344.745 1500.77 346.794L1500.87 346.903L1517.92 371.305C1519.76 372.75 1521.24 374.601 1522.25 376.714C1523.26 378.828 1523.77 381.146 1523.73 383.487C1523.7 385.829 1523.12 388.13 1522.05 390.212C1520.98 392.295 1519.44 394.101 1517.56 395.491L1483.31 421.629C1482.53 422.202 1481.6 422.512 1480.63 422.512Z" fill="#CCCCCC"/>
<path d="M1445.97 298.033V285.847L1467.72 276.347L1488.47 285.847V298.033C1488.47 298.563 1488.25 299.072 1487.88 299.447C1487.5 299.822 1487 300.033 1486.47 300.033H1447.97C1447.43 300.033 1446.93 299.822 1446.55 299.447C1446.18 299.072 1445.97 298.563 1445.97 298.033Z" fill="#2F2E41"/>
<path d="M1466.72 268.9C1463.52 258.661 1470.24 246.927 1480.17 242.875C1490.1 238.822 1501.99 241.655 1510.37 248.351C1518.75 255.046 1523.95 265.075 1526.7 275.442C1529.46 285.808 1529.98 296.619 1530.49 307.333C1542.69 309.574 1550.99 324.047 1546.76 335.711C1542.54 347.375 1526.89 353.17 1516.09 347.074C1505.28 340.977 1502.15 324.589 1509.95 314.94C1513.64 310.374 1515.7 304.708 1515.81 298.839C1515.91 292.969 1514.06 287.232 1510.53 282.536C1507.01 277.84 1502.02 274.454 1496.36 272.913C1490.69 271.372 1484.68 271.765 1479.26 274.03C1473.25 276.545 1465.7 270.011 1466.72 268.9Z" fill="#2F2E41"/>
<rect x="1255" y="455" width="20" height="20" rx="10" fill="white"/>
<rect x="1192" y="423" width="20" height="20" rx="10" fill="white"/>
<rect x="1256" y="487" width="20" height="20" rx="10" fill="white"/>
<rect x="1224" y="487" width="20" height="20" rx="10" fill="white"/>
<rect x="1192" y="487" width="20" height="20" rx="10" fill="white"/>
<rect x="1224" y="455" width="20" height="20" rx="10" fill="white"/>
<rect x="1192" y="455" width="20" height="20" rx="10" fill="white"/>
<rect x="1255" y="423" width="20" height="20" rx="10" fill="white"/>
<rect x="1224" y="423" width="20" height="20" rx="10" fill="white"/>
<rect x="1008" y="575" width="21" height="506" fill="white"/>
<rect x="647" y="770" width="20" height="20" rx="10" fill="white"/>
<rect x="584" y="738" width="20" height="20" rx="10" fill="white"/>
<rect x="648" y="802" width="20" height="20" rx="10" fill="white"/>
<rect x="616" y="802" width="20" height="20" rx="10" fill="white"/>
<rect x="584" y="802" width="20" height="20" rx="10" fill="white"/>
<rect x="616" y="770" width="20" height="20" rx="10" fill="white"/>
<rect x="584" y="770" width="20" height="20" rx="10" fill="white"/>
<rect x="647" y="738" width="20" height="20" rx="10" fill="white"/>
<rect x="616" y="738" width="20" height="20" rx="10" fill="white"/>
<rect x="1061" y="290" width="20" height="20" rx="10" fill="#3EFAFA"/>
<rect x="998" y="258" width="20" height="20" rx="10" fill="#3EFAFA"/>
<rect x="1062" y="322" width="20" height="20" rx="10" fill="#3EFAFA"/>
<rect x="1030" y="322" width="20" height="20" rx="10" fill="#3EFAFA"/>
<rect x="998" y="322" width="20" height="20" rx="10" fill="#3EFAFA"/>
<rect x="1030" y="290" width="20" height="20" rx="10" fill="#3EFAFA"/>
<rect x="998" y="290" width="20" height="20" rx="10" fill="#3EFAFA"/>
<rect x="1061" y="258" width="20" height="20" rx="10" fill="#3EFAFA"/>
<rect x="1030" y="258" width="20" height="20" rx="10" fill="#3EFAFA"/>
<path fill-rule="evenodd" clip-rule="evenodd" d="M50.4092 622.205H50L50 722.205H150V721.795L50.4092 622.205Z" fill="white"/>
</g>
<defs>
<clipPath id="clip0_1_2">
<rect width="1920" height="1080" fill="white"/>
</clipPath>
</defs>
</svg>
