<svg width="1920" height="1080" viewBox="0 0 1920 1080" fill="none" xmlns="http://www.w3.org/2000/svg">
<g clip-path="url(#clip0_2_2)">
<rect y="887" width="1241" height="255" fill="#6C9FDA"/>
<rect x="1027" y="652" width="893" height="428" fill="#3EFAFA"/>
<rect x="1323" y="669" width="21" height="700" transform="rotate(-90 1323 669)" fill="white"/>
<rect x="1021" y="636" width="21" height="459" fill="white"/>
<g clip-path="url(#clip1_2_2)">
<path d="M1507.62 572.613C1488.98 583.796 1455.76 597.809 1421.81 583.408L1399.86 574.099L1443.84 524.801C1408.74 486.106 1389.33 435.722 1389.38 383.484C1389.44 331.246 1408.95 280.902 1444.13 242.279C1479.3 203.657 1527.6 179.527 1579.61 174.601C1631.61 169.675 1683.59 184.306 1725.39 215.637C1767.19 246.969 1795.81 292.752 1805.67 344.051C1815.53 395.351 1805.92 448.484 1778.72 493.079C1751.52 537.675 1708.67 570.532 1658.54 585.238C1608.42 599.944 1554.61 595.443 1507.62 572.613ZM1423.36 383.366C1423.27 407.447 1428.15 431.287 1437.72 453.388C1447.28 475.488 1461.31 495.371 1478.93 511.784L1491.06 523.184L1463.39 554.205C1477.81 551.28 1490.36 543.482 1496.73 538.953L1505.46 532.738L1514.86 537.9C1540.83 552.118 1569.96 559.569 1599.56 559.566C1696.72 559.566 1775.76 480.524 1775.76 383.366C1775.76 286.209 1696.72 207.166 1599.56 207.166C1502.41 207.166 1423.36 286.209 1423.36 383.366Z" fill="#3F3D56"/>
<path d="M1406.28 383.366C1406.28 276.619 1492.82 190.083 1599.56 190.083C1706.31 190.083 1792.85 276.619 1792.85 383.366C1792.85 490.114 1706.31 576.65 1599.56 576.65C1567.07 576.697 1535.1 568.517 1506.63 552.873C1493.27 562.379 1460.68 581.341 1428.48 567.682L1467.24 524.234C1447.97 506.181 1432.62 484.362 1422.13 460.13C1411.64 435.898 1406.25 409.77 1406.28 383.366Z" fill="#8D8C94"/>
<path opacity="0.1" d="M1759.92 383.785C1759.92 282.796 1682.46 199.912 1583.72 191.262C1589.35 190.769 1595.04 190.502 1600.8 190.502C1707.55 190.502 1794.09 277.038 1794.09 383.785C1794.09 490.533 1707.55 577.068 1600.8 577.068C1595.05 577.068 1589.37 576.798 1583.75 576.306C1682.48 567.644 1759.92 484.765 1759.92 383.785Z" fill="black"/>
<path d="M1154.16 841.125C1105.87 841.148 1059.03 824.57 1021.5 794.169C983.977 763.769 958.04 721.394 948.038 674.146C938.037 626.897 944.579 577.647 966.569 534.648C988.559 491.649 1024.66 457.515 1068.82 437.967C1112.99 418.418 1162.52 414.643 1209.14 427.274C1255.75 439.905 1296.61 468.174 1324.86 507.344C1353.11 546.514 1367.04 594.204 1364.32 642.422C1361.59 690.641 1342.37 736.457 1309.89 772.193L1353.87 821.492L1331.92 830.801C1297.97 845.201 1264.75 831.189 1246.1 820.006C1217.44 833.898 1186.01 841.119 1154.16 841.125ZM1154.16 454.558C1057.01 454.558 977.962 533.602 977.962 630.758C977.962 727.916 1057.01 806.959 1154.16 806.959C1183.77 806.962 1212.9 799.51 1238.87 785.292L1248.26 780.13L1257 786.345C1263.36 790.875 1275.92 798.673 1290.33 801.597L1262.66 770.576L1274.79 759.176C1292.41 742.763 1306.45 722.88 1316.01 700.78C1325.57 678.68 1330.46 654.839 1330.36 630.758C1330.36 533.602 1251.32 454.558 1154.16 454.558Z" fill="#3F3D56"/>
<path d="M1347.45 630.758C1347.45 524.011 1260.91 437.475 1154.16 437.475C1047.42 437.475 960.879 524.011 960.879 630.758C960.879 737.506 1047.42 824.041 1154.16 824.041C1186.65 824.089 1218.62 815.909 1247.09 800.265C1260.46 809.771 1293.05 828.733 1325.25 815.074L1286.49 771.626C1305.76 753.573 1321.11 731.754 1331.6 707.522C1342.08 683.29 1347.48 657.162 1347.45 630.758Z" fill="#8D8C94"/>
<path opacity="0.1" d="M995.045 629.782C995.045 528.793 1072.5 445.908 1171.25 437.259C1165.62 436.766 1159.92 436.499 1154.16 436.499C1047.42 436.499 960.879 523.035 960.879 629.782C960.879 736.529 1047.42 823.065 1154.16 823.065C1159.91 823.065 1165.6 822.795 1171.22 822.303C1072.49 813.641 995.045 730.762 995.045 629.782Z" fill="black"/>
<path d="M1644.94 321.96C1632.29 300.592 1607.27 299.596 1607.27 299.596C1607.27 299.596 1582.89 296.479 1567.25 329.023C1552.67 359.356 1532.56 388.644 1564.01 395.745L1569.7 378.06L1573.21 397.062C1577.69 397.384 1582.19 397.461 1586.67 397.292C1620.36 396.204 1652.44 397.61 1651.41 385.521C1650.04 369.451 1657.11 342.521 1644.94 321.96Z" fill="#2F2E41"/>
<path d="M1562.22 509.092C1561.85 511.442 1561.31 513.763 1560.6 516.036C1559.81 518.261 1558.59 520.319 1557.87 522.568C1555.56 529.734 1558.76 537.724 1563.86 543.255C1568.29 548.033 1574.01 551.427 1580.32 553.029C1584.97 554.024 1589.71 554.522 1594.47 554.515C1607.62 554.961 1621.1 555.36 1633.56 551.135C1637.49 549.767 1641.29 548.04 1644.91 545.976C1646.06 545.432 1647.06 544.639 1647.86 543.656C1648.69 542.216 1649.07 540.554 1648.92 538.896C1648.9 533.323 1647.77 527.778 1648.03 522.211C1648.18 519.128 1648.76 516.047 1648.48 512.973C1648.08 509.482 1646.62 506.198 1644.29 503.57C1641.96 500.942 1638.87 499.099 1635.45 498.293C1631.92 497.534 1628.25 497.947 1624.65 498.293C1615.31 499.191 1605.94 499.61 1596.55 499.55C1586.97 499.488 1577.44 498.025 1567.9 497.872C1565.08 497.827 1565.14 498.697 1564.24 501.427C1563.42 503.939 1562.74 506.499 1562.22 509.092Z" fill="#2F2E41"/>
<path d="M1589.42 371.478C1588.96 373.89 1588.46 376.39 1587.01 378.372C1585.34 380.653 1582.63 381.956 1580.83 384.138C1578.13 387.424 1577.98 392.046 1577.97 396.299C1577.95 400.216 1578.03 404.395 1580.22 407.646C1581.77 409.667 1583.7 411.368 1585.9 412.657C1594.1 418.179 1602.95 423.799 1612.83 423.981C1616.92 424.056 1621.31 422.999 1624 419.917C1625.16 418.468 1626.08 416.837 1626.71 415.09C1629.23 408.864 1630.76 402.279 1631.24 395.578C1631.61 392.427 1631.31 389.236 1630.38 386.205C1629.18 382.859 1626.75 380.106 1625.15 376.934C1623.25 373.162 1622.56 368.9 1623.16 364.721C1623.24 364.427 1623.22 364.114 1623.09 363.836C1622.96 363.687 1622.8 363.571 1622.61 363.496C1622.43 363.422 1622.23 363.391 1622.03 363.406L1602.44 361.996C1600.62 361.905 1598.8 361.697 1597.01 361.374C1595.95 361.159 1593.16 359.659 1592.16 360.058C1590.29 360.796 1589.8 369.478 1589.42 371.478Z" fill="#A0616A"/>
<path opacity="0.1" d="M1589.42 372.09C1588.96 374.502 1588.46 377.002 1587.01 378.984C1585.34 381.264 1582.63 382.567 1580.83 384.75C1578.13 388.035 1577.98 392.658 1577.97 396.91C1577.95 400.828 1578.03 405.006 1580.22 408.258C1581.77 410.278 1583.7 411.979 1585.9 413.269C1594.1 418.79 1602.95 424.41 1612.83 424.592C1616.92 424.668 1621.31 423.611 1624 420.528C1625.16 419.08 1626.08 417.449 1626.71 415.701C1629.23 409.475 1630.76 402.891 1631.24 396.189C1631.61 393.039 1631.31 389.847 1630.38 386.816C1629.18 383.47 1626.75 380.718 1625.15 377.545C1623.25 373.774 1622.56 369.511 1623.16 365.333C1623.24 365.039 1623.22 364.726 1623.09 364.448C1622.96 364.299 1622.8 364.183 1622.61 364.108C1622.43 364.033 1622.23 364.002 1622.03 364.017L1602.44 362.607C1600.62 362.517 1598.8 362.309 1597.01 361.985C1595.95 361.77 1593.16 360.271 1592.16 360.67C1590.29 361.408 1589.8 370.089 1589.42 372.09Z" fill="black"/>
<path d="M1608.15 374.105C1624.02 374.105 1636.89 361.239 1636.89 345.37C1636.89 329.5 1624.02 316.635 1608.15 316.635C1592.28 316.635 1579.42 329.5 1579.42 345.37C1579.42 361.239 1592.28 374.105 1608.15 374.105Z" fill="#A0616A"/>
<path d="M1593.45 409.729C1594.87 411.373 1596.58 412.74 1598.5 413.762C1600.5 414.588 1602.64 414.996 1604.8 414.963C1609.98 415.108 1615.6 414.159 1619.2 410.435C1623.85 405.635 1623.69 397.893 1627.33 392.292C1627.63 391.785 1628.03 391.347 1628.51 391.009C1629.12 390.677 1629.81 390.518 1630.5 390.551C1635.1 390.508 1639.11 393.49 1642.72 396.332C1644.42 397.503 1645.88 398.99 1647.02 400.713C1647.74 402.108 1648.23 403.607 1648.47 405.154C1650.27 413.911 1650.85 422.865 1651.42 431.785C1651.74 436.712 1652.06 441.644 1652.04 446.581C1651.96 462.847 1648.18 478.841 1644.42 494.667C1643.93 496.706 1643.27 498.985 1641.42 499.962C1640.59 500.334 1639.7 500.551 1638.8 500.601C1628.03 501.866 1617.24 503.132 1606.4 503.299C1602.17 503.365 1597.94 503.262 1593.71 502.992C1592.98 502.982 1592.26 502.857 1591.57 502.62C1590.64 502.171 1589.84 501.49 1589.24 500.641C1583.38 493.251 1583.03 483.035 1583.07 473.601C1583.16 450.537 1583.99 427.491 1585.54 404.463C1585.67 402.562 1585.7 400.254 1584.33 398.759C1587 402.711 1590.05 406.386 1593.45 409.729Z" fill="white"/>
<path d="M1587.36 376.55C1586.39 378.307 1579.24 382.669 1577.86 384.125C1570.14 392.261 1556.05 391.955 1548.99 400.669C1546.51 403.734 1545.22 407.586 1544.27 411.416C1542.93 416.832 1542.21 422.739 1544.46 427.846C1546.62 432.76 1551.18 436.157 1554.27 440.547C1557.67 445.367 1559.19 451.219 1560.65 456.93C1561.73 461.146 1562.82 465.468 1562.4 469.8C1561.92 474.726 1559.54 479.237 1558.13 483.981C1556.73 488.726 1556.48 494.377 1559.74 498.106C1562.13 500.846 1565.88 501.932 1569.46 502.543C1574.05 503.233 1578.68 503.636 1583.32 503.749C1587.42 503.93 1591.94 503.966 1595.09 501.339C1597.57 499.266 1598.65 495.903 1598.79 492.67C1598.93 489.437 1598.26 486.232 1597.84 483.024C1597.4 479.698 1597.23 476.342 1597.09 472.991C1596.46 457.951 1596.38 442.903 1596.84 427.844C1597.07 424.714 1596.91 421.568 1596.38 418.476C1595.5 414.447 1593.32 410.847 1591.51 407.146C1587.88 400.175 1586.23 392.341 1586.75 384.498C1587.3 376.439 1590.82 370.299 1587.36 376.55Z" fill="white"/>
<path d="M1627.72 377.161C1629.19 378.681 1634.22 379.182 1636.1 380.16C1637.87 380.977 1639.71 381.616 1641.61 382.068C1648.47 384.047 1654.99 387.041 1660.96 390.952C1662.2 391.678 1663.3 392.625 1664.2 393.748C1665.15 395.288 1665.76 397.011 1665.99 398.804C1666.91 403.365 1667.84 407.981 1667.63 412.629C1667.41 417.564 1665.92 422.342 1664.45 427.056L1658.94 444.67C1654.83 457.817 1650.69 471.094 1649.53 484.82C1648.89 492.428 1649.18 500.085 1650.38 507.625C1650.49 507.991 1650.53 508.378 1650.48 508.759C1650.43 509.14 1650.3 509.506 1650.1 509.833C1649.74 510.192 1649.26 510.412 1648.75 510.454C1646.09 510.87 1643.52 509.514 1641.11 508.314C1633.75 504.65 1625.89 502.079 1617.78 500.681C1620.95 496.104 1623.39 491.066 1625.03 485.745C1625.96 482.367 1626.69 478.937 1627.22 475.473L1629.78 460.65C1630.82 455.232 1631.56 449.76 1631.98 444.258C1632.17 442.194 1632.05 440.112 1631.62 438.084C1631.03 436.153 1630.25 434.288 1629.28 432.515C1625.06 423.729 1623.08 413.703 1624.74 404.097C1625.47 399.893 1626.88 395.684 1626.29 391.459C1625.72 387.396 1626.31 384.239 1625.27 380.218C1620.99 363.711 1624.93 374.303 1627.72 377.161Z" fill="white"/>
<path d="M1548.92 414.56C1547 418.556 1543.78 421.96 1542.68 426.258C1542.25 428.267 1542.07 430.32 1542.14 432.372C1541.95 435.465 1542.25 438.569 1543.04 441.566C1543.65 443.461 1544.65 445.209 1545.37 447.067C1546.37 449.663 1546.81 452.44 1546.67 455.218C1546.48 459.067 1545.17 462.803 1545.07 466.656C1544.91 472.714 1547.71 478.409 1550.45 483.818C1551.13 482.114 1552.19 480.58 1553.53 479.325C1554.87 478.07 1556.47 477.124 1558.22 476.552C1559.97 475.98 1561.82 475.796 1563.64 476.015C1565.47 476.233 1567.22 476.847 1568.78 477.814C1569.41 477.045 1569.71 476.06 1569.61 475.073C1569.81 468.044 1570.01 461.015 1570.2 453.986C1570.49 443.115 1570.77 432.099 1568.27 421.516C1567.14 416.737 1565.39 411.977 1562.17 408.271C1560.47 406.319 1554.71 401.179 1551.93 403.365C1550.68 404.348 1550.97 407.024 1550.77 408.38C1550.47 410.522 1549.85 412.606 1548.92 414.56Z" fill="white"/>
<path d="M1668.19 403.045C1668.97 405.926 1669.3 408.909 1669.18 411.89C1669.21 417.966 1669.13 424.041 1668.93 430.116C1668.96 433.231 1668.57 436.336 1667.75 439.343C1667.13 441.299 1666.17 443.132 1665.53 445.081C1663.6 450.922 1664.65 457.256 1664.82 463.404C1664.94 465.393 1664.77 467.389 1664.31 469.331C1663.3 473.141 1660.57 476.221 1658.66 479.674C1656.85 482.954 1655.76 486.63 1653.6 489.689C1651.44 492.748 1647.7 495.172 1644.07 494.233C1641.33 493.522 1639.37 491.09 1638.02 488.594C1635.08 483.105 1634.07 476.783 1635.16 470.651C1636.52 463.19 1640.9 456.571 1642.48 449.154C1644.65 438.969 1641.36 428.459 1641.45 418.046C1641.41 416.414 1641.63 414.786 1642.11 413.224C1642.94 410.846 1644.72 408.946 1646.36 407.039C1648.42 404.655 1650.33 402.149 1652.08 399.535C1653.26 397.778 1654.86 393.261 1656.95 392.886C1661.61 392.047 1667.04 399.444 1668.19 403.045Z" fill="white"/>
<path d="M1524.73 504.562C1522.16 503.914 1519.5 503.632 1516.84 503.723C1514.05 503.878 1511.33 504.624 1508.85 505.914C1506.37 507.203 1504.19 509.006 1502.46 511.202C1500.73 513.397 1499.49 515.936 1498.82 518.649C1498.15 521.363 1498.06 524.188 1498.56 526.937C1499.21 529.915 1500.26 532.79 1501.69 535.48C1503.78 539.726 1506.29 543.963 1510.16 546.684C1512.5 548.18 1515.01 549.376 1517.64 550.244L1538.05 557.93C1541.05 559.06 1544.05 560.191 1547.08 561.239C1562.31 566.503 1578.18 569.659 1594.26 570.62C1599.16 571.078 1604.09 570.828 1608.91 569.877C1610.08 569.725 1611.15 569.148 1611.91 568.256C1612.3 567.579 1612.53 566.822 1612.59 566.042L1613.84 557.254C1614.12 556.03 1614.08 554.755 1613.73 553.549C1613.16 552.072 1611.72 551.143 1610.34 550.353C1596.93 542.65 1581.27 538.4 1569.98 527.827C1567.32 525.338 1565.1 521.393 1561.87 519.702C1558.21 517.785 1553.9 516.691 1550.11 514.924C1541.84 511.062 1533.7 506.624 1524.73 504.562Z" fill="#2F2E41"/>
<path opacity="0.1" d="M1545.1 516.41C1552.31 518.67 1582.76 534.324 1587.98 539.789C1587.28 540.041 1563.54 526.742 1562.83 526.528C1556.3 524.735 1549.91 522.483 1543.7 519.787C1542.47 519.215 1535.67 516.527 1535.98 514.966C1536.32 513.205 1543.82 516.009 1545.1 516.41Z" fill="black"/>
<path d="M1635.06 575.178C1635.47 575.208 1635.88 575.088 1636.21 574.841C1636.35 574.657 1636.45 574.445 1636.52 574.219C1636.58 573.994 1636.59 573.758 1636.56 573.526L1636.53 561.553C1633.09 559.912 1629.24 559.387 1625.45 558.881L1607.82 556.524C1608.22 556.578 1605.06 564.12 1605.54 565.127C1606.4 566.902 1612.93 568.475 1614.78 569.313C1621.18 572.226 1627.84 575.429 1635.06 575.178Z" fill="#A0616A"/>
<path d="M1579.72 561.511C1576.39 562.042 1572.68 562.511 1570.52 565.103C1567.79 568.39 1568.95 573.291 1570.26 577.363C1570.33 577.889 1570.52 578.393 1570.8 578.847C1571.07 579.3 1571.44 579.693 1571.87 580.002C1572.31 580.311 1572.8 580.531 1573.31 580.647C1573.83 580.764 1574.37 580.775 1574.89 580.68C1577.93 580.873 1581.16 581.023 1583.82 579.534C1585.02 578.739 1586.17 577.879 1587.28 576.957C1589.24 575.655 1591.39 574.672 1593.65 574.044C1597.82 572.734 1602.1 571.851 1606.45 571.408C1608.16 571.33 1609.85 571.031 1611.49 570.519C1612.3 570.256 1613.05 569.808 1613.66 569.211C1614.28 568.613 1614.75 567.882 1615.03 567.074C1615.65 564.898 1614.38 562.68 1613.17 560.771C1611.77 558.272 1609.96 556.03 1607.81 554.142C1604.52 551.589 1602.9 553.549 1599.58 555.182C1593.32 558.275 1586.62 560.408 1579.72 561.511Z" fill="#A0616A"/>
<path d="M1571.02 564.511L1549.88 558.261C1547.34 557.378 1544.69 556.865 1542.01 556.736C1540.66 556.681 1539.33 556.914 1538.08 557.417C1536.83 557.921 1535.71 558.686 1534.78 559.659C1533.14 561.583 1532.67 564.213 1532.26 566.708L1531.39 572.045C1530.81 574.736 1530.64 577.5 1530.9 580.241C1531.04 581.612 1531.49 582.932 1532.22 584.102C1532.95 585.272 1533.93 586.261 1535.1 586.993C1538.03 588.589 1541.61 587.81 1544.88 587.142C1551.48 585.794 1558.18 585.074 1564.92 584.993C1567.45 584.963 1570.1 584.995 1572.34 583.809C1573.64 583.04 1574.73 581.965 1575.52 580.678C1576.3 579.391 1576.77 577.931 1576.86 576.425C1577.28 571.866 1575.76 565.911 1571.02 564.511Z" fill="#2F2E41"/>
<path d="M1643.37 559.065C1646.12 558.584 1648.53 557.026 1651.16 556.107C1654.86 554.813 1658.86 554.813 1662.78 554.827C1664.22 554.695 1665.67 554.985 1666.95 555.661C1668.67 556.81 1669.12 559.109 1669.41 561.161L1671.18 573.541C1671.65 575.851 1671.7 578.227 1671.32 580.555C1670.8 582.849 1669.24 585.061 1666.96 585.653C1664.2 586.371 1661.49 584.605 1658.88 583.445C1652.35 580.545 1644.77 581.286 1637.96 579.118C1637.31 578.988 1636.7 578.721 1636.16 578.335C1635.62 577.949 1635.17 577.454 1634.83 576.88C1634.6 576.193 1634.52 575.463 1634.59 574.741C1634.71 570.761 1633.87 565.327 1635.07 561.524C1636.14 558.104 1640.31 559.065 1643.37 559.065Z" fill="#2F2E41"/>
<path d="M1688.12 499.579C1692.35 498.52 1696.73 498.22 1701.06 498.695C1704.51 499.076 1708.08 500.039 1710.6 502.432C1713.68 505.345 1714.66 509.851 1714.75 514.084C1714.88 522.516 1712.08 530.734 1706.83 537.333C1705.55 539.002 1704.03 540.47 1702.31 541.688C1700.46 542.847 1698.48 543.798 1696.42 544.524L1650.74 562.545C1638.72 567.286 1626.66 572.04 1614.12 575.166C1613.78 575.331 1613.4 575.426 1613.02 575.446C1612.64 575.465 1612.26 575.408 1611.9 575.278C1611.55 575.149 1611.22 574.949 1610.94 574.69C1610.66 574.432 1610.44 574.12 1610.28 573.773C1606.28 568.055 1602.92 561.912 1600.26 555.456C1600.14 555.303 1600.05 555.121 1600.01 554.927C1599.97 554.733 1599.98 554.532 1600.03 554.341C1600.08 554.15 1600.18 553.975 1600.32 553.83C1600.45 553.686 1600.62 553.576 1600.81 553.51L1633.13 534.943C1635.49 533.707 1637.7 532.185 1639.7 530.411C1641.1 529.057 1642.24 527.465 1643.08 525.71C1643.75 524.311 1643.81 521.009 1644.67 519.975C1645.5 518.962 1648.37 518.882 1649.69 518.483C1651.56 517.912 1653.39 517.221 1655.17 516.415C1662.4 513.181 1668.83 508.482 1675.76 504.696C1679.65 502.473 1683.8 500.754 1688.12 499.579Z" fill="#2F2E41"/>
<path opacity="0.1" d="M1669.8 513.445C1664.25 517.615 1657.06 521.448 1651.56 525.728C1649.68 527.188 1618.38 544.789 1617.93 547.126C1623.07 547.991 1655.77 525.114 1660.45 522.832C1665.12 520.549 1669.27 517.33 1673.38 514.134C1674.43 513.32 1678.87 510.872 1675.86 509.962C1674.17 509.45 1671.05 512.612 1669.8 513.445Z" fill="black"/>
<path d="M1631.6 377.565H1582.87C1580.89 377.565 1578.99 378.352 1577.59 379.752C1576.19 381.152 1575.4 383.051 1575.4 385.031V387.765H1574.87V393.878H1575.4V398.158H1574.87V401.826H1575.4V446.938C1575.4 448.918 1576.19 450.817 1577.59 452.217C1578.99 453.617 1580.89 454.403 1582.87 454.403H1631.6C1633.58 454.403 1635.48 453.617 1636.88 452.217C1638.28 450.817 1639.07 448.918 1639.07 446.938V385.031C1639.07 383.051 1638.28 381.152 1636.88 379.752C1635.48 378.352 1633.58 377.565 1631.6 377.565Z" fill="#D0CDE1"/>
<path d="M1639.35 319.901L1614.63 306.953L1580.49 312.25L1573.43 343.442L1591.01 342.765L1595.92 331.306V342.577L1604.03 342.265L1608.74 324.02L1611.69 343.442L1640.52 342.853L1639.35 319.901Z" fill="#2F2E41"/>
<path d="M1555.39 495.539C1556.51 497.44 1558.1 499.021 1560 500.129C1561.25 500.7 1562.62 500.978 1563.99 500.941C1565.37 500.905 1566.71 500.554 1567.93 499.917C1570.37 498.612 1572.36 496.615 1573.66 494.178C1576.34 489.434 1576.9 483.758 1576.56 478.317C1576.23 472.875 1575.07 467.517 1574.55 462.09C1574.18 458.145 1574.15 454.176 1574.12 450.213C1574.03 449.38 1574.2 448.539 1574.62 447.811C1575.34 447.097 1576.27 446.633 1577.27 446.488C1582.69 444.877 1586.29 439.795 1588.87 434.762C1590.59 431.401 1592.09 427.728 1591.76 423.966C1591.42 420.204 1588.72 416.414 1584.96 416.03C1581.87 415.714 1579.01 417.681 1576.77 419.849C1571.14 425.354 1567.51 432.593 1566.49 440.404C1566 444.229 1566.14 448.159 1565.1 451.872C1562.87 459.801 1555.92 464.662 1552.46 471.797C1548.64 479.658 1550.75 488.583 1555.39 495.539Z" fill="#A0616A"/>
<path d="M1657.67 465.247C1656.88 467.086 1655.73 468.748 1654.28 470.135C1652.84 471.522 1651.13 472.605 1649.27 473.322C1646.94 474.255 1644.38 474.412 1641.96 473.769C1640.76 473.436 1639.65 472.831 1638.73 472.001C1637.8 471.171 1637.07 470.138 1636.61 468.983C1636.24 467.819 1636.04 466.608 1636.01 465.387C1635.66 460.04 1635.79 454.531 1637.73 449.537C1638.48 447.611 1639.49 445.784 1640.09 443.804C1640.67 441.517 1640.96 439.167 1640.97 436.807L1641.61 422.218C1641.71 421.159 1641.64 420.089 1641.39 419.055C1640.76 416.944 1638.78 415.572 1636.97 414.313C1632.6 411.273 1628.28 407.725 1626.16 402.84C1625.43 401.369 1625.17 399.71 1625.41 398.087C1626.01 395.19 1628.94 393.315 1631.83 392.683C1633.72 392.269 1635.67 392.243 1637.57 392.605C1639.47 392.967 1641.28 393.711 1642.89 394.79C1644.49 395.87 1645.86 397.264 1646.92 398.887C1647.97 400.511 1648.68 402.331 1649.02 404.238C1649.3 405.884 1649.3 407.566 1649.47 409.229C1649.82 412.756 1650.94 416.155 1651.64 419.63C1653.37 428.189 1652.47 437.037 1654.18 445.595C1655.6 452.75 1660.98 457.419 1657.67 465.247Z" fill="#A0616A"/>
<path d="M1607.89 410.386C1611.26 410.386 1614 407.649 1614 404.272C1614 400.895 1611.26 398.158 1607.89 398.158C1604.51 398.158 1601.77 400.895 1601.77 404.272C1601.77 407.649 1604.51 410.386 1607.89 410.386Z" fill="#8D8C94"/>
<path d="M944.037 624.004C953.997 624.004 962.072 615.93 962.072 605.969C962.072 596.009 953.997 587.934 944.037 587.934C934.077 587.934 926.002 596.009 926.002 605.969C926.002 615.93 934.077 624.004 944.037 624.004Z" fill="#2F2E41"/>
<path d="M1009.41 659.51L1000.33 650.68L982.086 656.346L983.838 677.467L1021.34 675.725L1009.82 660.069L1009.41 659.51Z" fill="#FBBEBE"/>
<path d="M989.543 659.328C1005.65 659.328 1018.7 646.274 1018.7 630.171C1018.7 614.067 1005.65 601.013 989.543 601.013C973.44 601.013 960.386 614.067 960.386 630.171C960.386 646.274 973.44 659.328 989.543 659.328Z" fill="#FBBEBE"/>
<path d="M1170.56 696.934C1170.56 696.934 1206.38 758.493 1214.9 767.734C1218.96 772.283 1223.28 776.587 1227.84 780.626C1227.84 780.626 1223.83 793.92 1217.45 793.445C1213.81 793.226 1210.24 792.347 1206.92 790.85C1206.92 790.85 1204.07 783.465 1199.1 780.227C1194.13 776.988 1153.53 737.047 1154.48 724.281C1155.43 711.515 1170.56 696.934 1170.56 696.934Z" fill="#2F2E41"/>
<path d="M1042.99 784.781C1042.99 784.781 1081.18 814.425 1133.09 786.57L1137.56 783.278C1137.56 783.278 1130.01 800.26 1129.31 804.865C1128.5 810.203 1108.84 841.475 1105.64 842.973C1102.43 844.471 1101.72 845.853 1101.72 845.853L1115.33 860.834L1120.37 857.131C1120.37 857.131 1139.99 829.33 1145.73 824.244C1151.47 819.159 1178.81 766.713 1178.81 766.713C1178.81 766.713 1189.26 746.952 1163.17 745.465C1137.08 743.979 1125.08 751.09 1125.08 751.09L1078.77 758.446L1042.99 784.781Z" fill="#2F2E41"/>
<path d="M1228.28 777.714L1247.6 791.08C1247.6 791.08 1272.24 798.802 1257.06 803.941C1241.88 809.079 1201.87 810.938 1200.97 803.848C1200.06 796.759 1202.54 785.6 1204.54 786.21C1206.54 786.82 1220.39 790.417 1228.28 777.714Z" fill="#2F2E41"/>
<path d="M1122.08 852.539L1125.65 872.173C1125.65 872.173 1135.82 891.618 1123.61 885.585C1111.4 879.551 1086.25 856.635 1089.97 851.83C1093.68 847.026 1101.88 841.815 1102.71 843.381C1103.54 844.947 1109.7 855.429 1122.08 852.539Z" fill="#2F2E41"/>
<path d="M1085.24 764.892C1085.24 764.892 1059.28 795.204 1043.52 787.841C1027.75 780.477 963.266 695.193 970.629 679.43C977.993 663.668 980.462 667.023 980.462 667.023L1013.76 670.102L1004.18 654.741C1004.18 654.741 1008.65 651.449 1012.91 656.07C1017.18 660.691 1034.29 672.232 1040.25 688.532C1046.21 704.832 1063.71 704.018 1063.71 704.018L1085.24 764.892Z" fill="white"/>
<path d="M1190.09 702.388L1145.08 750.161L1104.76 678.981L1143.09 632.674L1190.09 702.388Z" fill="#3F3D56"/>
<path d="M1186.69 701.871L1146.04 743.852L1109.21 679.16L1142.99 636.631L1186.69 701.871Z" fill="white"/>
<path d="M1142.88 748.336L1145.08 750.161L1143.67 752.925L1080.74 771.655L1080.14 769.499L1083 766.538L1142.88 748.336Z" fill="#B3B3B3"/>
<path d="M1145.64 749.75L1080.47 770.125L1040.75 695.062L1104.76 678.981L1145.64 749.75Z" fill="#D0CDE1"/>
<path d="M1140.73 739.569L1137.94 741.626L1106.91 687.748L1110.11 686.25L1140.73 739.569Z" fill="#3F3D56"/>
<path d="M1134.32 742.565L1106.75 750.785L1075.46 695.377L1102.73 689.099L1134.32 742.565Z" fill="#3F3D56"/>
<path d="M1056.66 701.455L1062.36 699.841C1062.36 699.841 1094.19 696.241 1094.66 706.243C1095.12 716.245 1058.09 711.604 1058.09 711.604L1053.15 704.895L1056.66 701.455Z" fill="#FBBEBE"/>
<path d="M1084.57 746.419L1092.52 743.158C1092.52 743.158 1116.5 732.406 1109.62 725.401C1102.74 718.396 1081.52 730.562 1081.52 730.562L1077.46 734.413L1084.57 746.419Z" fill="#FBBEBE"/>
<path d="M1077.49 730.942C1077.49 730.942 1090.43 743.833 1087.49 746.862C1084.54 749.89 1036.28 789.719 1024.31 776.975C1012.35 764.231 954.056 700.247 976.739 694.759C999.421 689.272 1005.41 702.101 1005.41 702.101L1035.36 753.331L1077.49 730.942Z" fill="white"/>
<path d="M1038.76 691.781L1060.01 698.986L1059.66 714.326L1037.19 711.901L1038.76 691.781Z" fill="white"/>
<path opacity="0.2" d="M1057.91 738.887L1035.02 752.287L1008.86 712.06L1034.11 745.197L1057.91 738.887Z" fill="black"/>
<path d="M976.745 656.43C995.916 656.43 1011.46 640.889 1011.46 621.718C1011.46 602.548 995.916 587.007 976.745 587.007C957.575 587.007 942.034 602.548 942.034 621.718C942.034 640.889 957.575 656.43 976.745 656.43Z" fill="#2F2E41"/>
<path d="M1164.3 705.417L1139.99 669.862L1150.3 657.108L1175.55 693.688L1164.3 705.417Z" fill="#8D8C94"/>
<path d="M1163.62 719.712L1126.61 665.919L1128.44 663.714L1165.27 717.634L1163.62 719.712Z" fill="#E6E6E6"/>
<path d="M1158.85 724.945L1121.84 671.152L1123.67 668.947L1160.5 722.868L1158.85 724.945Z" fill="#E6E6E6"/>
<path d="M1154.79 728.796L1117.78 675.003L1119.61 672.798L1156.44 726.719L1154.79 728.796Z" fill="#E6E6E6"/>
<path d="M992.117 598.544H1002.85C1008.29 598.544 1013.51 600.704 1017.35 604.549C1021.19 608.393 1023.35 613.607 1023.35 619.044H992.117V598.544Z" fill="#2F2E41"/>
<path d="M1140.03 585.499L1138.08 585.354C1138.01 586.366 1137.96 587.384 1137.89 588.4L1129.15 588.107L1138.32 605.283L1148.61 588.759L1139.84 588.465C1139.91 587.476 1139.96 586.485 1140.03 585.499Z" fill="#3F3D56"/>
<path d="M1191.28 445.498L1192.83 446.683C1195.16 443.634 1197.59 440.59 1200.06 437.636L1198.56 436.384C1196.08 439.36 1193.63 442.427 1191.28 445.498Z" fill="#3F3D56"/>
<path d="M1206.24 427.6L1207.68 428.917C1210.27 426.08 1212.96 423.263 1215.67 420.543L1214.29 419.165C1211.55 421.905 1208.85 424.743 1206.24 427.6Z" fill="#3F3D56"/>
<path d="M1222.7 411.092L1224.02 412.53C1226.85 409.929 1229.78 407.36 1232.71 404.894L1231.46 403.399C1228.5 405.883 1225.55 408.472 1222.7 411.092Z" fill="#3F3D56"/>
<path d="M1177.96 464.651L1179.61 465.694C1181.66 462.448 1183.81 459.2 1186.01 456.042L1184.41 454.926C1182.19 458.109 1180.02 461.381 1177.96 464.651Z" fill="#3F3D56"/>
<path d="M1240.54 396.1L1241.73 397.648C1244.78 395.306 1247.92 393.004 1251.06 390.808L1249.94 389.208C1246.78 391.421 1243.62 393.74 1240.54 396.1Z" fill="#3F3D56"/>
<path d="M1166.37 484.916L1168.11 485.808C1169.87 482.388 1171.73 478.96 1173.63 475.622L1171.94 474.653C1170.02 478.016 1168.14 481.469 1166.37 484.916Z" fill="#3F3D56"/>
<path d="M1147.54 539.87L1145.65 539.383C1144.68 543.129 1143.79 546.949 1142.99 550.738L1144.9 551.14C1145.7 547.38 1146.58 543.588 1147.54 539.87Z" fill="#3F3D56"/>
<path d="M1259.63 382.74L1260.68 384.387C1263.91 382.328 1267.24 380.314 1270.57 378.399L1269.59 376.707C1266.24 378.636 1262.89 380.666 1259.63 382.74Z" fill="#3F3D56"/>
<path d="M1142.77 562.516L1140.85 562.199C1140.22 566.01 1139.67 569.894 1139.21 573.743L1141.15 573.973C1141.6 570.154 1142.15 566.299 1142.77 562.516Z" fill="#3F3D56"/>
<path d="M1156.63 506.139L1158.43 506.874C1159.88 503.311 1161.43 499.73 1163.04 496.232L1161.26 495.417C1159.64 498.942 1158.08 502.549 1156.63 506.139Z" fill="#3F3D56"/>
<path d="M1148.81 528.159L1150.67 528.729C1151.8 525.045 1153.02 521.339 1154.31 517.713L1152.47 517.06C1151.17 520.713 1149.94 524.447 1148.81 528.159Z" fill="#3F3D56"/>
<path d="M1391.7 343.827C1395.52 343.694 1399.42 343.641 1403.28 343.677L1403.29 341.725C1399.41 341.689 1395.48 341.742 1391.63 341.875L1391.7 343.827Z" fill="#3F3D56"/>
<path d="M1279.81 371.122L1280.71 372.855C1284.12 371.089 1287.61 369.377 1291.08 367.768L1290.26 365.996C1286.76 367.618 1283.24 369.343 1279.81 371.122Z" fill="#3F3D56"/>
<path d="M1437.89 346.261C1441.7 346.8 1445.55 347.431 1449.32 348.137L1449.68 346.218C1445.88 345.507 1442.01 344.87 1438.17 344.327L1437.89 346.261Z" fill="#3F3D56"/>
<path d="M1460.65 350.518C1464.39 351.391 1468.16 352.362 1471.86 353.402L1472.39 351.522C1468.66 350.474 1464.86 349.497 1461.09 348.617L1460.65 350.518Z" fill="#3F3D56"/>
<path d="M1482.93 356.783C1486.58 357.986 1490.25 359.288 1493.84 360.654L1494.54 358.83C1490.92 357.453 1487.22 356.141 1483.55 354.929L1482.93 356.783Z" fill="#3F3D56"/>
<path d="M1414.85 344.032C1418.7 344.234 1422.58 344.523 1426.4 344.892L1426.59 342.949C1422.74 342.577 1418.83 342.285 1414.95 342.082L1414.85 344.032Z" fill="#3F3D56"/>
<path d="M1368.39 343.702L1368.63 345.64C1372.43 345.172 1376.3 344.781 1380.14 344.48L1379.99 342.533C1376.12 342.837 1372.22 343.23 1368.39 343.702Z" fill="#3F3D56"/>
<path d="M1322.84 353.469L1323.42 355.334C1327.09 354.198 1330.83 353.129 1334.55 352.157L1334.05 350.269C1330.31 351.247 1326.54 352.324 1322.84 353.469Z" fill="#3F3D56"/>
<path d="M1300.93 361.341L1301.67 363.147C1305.22 361.691 1308.84 360.297 1312.44 359.003L1311.78 357.166C1308.15 358.469 1304.5 359.874 1300.93 361.341Z" fill="#3F3D56"/>
<path d="M1345.4 347.571L1345.81 349.481C1349.56 348.676 1353.38 347.945 1357.17 347.307L1356.85 345.381C1353.03 346.024 1349.18 346.761 1345.4 347.571Z" fill="#3F3D56"/>
<path d="M1522.97 372.725L1512.06 356.602L1508.23 364.498C1507.3 364.084 1506.38 363.66 1505.45 363.259L1504.67 365.051C1505.58 365.443 1506.47 365.854 1507.37 366.255L1503.56 374.115L1522.97 372.725Z" fill="#3F3D56"/>
<rect x="1431" y="273" width="20" height="20" rx="10" fill="white"/>
<rect x="1368" y="241" width="20" height="20" rx="10" fill="white"/>
<rect x="1432" y="305" width="20" height="20" rx="10" fill="white"/>
<rect x="1400" y="305" width="20" height="20" rx="10" fill="white"/>
<rect x="1368" y="305" width="20" height="20" rx="10" fill="white"/>
<rect x="1400" y="273" width="20" height="20" rx="10" fill="white"/>
<rect x="1368" y="273" width="20" height="20" rx="10" fill="white"/>
<rect x="1431" y="241" width="20" height="20" rx="10" fill="white"/>
<rect x="1400" y="241" width="20" height="20" rx="10" fill="white"/>
<rect x="1017" y="361" width="20" height="20" rx="10" fill="#3EFAFA"/>
<rect x="954" y="329" width="20" height="20" rx="10" fill="#3EFAFA"/>
<rect x="1018" y="393" width="20" height="20" rx="10" fill="#3EFAFA"/>
<rect x="986" y="393" width="20" height="20" rx="10" fill="#3EFAFA"/>
<rect x="954" y="393" width="20" height="20" rx="10" fill="#3EFAFA"/>
<rect x="986" y="361" width="20" height="20" rx="10" fill="#3EFAFA"/>
<rect x="954" y="361" width="20" height="20" rx="10" fill="#3EFAFA"/>
<rect x="1017" y="329" width="20" height="20" rx="10" fill="#3EFAFA"/>
<rect x="986" y="329" width="20" height="20" rx="10" fill="#3EFAFA"/>
</g>
<rect x="90" y="873" width="20" height="20" rx="10" fill="white"/>
<rect x="27" y="841" width="20" height="20" rx="10" fill="white"/>
<rect x="91" y="905" width="20" height="20" rx="10" fill="white"/>
<rect x="59" y="905" width="20" height="20" rx="10" fill="white"/>
<rect x="27" y="905" width="20" height="20" rx="10" fill="white"/>
<rect x="59" y="873" width="20" height="20" rx="10" fill="white"/>
<rect x="27" y="873" width="20" height="20" rx="10" fill="white"/>
<rect x="90" y="841" width="20" height="20" rx="10" fill="white"/>
<rect x="59" y="841" width="20" height="20" rx="10" fill="white"/>
</g>
<defs>
<clipPath id="clip0_2_2">
<rect width="1920" height="1080" fill="white"/>
</clipPath>
<clipPath id="clip1_2_2">
<rect width="883.929" height="713.746" fill="white" transform="translate(926 173)"/>
</clipPath>
</defs>
</svg>
