<svg width="1920" height="1080" viewBox="0 0 1920 1080" fill="none" xmlns="http://www.w3.org/2000/svg">
<g clip-path="url(#clip0_0_3)">
<rect x="788" y="651" width="343" height="429" fill="#3EFAFA"/>
<rect y="680" width="902" height="400" fill="#6C9FDA"/>
<g clip-path="url(#clip1_0_3)">
<path d="M605.665 279.083C601.724 322.507 590.497 368.294 572.888 412.473C551.112 467.106 521.362 515.226 486.851 551.632L484.936 549.962C519.28 513.732 548.895 465.823 570.579 411.416C590.177 362.25 601.833 311.085 604.304 263.475L606.751 263.884C606.491 268.913 606.129 273.979 605.665 279.083Z" fill="#F2F2F2"/>
<path d="M621.362 531.278C572.889 608.394 514.082 663.494 455.772 686.426L454.592 684.263C512.499 661.489 570.962 606.672 619.213 529.908L621.362 531.278Z" fill="#F2F2F2"/>
<path d="M604.489 333.147C600.548 376.57 589.32 422.358 571.711 466.537C549.936 521.17 520.185 569.29 485.675 605.696L483.76 604.026C518.103 567.795 547.719 519.887 569.403 465.48C589 416.314 600.657 365.148 603.127 317.538L605.575 317.948C605.315 322.976 604.953 328.043 604.489 333.147Z" fill="#F2F2F2"/>
<path d="M199.504 708.276L197.52 680.688C184.527 674.192 170.144 670.967 155.621 671.292C176.053 687.085 174.416 718.649 188.566 740.251C193.031 746.955 198.947 752.568 205.876 756.674C212.805 760.781 220.57 763.275 228.594 763.973L245.598 773.755C247.543 760.899 246.678 747.774 243.062 735.285C239.447 722.795 233.166 711.238 224.654 701.409C219.824 695.943 214.324 691.107 208.286 687.014C204.569 697.685 199.504 708.276 199.504 708.276Z" fill="#F2F2F2"/>
<path d="M559.166 712.276L561.15 684.688C574.144 678.192 588.526 674.967 603.049 675.292C582.617 691.085 584.254 722.649 570.104 744.251C565.639 750.955 559.723 756.568 552.794 760.674C545.865 764.781 538.1 767.275 530.076 767.973L513.072 777.755C511.127 764.899 511.992 751.774 515.608 739.285C519.223 726.795 525.504 715.238 534.016 705.409C538.846 699.943 544.346 695.107 550.384 691.014C554.101 701.685 559.166 712.276 559.166 712.276Z" fill="#F2F2F2"/>
<path d="M285.32 435.819L256.668 390.824L289.846 373.055L298.554 407.385L359.909 440.54C362.332 439.668 364.955 439.52 367.46 440.114C369.965 440.707 372.244 442.017 374.017 443.883C375.791 445.749 376.983 448.091 377.449 450.622C377.915 453.154 377.634 455.767 376.64 458.142C375.647 460.517 373.984 462.552 371.854 463.998C369.724 465.444 367.219 466.239 364.645 466.287C362.071 466.334 359.539 465.631 357.358 464.264C355.176 462.897 353.439 460.925 352.359 458.588L285.32 435.819Z" fill="#A0616A"/>
<path d="M235.735 336.856C226.733 350.074 258.725 398.119 258.725 398.119C260.284 394.759 275.182 432.485 277.678 430.256C284.77 423.922 295.872 406.28 302.043 405.493C305.572 405.044 293.858 380.015 293.858 380.015C293.858 380.015 288.504 365.235 281.24 346.356C279.285 340.981 276.002 336.187 271.696 332.422C267.39 328.656 262.202 326.041 256.614 324.821C256.614 324.821 244.738 323.638 235.735 336.856Z" fill="#3F3D56"/>
<path d="M236.175 767.491L249.782 767.49L256.255 715.005L236.172 715.006L236.175 767.491Z" fill="#A0616A"/>
<path d="M232.703 763.048L236.533 763.048L251.487 756.967L259.501 763.047H259.502C264.031 763.047 268.375 764.847 271.577 768.049C274.78 771.252 276.579 775.595 276.58 780.124V780.679L232.704 780.681L232.703 763.048Z" fill="#2F2E41"/>
<path d="M299.391 767.491L312.998 767.49L319.472 715.005L299.389 715.006L299.391 767.491Z" fill="#A0616A"/>
<path d="M295.92 763.048L299.75 763.048L314.703 756.967L322.718 763.047H322.719C327.248 763.047 331.591 764.847 334.794 768.049C337.997 771.252 339.796 775.595 339.796 780.124V780.679L295.921 780.681L295.92 763.048Z" fill="#2F2E41"/>
<path d="M305.281 480.552L216.774 482.764C199.964 491.894 199.709 511.655 205.217 535.117C205.217 535.117 203.357 549.062 207.076 552.78C210.795 556.499 212.654 556.499 210.795 563.006C208.935 569.514 218.759 580.143 217.566 581.336C216.373 582.529 213.584 589.037 213.584 589.037L222.88 642.027C222.88 642.027 229.388 734.063 231.247 735.922C233.106 737.782 234.966 735.922 233.106 740.571C231.247 745.219 229.388 743.36 231.247 745.219C232.894 746.995 234.446 748.857 235.895 750.797H258.372C258.372 750.797 260.067 741.5 260.067 740.571C260.067 739.641 261.926 734.063 261.926 733.133C261.926 732.204 260.282 730.56 260.282 730.56C259.715 728.671 259.331 726.73 259.137 724.767C259.137 722.907 253.559 651.324 253.559 651.324L264.715 558.358L291.675 649.464C291.675 649.464 291.675 729.415 293.534 731.274C295.393 733.133 295.393 732.204 294.464 735.922C293.534 739.641 289.815 738.711 292.604 741.5C295.393 744.289 296.323 739.641 295.393 744.289L294.464 748.938L322.353 749.337C322.353 749.337 326.072 741.5 324.213 738.711C322.353 735.922 322.465 736.684 324.733 732.12C327.002 727.556 327.931 726.626 327.002 725.696C326.072 724.767 326.072 719.822 326.072 719.822L321.424 630.871C321.424 630.871 320.494 536.976 320.494 534.187C320.424 532.752 320.688 531.32 321.266 530.005V526.219L317.705 512.805L305.281 480.552Z" fill="#2F2E41"/>
<path d="M252.113 296.515C267.301 296.515 279.613 284.203 279.613 269.015C279.613 253.828 267.301 241.516 252.113 241.516C236.926 241.516 224.614 253.828 224.614 269.015C224.614 284.203 236.926 296.515 252.113 296.515Z" fill="#A0616A"/>
<path d="M265.863 314.69C271.788 318.212 275.332 324.684 277.366 331.269C281.133 343.461 283.4 356.066 284.118 368.806L286.266 406.947L312.879 488.161C289.815 507.677 203.12 492.597 203.12 492.597C203.12 492.597 200.458 491.71 203.12 489.048C205.781 486.387 208.372 488.745 205.71 486.083C203.049 483.422 204.884 486.387 205.771 483.726C206.658 481.064 205.771 482.839 204.884 481.952C203.997 481.064 211.751 473.081 211.751 473.081L204.654 426.463L195.784 332.432C206.429 319.126 227.837 311.282 227.837 311.282L233.369 301.325L261.027 303.537L265.863 314.69Z" fill="#3F3D56"/>
<path d="M274.783 254.405C276.92 255.999 278.503 258.224 279.31 260.765C279.62 256.612 279.64 252.442 279.369 248.286C279.045 245.366 276.989 244.709 274.608 243.948C272.458 243.26 270.027 242.483 269.373 239.648C260.728 231.239 245.68 231.663 235.382 234.596C229.715 236.21 226.454 238.284 226.163 239.499L226.102 239.749L225.872 239.864C221.504 242.048 220.654 248.945 220.71 254.346C220.816 264.522 224.33 276.079 226.309 277.018C226.414 277.068 226.44 277.048 226.486 277.011C229.466 274.629 233.102 277.192 234.7 278.585C235.642 272.26 238.677 266.434 243.319 262.037C247.961 257.639 253.943 254.924 260.309 254.325C262.388 254.124 264.451 253.778 266.482 253.29C267.512 253.024 268.571 252.885 269.635 252.876C271.467 252.849 273.263 253.382 274.783 254.405Z" fill="#2F2E41"/>
<path d="M445.497 502.464L498.397 448.746L512.334 405.783L489.906 396.711C478.795 407.918 467.359 442.226 467.359 442.226L431.253 490.684C430.965 490.791 430.677 490.905 430.394 491.039C428.732 491.823 427.3 493.024 426.237 494.524C425.174 496.024 424.516 497.772 424.327 499.601C424.137 501.429 424.423 503.276 425.155 504.962C425.888 506.648 427.043 508.116 428.509 509.225C429.975 510.334 431.703 511.046 433.524 511.293C435.346 511.539 437.201 511.311 438.908 510.632C440.616 509.952 442.12 508.843 443.274 507.412C444.429 505.982 445.194 504.277 445.497 502.464Z" fill="#FFB8B8"/>
<path d="M483.788 401.626L512.151 409.831L512.257 409.81C522.682 407.786 530.929 390.46 536.012 376.282C537.683 371.605 537.517 366.468 535.547 361.91C533.576 357.351 529.949 353.71 525.397 351.724C522.029 350.282 518.325 349.81 514.703 350.362C511.081 350.914 507.686 352.469 504.902 354.849L490.76 367.027L483.788 401.626Z" fill="#8D8C94"/>
<path d="M459.521 765.895L444.267 765.894L437.011 707.059L459.523 707.06L459.521 765.895Z" fill="#FFB8B8"/>
<path d="M463.412 760.915L459.119 760.914L442.356 754.098L433.372 760.913H433.371C428.294 760.914 423.425 762.931 419.835 766.521C416.245 770.111 414.227 774.98 414.227 780.057V780.679L463.411 780.681L463.412 760.915Z" fill="#2F2E41"/>
<path d="M527.204 765.895L511.95 765.894L504.694 707.059L527.207 707.06L527.204 765.895Z" fill="#FFB8B8"/>
<path d="M531.095 760.915L526.802 760.914L510.039 754.098L501.055 760.913H501.054C495.977 760.914 491.108 762.931 487.518 766.521C483.928 770.111 481.911 774.98 481.91 780.057V780.679L531.094 780.681L531.095 760.915Z" fill="#2F2E41"/>
<path d="M550.463 512.47C550.463 512.47 552.244 533.843 547.791 554.326C543.338 574.809 543.338 632.496 543.338 632.496L533.542 744.908L504.153 742.236L496.138 554.326L467.64 617.557L470.312 626.462L466.753 628.689C466.753 628.689 469.421 646.055 467.64 646.055C465.859 646.055 461.406 648.726 461.406 648.726L464.968 740.455L434.689 739.564L424.002 610.432L435.58 536.515L436.47 522.266L440.478 522.431L442.518 516.477L446.267 506.236L550.463 512.47Z" fill="#2F2E41"/>
<path d="M552.002 516.959L552.161 516.736C560.638 504.868 547.889 476.35 545.966 472.216L554.065 469.588L552.241 454.085L551.377 447.174L557.567 440.984L557.584 440.829L561.147 409.659L566.326 388.957C568.278 381.13 568.111 372.926 565.844 365.185C563.577 357.444 559.291 350.446 553.426 344.909L541.453 333.621L526.903 312.092H503.44L495.395 327.288C487.595 329.091 480.675 333.573 475.839 339.953C471.004 346.333 468.561 354.208 468.934 362.205L470.758 402.06L463.62 451.683L463.615 460.663L455.582 469.591L457.336 478.361L451.223 480.981L448.523 493.578C447.406 495.052 440.033 504.884 440.033 507.572C440.033 507.975 440.33 508.365 440.97 508.798C445.995 512.201 473.769 519.138 486.062 514.219C499.156 508.983 551.207 516.837 551.732 516.917L552.002 516.959Z" fill="#8D8C94"/>
<path d="M512.141 305.142C529.303 305.142 543.215 291.23 543.215 274.068C543.215 256.906 529.303 242.993 512.141 242.993C494.979 242.993 481.066 256.906 481.066 274.068C481.066 291.23 494.979 305.142 512.141 305.142Z" fill="#FFB8B8"/>
<path d="M509.164 305.645C513.976 305.596 518.776 305.136 523.51 304.27C528.196 303.19 538.537 295.194 541.355 290.47C543.449 286.961 544.706 281.532 545.392 277.596C546.318 272.387 546.139 267.042 544.868 261.907C543.597 256.771 541.261 251.96 538.012 247.785C536.76 246.036 535.058 244.657 533.087 243.796C532.912 243.733 532.733 243.678 532.552 243.631C529.695 242.958 527.104 241.445 525.112 239.289C524.725 238.852 524.308 238.444 523.862 238.067C521.628 236.278 519.002 235.043 516.199 234.464C511.67 233.376 505.192 234.739 496.945 238.518C492.802 240.416 488.204 239.887 484.659 239.213C484.46 239.18 484.257 239.2 484.068 239.27C483.879 239.34 483.712 239.458 483.583 239.613C482.12 241.06 480.163 241.899 478.106 241.962C476.848 242.05 475.571 243.828 474.032 246.144C473.683 246.67 473.276 247.283 472.98 247.658L472.921 246.955L472.229 247.759C471.14 249.022 470.389 250.541 470.046 252.173C469.703 253.805 469.778 255.497 470.264 257.092C470.751 258.687 471.634 260.133 472.83 261.296C474.026 262.458 475.496 263.298 477.105 263.739C478.381 264.044 479.684 264.217 480.996 264.257C481.79 264.308 482.613 264.36 483.402 264.476C485.939 264.928 488.315 266.029 490.299 267.674C492.283 269.318 493.806 271.448 494.721 273.856C494.937 274.413 495.278 274.913 495.717 275.317C496.157 275.721 496.684 276.018 497.256 276.186C497.829 276.354 498.433 276.388 499.021 276.286C499.61 276.184 500.166 275.948 500.649 275.596C501.451 274.937 502.401 274.482 503.418 274.27C504.434 274.057 505.487 274.094 506.486 274.377C507.355 274.831 508.041 275.57 508.43 276.47C508.9 277.472 509.657 278.311 510.606 278.88C513.841 280.444 514.25 287.731 513.26 293.839C512.306 299.728 510.23 304.023 508.213 304.285C506.659 304.486 506.484 304.602 506.379 304.88L506.284 305.129L506.465 305.355C507.333 305.645 508.254 305.744 509.164 305.645Z" fill="#2F2E41"/>
<path d="M483.383 404.949L468.446 385.917C453.231 390.107 426.235 414.17 426.235 414.17L370.793 438.229C368.943 437.918 367.043 438.1 365.285 438.757C363.528 439.414 361.974 440.522 360.781 441.97C359.587 443.418 358.796 445.155 358.488 447.005C358.179 448.856 358.363 450.756 359.022 452.513C359.681 454.27 360.791 455.822 362.24 457.014C363.69 458.205 365.427 458.994 367.279 459.301C369.13 459.607 371.029 459.42 372.785 458.76C374.541 458.099 376.092 456.987 377.282 455.536L449.909 435.274L483.383 404.949Z" fill="#FFB8B8"/>
<path d="M479.803 409.3L503.371 383.028L504.679 364.412C504.923 360.756 504.139 357.105 502.417 353.872C500.694 350.638 498.102 347.951 494.932 346.113C490.619 343.651 485.531 342.919 480.699 344.065C475.866 345.21 471.649 348.148 468.9 352.284C460.572 364.835 451.614 381.804 456.223 391.371L456.27 391.468L479.803 409.3Z" fill="#8D8C94"/>
<path d="M262.579 508.05L201.325 476.679C196.968 474.447 195.525 468.529 198.108 463.485L238.047 385.501C240.63 380.458 246.276 378.17 250.633 380.401L311.888 411.772C316.245 414.004 317.688 419.923 315.105 424.966L275.166 502.95C272.583 507.994 266.936 510.281 262.579 508.05Z" fill="#E6E6E6"/>
<path d="M252.113 493.628L210.496 472.314C206.416 470.224 205.064 464.681 207.483 459.958L240.664 395.17C243.083 390.446 248.371 388.304 252.452 390.394L302.716 416.137C306.797 418.227 308.149 423.77 305.729 428.493L287.704 463.689C276.928 484.73 270.29 502.937 252.113 493.628Z" fill="white"/>
<path d="M272.69 458.248L235.828 439.369C235.378 439.048 235.057 438.576 234.926 438.038C234.795 437.5 234.862 436.933 235.114 436.441C235.366 435.948 235.787 435.563 236.3 435.355C236.813 435.147 237.384 435.131 237.908 435.309L274.769 454.187C275.22 454.509 275.54 454.981 275.671 455.519C275.802 456.056 275.736 456.623 275.483 457.116C275.231 457.608 274.81 457.994 274.297 458.202C273.784 458.409 273.214 458.426 272.69 458.248Z" fill="#8D8C94"/>
<path d="M240.132 451.7L231.72 447.392C231.269 447.071 230.949 446.598 230.818 446.06C230.687 445.523 230.753 444.956 231.006 444.463C231.258 443.971 231.679 443.585 232.192 443.377C232.705 443.169 233.275 443.153 233.799 443.331L242.212 447.639C242.662 447.961 242.982 448.433 243.113 448.971C243.245 449.508 243.178 450.075 242.926 450.568C242.673 451.061 242.252 451.446 241.739 451.654C241.226 451.862 240.656 451.878 240.132 451.7Z" fill="#8D8C94"/>
<path d="M250.922 467.353L227.611 455.414C227.16 455.093 226.84 454.62 226.709 454.083C226.578 453.545 226.645 452.978 226.897 452.486C227.149 451.993 227.57 451.608 228.083 451.4C228.596 451.192 229.167 451.176 229.691 451.354L253.002 463.292C253.452 463.613 253.773 464.086 253.904 464.624C254.035 465.161 253.968 465.728 253.716 466.221C253.464 466.713 253.043 467.099 252.53 467.307C252.017 467.515 251.446 467.531 250.922 467.353Z" fill="#8D8C94"/>
<path d="M287.277 429.766L250.415 410.887C249.965 410.566 249.644 410.094 249.513 409.556C249.382 409.018 249.449 408.451 249.701 407.959C249.953 407.466 250.374 407.081 250.887 406.873C251.4 406.665 251.971 406.649 252.495 406.827L289.356 425.705C289.807 426.027 290.127 426.499 290.258 427.037C290.389 427.574 290.323 428.141 290.07 428.634C289.818 429.126 289.397 429.512 288.884 429.72C288.371 429.928 287.801 429.944 287.277 429.766Z" fill="#8D8C94"/>
<path d="M254.719 423.218L246.307 418.91C245.856 418.589 245.536 418.116 245.405 417.578C245.274 417.041 245.34 416.474 245.593 415.981C245.845 415.489 246.266 415.103 246.779 414.895C247.292 414.688 247.862 414.671 248.386 414.849L256.798 419.157C257.249 419.479 257.569 419.951 257.7 420.489C257.831 421.027 257.765 421.593 257.513 422.086C257.26 422.579 256.839 422.964 256.326 423.172C255.813 423.38 255.243 423.396 254.719 423.218Z" fill="#8D8C94"/>
<path d="M265.509 438.871L242.198 426.932C241.747 426.611 241.427 426.138 241.296 425.601C241.165 425.063 241.232 424.496 241.484 424.004C241.736 423.511 242.157 423.126 242.67 422.918C243.183 422.71 243.754 422.694 244.278 422.872L267.589 434.81C268.039 435.131 268.36 435.604 268.491 436.142C268.622 436.679 268.555 437.246 268.303 437.739C268.051 438.231 267.63 438.617 267.117 438.825C266.604 439.033 266.033 439.049 265.509 438.871Z" fill="#8D8C94"/>
<path d="M211.82 440.158L197.982 388.64L234.962 381.64L232.973 417.001L281.561 467.031C284.133 466.926 286.68 467.571 288.892 468.889C291.104 470.206 292.884 472.139 294.017 474.451C295.149 476.763 295.584 479.354 295.269 481.909C294.954 484.464 293.903 486.873 292.242 488.84C290.582 490.808 288.386 492.25 285.92 492.991C283.455 493.732 280.827 493.739 278.357 493.012C275.888 492.286 273.683 490.856 272.012 488.898C270.34 486.939 269.275 484.537 268.946 481.984L211.82 440.158Z" fill="#A0616A"/>
<path d="M194.198 330.879C181.646 340.788 197.757 396.216 197.757 396.216C200.251 393.479 203.15 433.936 206.198 432.558C214.864 428.643 230.746 415.142 236.869 416.243C240.37 416.872 236.702 389.482 236.702 389.482C236.702 389.482 236.027 373.778 234.759 353.589C234.506 347.874 232.812 342.317 229.833 337.433C226.855 332.55 222.69 328.5 217.725 325.659C217.725 325.659 206.75 320.969 194.198 330.879Z" fill="#3F3D56"/>
<path d="M382.706 260.015L380.327 260.276C369.719 218.591 349.159 189.713 320.865 176.762C284.898 160.298 240.422 171.354 195.631 207.892C150.613 244.616 110.76 302.625 83.4142 371.235L81.1057 370.178C108.571 301.269 148.629 242.98 193.9 206.051C239.398 168.936 284.781 157.8 321.689 174.694C350.794 188.016 371.893 217.52 382.706 260.015Z" fill="#F2F2F2"/>
<path d="M120.232 314.304C114.01 327.41 108.093 340.989 102.643 354.662C71.2823 433.344 55.3902 513.699 56.6889 587.045L54.2379 586.784C52.9379 513.165 68.8758 432.533 100.334 353.605C105.8 339.894 111.734 326.277 117.974 313.133L120.232 314.304Z" fill="#F2F2F2"/>
<path d="M119.056 368.367C112.834 381.474 106.916 395.052 101.466 408.725C70.1059 487.408 54.2138 567.763 55.5124 641.109L53.0614 640.847C51.7614 567.229 67.6993 486.596 99.158 407.669C104.623 393.957 110.558 380.341 116.798 367.197L119.056 368.367Z" fill="#F2F2F2"/>
<path fill-rule="evenodd" clip-rule="evenodd" d="M81.4092 541.205H81L81 641.205H181V640.795L81.4092 541.205Z" fill="white"/>
<rect x="724" y="227" width="20" height="20" rx="10" fill="#3EFAFA"/>
<rect x="661" y="195" width="20" height="20" rx="10" fill="#3EFAFA"/>
<rect x="725" y="259" width="20" height="20" rx="10" fill="#3EFAFA"/>
<rect x="693" y="259" width="20" height="20" rx="10" fill="#3EFAFA"/>
<rect x="661" y="259" width="20" height="20" rx="10" fill="#3EFAFA"/>
<rect x="693" y="227" width="20" height="20" rx="10" fill="#3EFAFA"/>
<rect x="661" y="227" width="20" height="20" rx="10" fill="#3EFAFA"/>
<rect x="724" y="195" width="20" height="20" rx="10" fill="#3EFAFA"/>
<rect x="693" y="195" width="20" height="20" rx="10" fill="#3EFAFA"/>
</g>
<rect x="891" y="626" width="21" height="459" fill="white"/>
<rect x="448" y="782" width="21" height="459" fill="white"/>
<rect x="910" y="782" width="21" height="459" transform="rotate(90 910 782)" fill="white"/>
<rect x="822" y="648" width="20" height="20" rx="10" fill="white"/>
<rect x="759" y="616" width="20" height="20" rx="10" fill="white"/>
<rect x="823" y="680" width="20" height="20" rx="10" fill="white"/>
<rect x="791" y="680" width="20" height="20" rx="10" fill="white"/>
<rect x="759" y="680" width="20" height="20" rx="10" fill="white"/>
<rect x="791" y="648" width="20" height="20" rx="10" fill="white"/>
<rect x="759" y="648" width="20" height="20" rx="10" fill="white"/>
<rect x="822" y="616" width="20" height="20" rx="10" fill="white"/>
<rect x="791" y="616" width="20" height="20" rx="10" fill="white"/>
<rect x="1054" y="513" width="20" height="20" rx="10" fill="white"/>
<rect x="991" y="481" width="20" height="20" rx="10" fill="white"/>
<rect x="1055" y="545" width="20" height="20" rx="10" fill="white"/>
<rect x="1023" y="545" width="20" height="20" rx="10" fill="white"/>
<rect x="991" y="545" width="20" height="20" rx="10" fill="white"/>
<rect x="1023" y="513" width="20" height="20" rx="10" fill="white"/>
<rect x="991" y="513" width="20" height="20" rx="10" fill="white"/>
<rect x="1054" y="481" width="20" height="20" rx="10" fill="white"/>
<rect x="1023" y="481" width="20" height="20" rx="10" fill="white"/>
<path fill-rule="evenodd" clip-rule="evenodd" d="M1204 169.409V169L1104 169V269H1104.41L1204 169.409Z" fill="white"/>
<rect x="1054" y="513" width="20" height="20" rx="10" fill="white"/>
<rect x="991" y="481" width="20" height="20" rx="10" fill="white"/>
<rect x="1055" y="545" width="20" height="20" rx="10" fill="white"/>
<rect x="1023" y="545" width="20" height="20" rx="10" fill="white"/>
<rect x="991" y="545" width="20" height="20" rx="10" fill="white"/>
<rect x="1023" y="513" width="20" height="20" rx="10" fill="white"/>
<rect x="991" y="513" width="20" height="20" rx="10" fill="white"/>
<rect x="1054" y="481" width="20" height="20" rx="10" fill="white"/>
<rect x="1023" y="481" width="20" height="20" rx="10" fill="white"/>
</g>
<defs>
<clipPath id="clip0_0_3">
<rect width="1920" height="1080" fill="white"/>
</clipPath>
<clipPath id="clip1_0_3">
<rect width="758.67" height="615.326" fill="white" transform="translate(0 167)"/>
</clipPath>
</defs>
</svg>
