<svg width="1920" height="1080" viewBox="0 0 1920 1080" fill="none" xmlns="http://www.w3.org/2000/svg">
<g clip-path="url(#clip0_1_2)">
<rect x="1354" y="853" width="566" height="227" fill="#6C9FDA"/>
<rect x="1832" y="382" width="21" height="716" fill="white"/>
<rect y="676" width="747" height="404" fill="#3EFAFA"/>
<g clip-path="url(#clip1_1_2)">
<path d="M663.722 845H283.722C281.468 844.997 279.308 844.101 277.714 842.508C276.121 840.914 275.224 838.754 275.222 836.5V292.5C275.224 290.246 276.121 288.086 277.714 286.492C279.308 284.899 281.468 284.003 283.722 284H663.722C665.975 284.003 668.136 284.899 669.729 286.492C671.323 288.086 672.219 290.246 672.222 292.5V836.5C672.219 838.754 671.323 840.914 669.729 842.508C668.136 844.101 665.975 844.997 663.722 845Z" fill="#3F3D56"/>
<path d="M655.722 837H291.722C289.468 836.997 287.308 836.101 285.714 834.508C284.121 832.914 283.224 830.754 283.222 828.5V300.5C283.224 298.246 284.121 296.086 285.714 294.492C287.308 292.899 289.468 292.003 291.722 292H655.722C657.975 292.003 660.136 292.899 661.729 294.492C663.323 296.086 664.219 298.246 664.222 300.5V828.5C664.219 830.754 663.323 832.914 661.729 834.508C660.136 836.101 657.975 836.997 655.722 837Z" fill="white"/>
<path d="M391.289 809.314C358.909 766.57 371.75 717.785 352.779 683.751C280.073 553.312 369.601 565.329 470.821 590.696L471.063 593.51C406.64 603.452 364.271 636.608 354.821 684.476C347.477 721.677 360.954 765.296 392.771 807.297L391.289 809.314Z" fill="#F0F0F0"/>
<path d="M462.417 650.235L461.74 647.552C497.884 631.165 494.779 582.357 527.116 571.212C773.45 486.308 530.291 476.733 475.597 431.823C426.687 391.662 373.383 344.969 305.64 320.921L306.181 318.183C374.22 342.337 434.871 381.927 476.961 429.661C519.262 477.634 537.8 528.162 529.158 571.936C522.342 606.455 499.264 633.53 462.417 650.235Z" fill="#F0F0F0"/>
<path d="M364.029 556.163C347.512 554.858 367.002 543.928 368.307 527.411C368.615 523.482 369.695 519.653 371.484 516.141C373.273 512.63 375.736 509.506 378.733 506.946C381.73 504.387 385.201 502.444 388.949 501.227C392.697 500.01 396.649 499.543 400.577 499.853C404.506 500.163 408.335 501.245 411.845 503.035C415.356 504.826 418.479 507.29 421.037 510.288C423.594 513.286 425.537 516.759 426.752 520.507C427.967 524.256 428.432 528.207 428.12 532.136C426.816 548.653 380.546 557.468 364.029 556.163Z" fill="#2D3587"/>
<path d="M522.62 453.333C518.692 453.023 514.864 451.942 511.355 450.152C507.845 448.363 504.722 445.899 502.164 442.903C499.607 439.906 497.664 436.435 496.448 432.688C495.231 428.941 494.765 424.991 495.075 421.064C496.38 404.547 463.58 393.498 480.097 394.802C496.614 396.107 556.194 409.272 554.889 425.789C554.579 429.716 553.498 433.544 551.708 437.054C549.919 440.563 547.455 443.686 544.459 446.244C541.462 448.802 537.992 450.744 534.244 451.961C530.497 453.177 526.547 453.643 522.62 453.333Z" fill="#2D3587"/>
<path d="M558.772 415.682C560.948 420.198 559.665 425.415 556.79 429.313C553.52 433.748 548.32 435.934 542.984 436.656C537.258 437.351 531.45 436.873 525.914 435.251C520.574 433.709 515.032 430.406 513.93 424.504C513.196 420.571 514.874 416.373 518.959 415.283C520.597 414.869 522.315 414.883 523.946 415.326C525.576 415.768 527.066 416.624 528.27 417.809C531.662 421.339 531.404 427.005 529.248 431.105C526.713 435.928 521.64 438.589 516.425 439.467C510.224 440.511 503.993 439.052 498.16 436.977C491.819 434.722 485.669 431.914 479.457 429.334C467.342 424.303 454.967 419.577 441.939 417.573C422.037 414.512 398.419 419.279 386.236 436.726C379.659 446.145 377.796 457.958 379.211 469.195C380.704 481.045 385.904 491.935 392.79 501.579C396.435 506.595 400.416 511.359 404.705 515.838C406.101 517.195 407.062 518.937 407.466 520.842C407.869 522.747 407.698 524.729 406.972 526.537C403.198 535.81 388.108 532.855 386.983 523.296C386.472 518.952 388.896 514.479 391.924 511.533C395.36 508.319 399.69 506.221 404.342 505.517C414.133 503.882 424.484 507.512 431.968 513.818C440.424 520.942 445.184 531.769 447.692 542.308C450.547 554.307 450.692 566.649 450.963 578.915C451.241 591.466 451.718 604.167 455.319 616.282C458.248 626.033 462.768 635.232 468.699 643.508C480.542 660.181 497.379 672.659 516.778 679.138C521.47 680.661 526.282 681.788 531.162 682.507C533.073 682.791 533.301 679.799 531.399 679.517C510.124 676.363 490.561 664.844 476.556 648.653C469.537 640.576 463.99 631.329 460.167 621.335C455.6 609.297 454.442 596.51 454.069 583.734C453.688 570.685 453.895 557.519 451.283 544.665C448.973 533.301 444.443 521.794 436.054 513.515C428.656 506.215 418.073 501.698 407.614 502.183C397.882 502.634 387.476 507.994 384.584 517.923C383.227 522.582 384.09 527.584 387.647 531.045C389.675 532.968 392.197 534.293 394.931 534.871C397.666 535.449 400.508 535.258 403.14 534.319C406.001 533.082 408.299 530.824 409.587 527.986C410.875 525.148 411.061 521.932 410.109 518.965C409.308 516.785 408.022 514.817 406.347 513.21C397.568 503.834 389.511 493.342 385.139 481.133C381.061 469.746 380.225 456.647 384.928 445.316C393.831 423.866 419.669 417.42 440.716 420.418C454.491 422.38 467.533 427.595 480.292 432.93C486.807 435.653 493.281 438.681 500.038 440.766C506.088 442.633 512.58 443.57 518.813 442.039C524.253 440.703 529.253 437.54 531.888 432.48C534.282 427.883 534.695 422.051 531.848 417.548C527.733 411.038 516.368 409.573 512.226 416.886C509.478 421.737 510.829 427.95 514.438 431.974C518.484 436.486 524.543 438.328 530.341 439.258C541.298 441.016 554.791 439.635 560.653 428.812C563.068 424.354 563.72 419.038 561.473 414.377C561.292 414.033 560.984 413.772 560.614 413.65C560.245 413.528 559.842 413.555 559.492 413.724C559.141 413.894 558.87 414.193 558.736 414.558C558.601 414.923 558.614 415.326 558.772 415.682Z" fill="#3F3D56"/>
<path d="M523.527 683.118C506.011 681.734 459.178 705.701 446.501 695.39C444.917 694.112 443.384 692.77 441.903 691.366C437.056 686.82 432.775 681.706 429.153 676.134C428.526 675.192 427.929 674.242 427.352 673.284C425.321 669.879 423.533 666.336 422.001 662.679C421.732 662.016 421.464 661.343 421.197 660.67C414.062 642.232 413.701 621.861 420.177 603.182C426.653 584.503 439.546 568.727 456.562 558.662C473.577 548.597 493.613 544.895 513.102 548.216C532.591 551.536 550.269 561.664 562.992 576.796C563.672 577.592 564.329 578.406 564.976 579.24C571.434 587.511 576.268 596.929 579.224 606.998C579.223 607.008 579.233 607.009 579.232 607.019C583.641 622.117 583.712 638.151 579.439 653.289L579.438 653.309C579.341 653.642 579.245 653.976 579.138 654.308C568.198 691.332 563.552 686.28 523.527 683.118Z" fill="#2D3587"/>
<path d="M422.379 662.719C422.252 662.721 422.125 662.708 422.001 662.679C421.732 662.016 421.464 661.343 421.197 660.67C421.31 660.388 421.506 660.146 421.759 659.978C422.013 659.81 422.311 659.723 422.615 659.728C424.131 659.723 425.642 659.55 427.12 659.212C439.948 656.313 447.425 643.181 450.629 631.457C454.56 617.112 454.614 601.698 461.72 588.316C464.481 582.817 468.54 578.073 473.546 574.495C479.042 570.77 485.721 569.208 492.299 570.108C507.776 572.153 519.073 584.07 533.441 588.977C539.36 590.999 545.661 591.497 551.58 589.196C556.609 587.246 561.197 583.395 562.236 577.86C562.27 577.636 562.357 577.423 562.488 577.238C562.619 577.053 562.792 576.902 562.992 576.796C563.672 577.592 564.329 578.406 564.976 579.24C564.745 580.239 564.409 581.211 563.974 582.14C561.449 587.437 556.414 590.862 550.932 592.575C544.587 594.552 537.985 593.799 531.811 591.586C517.412 586.426 505.57 573.674 489.673 572.88C475.894 572.192 466.373 583.518 461.788 595.333C456.119 609.952 456.961 626.34 450.597 640.743C445.589 652.074 435.554 662.667 422.379 662.719Z" fill="#3F3D56"/>
<path d="M429.153 676.134C428.526 675.192 427.929 674.242 427.352 673.284C427.492 673.172 427.653 673.092 427.826 673.049C427.999 673.006 428.18 673 428.355 673.032C441.212 674.549 454.162 671.097 464.558 663.383C469.119 660.048 473.084 655.965 476.285 651.309C479.609 646.436 481.617 640.957 483.87 635.547C486.086 630.225 488.688 624.843 493.095 620.989C497.588 617.06 503.386 615.412 509.258 615.234C523.174 614.818 535.309 622.728 548.852 624.36C554.894 625.088 560.891 624.218 566.063 620.844C570.526 617.927 573.776 613.359 573.567 607.875C573.49 606.063 576.129 606.182 576.514 607.777C576.541 607.887 576.555 607.999 576.558 608.111C576.797 614.49 572.875 619.948 567.713 623.322C561.715 627.252 554.706 628.223 547.693 627.228C534.123 625.293 521.581 617.08 507.54 618.318C504.594 618.488 501.716 619.275 499.093 620.628C496.47 621.982 494.16 623.871 492.314 626.173C488.619 630.917 486.667 636.711 484.387 642.209C482.223 647.703 479.198 652.817 475.426 657.36C471.608 661.795 467.105 665.591 462.089 668.605C452.221 674.628 440.658 677.271 429.153 676.134Z" fill="#3F3D56"/>
<path d="M446.501 695.39C444.917 694.112 443.384 692.77 441.903 691.366C449.543 693.311 457.504 693.642 465.279 692.34C475.062 690.77 484.29 686.759 492.111 680.676C496.006 677.627 499.441 674.034 502.313 670.007C505.586 665.4 508.446 660.31 513.382 657.259C524.096 650.642 536.919 656.691 547.616 659.943C553.2 661.648 559.197 662.804 564.883 660.916C569.293 659.449 573.572 656.196 574.443 651.389C574.783 649.5 577.785 649.727 577.434 651.626C577.366 651.981 577.288 652.336 577.199 652.69C575.824 657.908 571.554 661.674 566.515 663.503C559.938 665.872 553.124 664.762 546.591 662.771C535.845 659.495 521.802 652.758 512.08 662.051C507.979 665.97 505.463 671.279 501.764 675.561C498.465 679.399 494.659 682.77 490.45 685.581C477.525 694.19 461.86 697.686 446.501 695.39Z" fill="#3F3D56"/>
<path d="M656.222 908.5H585.222C582.968 908.497 580.808 907.601 579.214 906.008C577.621 904.414 576.724 902.253 576.722 900V875C576.724 872.746 577.621 870.586 579.214 868.992C580.808 867.399 582.968 866.502 585.222 866.5H656.222C658.475 866.502 660.636 867.399 662.229 868.992C663.823 870.586 664.719 872.746 664.722 875V900C664.719 902.253 663.823 904.414 662.229 906.008C660.636 907.601 658.475 908.497 656.222 908.5Z" fill="#E6E6E6"/>
<path d="M244.482 618.364L246.356 635.746L245.253 658.538L295.738 652.54L300.482 618.364L294.438 618.424L244.482 618.364Z" fill="#FFB6B6"/>
<path d="M304.722 564.5L289.113 558.727L282.443 549.041L258.451 546.642L243.652 556.123L231.245 562.441L231.457 595.428L245.722 654.5L296.722 652.5L303.435 610.377C303.435 610.377 319.03 589.43 302.235 577.434L304.722 564.5Z" fill="#CCCCCC"/>
<path d="M218.296 933.938H229.334L234.586 891.364H218.296V933.938Z" fill="#FFB6B6"/>
<path d="M214.694 926.378L232.328 925.326V932.881L249.093 944.459C249.921 945.031 250.545 945.853 250.873 946.804C251.201 947.755 251.216 948.786 250.917 949.747C250.617 950.708 250.019 951.548 249.208 952.144C248.398 952.74 247.418 953.062 246.411 953.062H225.417L221.799 945.589L220.386 953.062H212.47L214.694 926.378Z" fill="#2F2E41"/>
<path d="M280.296 933.938H291.334L296.586 891.364H280.296V933.938Z" fill="#FFB6B6"/>
<path d="M276.694 926.378L294.328 925.326V932.881L311.093 944.459C311.921 945.031 312.545 945.853 312.873 946.804C313.201 947.755 313.216 948.786 312.917 949.747C312.617 950.708 312.019 951.548 311.208 952.144C310.398 952.74 309.418 953.062 308.411 953.062H287.417L283.799 945.589L282.386 953.062H274.47L276.694 926.378Z" fill="#2F2E41"/>
<path d="M213.534 897.224H213.654L215.776 828.001C214.403 825.351 213.706 822.403 213.747 819.419C213.788 816.434 214.567 813.506 216.014 810.896L216.318 810.346L215.53 806.693C214.518 802 214.982 797.109 216.859 792.69L218.84 728.118C211.765 682.267 245.482 652.364 245.482 652.364H295.99L306.833 689.62C314.002 759.46 312.701 827.518 301.326 893.454L301.636 893.611C302.753 893.996 303.232 895.543 302.706 897.066C302.18 898.589 300.849 899.511 299.732 899.126L273.058 898.198C271.942 897.812 271.462 896.265 271.988 894.743C272.514 893.22 273.845 892.298 274.962 892.683L276.775 893.6L272.908 826.803L273.337 814.602L272.452 800.76L268.364 738.499L252.888 815.062L237.08 897.995C237.516 898.39 237.822 898.907 237.957 899.48C238.093 900.052 238.052 900.652 237.839 901.2C237.627 901.749 237.253 902.22 236.767 902.552C236.282 902.884 235.707 903.06 235.119 903.058H213.534C212.76 903.058 212.018 902.751 211.471 902.204C210.924 901.657 210.617 900.915 210.617 900.141C210.617 899.368 210.924 898.626 211.471 898.079C212.018 897.532 212.76 897.224 213.534 897.224Z" fill="#2F2E41"/>
<path d="M208.283 701.108C207.319 700.179 206.57 699.05 206.09 697.8C205.61 696.55 205.41 695.211 205.503 693.875C205.597 692.54 205.982 691.241 206.632 690.07C207.282 688.9 208.181 687.886 209.265 687.101L222.722 604.5L238.504 610.053L222.512 689.623C223.711 691.532 224.168 693.814 223.797 696.037C223.426 698.26 222.252 700.27 220.498 701.686C218.744 703.101 216.532 703.825 214.281 703.718C212.029 703.612 209.895 702.683 208.283 701.108Z" fill="#FFB6B6"/>
<path d="M233.367 562.367C233.367 562.367 228.84 560.661 227.197 570.778C225.882 578.878 213.041 627.766 214.256 639.094C212.749 639.622 211.46 640.636 210.593 641.977C209.726 643.318 209.33 644.909 209.466 646.5L233.145 646.621C236.77 642.667 237.241 637.896 235.49 636.723L238.766 622.269L254.193 575.637L236.661 563.542L233.367 562.367Z" fill="#CCCCCC"/>
<path d="M317.295 704.625C318.335 703.782 319.178 702.721 319.764 701.517C320.35 700.314 320.665 698.996 320.686 697.658C320.708 696.319 320.436 694.992 319.889 693.77C319.342 692.548 318.534 691.461 317.522 690.585L312.722 607.5L295.021 611.306L304.107 691.958C302.748 693.756 302.096 695.99 302.275 698.237C302.453 700.484 303.449 702.588 305.075 704.149C306.701 705.71 308.842 706.621 311.095 706.709C313.347 706.796 315.553 706.055 317.295 704.625Z" fill="#FFB6B6"/>
<path d="M304.242 564.24C304.242 564.24 308.899 562.929 309.666 573.15C310.279 581.333 318.866 631.145 316.68 642.326C318.136 642.982 319.333 644.103 320.081 645.514C320.83 646.924 321.088 648.544 320.815 650.117L297.214 648.2C293.942 643.949 293.884 639.155 295.729 638.137L293.709 623.455L282.352 575.668L300.859 565.127L304.242 564.24Z" fill="#CCCCCC"/>
<path d="M259.92 544.938C273.106 544.938 283.796 534.248 283.796 521.062C283.796 507.876 273.106 497.186 259.92 497.186C246.734 497.186 236.044 507.876 236.044 521.062C236.044 534.248 246.734 544.938 259.92 544.938Z" fill="#FFB8B8"/>
<path d="M212.469 571.239C207.417 569.449 202.365 567.655 197.312 565.858C198.183 564.397 199.292 563.091 200.593 561.996C205.404 557.979 212.044 557.253 218.151 555.898C224.268 554.543 230.908 551.765 233.144 545.919C235.467 539.84 232.099 533.278 230.144 527.083C227.404 518.44 227.462 508.79 231.131 500.505C234.799 492.219 242.252 485.502 251.099 483.528C259.945 481.563 269.944 484.766 275.384 492.006C278.888 490.955 282.657 491.223 285.977 492.76C289.297 494.298 291.94 496.997 293.406 500.35C294.674 503.524 294.713 507.348 292.825 510.203C290.938 513.058 286.902 514.52 283.863 512.933L285.624 508.461C280.175 510.31 276.632 520.163 277.368 525.874C278.094 531.575 281.423 536.569 284.801 541.224C288.179 545.88 291.78 550.584 293.232 556.15C295.323 564.154 292.496 572.904 287.27 579.321C282.043 585.739 274.677 590.094 267.05 593.298C261.341 595.698 255.407 597.527 249.337 598.757C250.421 596.647 251.496 594.537 252.58 592.427L239.716 600.209C237.229 600.451 234.722 600.596 232.215 600.644C224.917 600.77 217.474 600.006 210.795 597.092C204.107 594.169 198.232 588.875 195.812 581.993C195.036 579.767 194.669 577.419 194.728 575.063C200.642 573.785 206.555 572.511 212.469 571.239Z" fill="#2F2E41"/>
<path d="M188.391 926.763C187.651 926.797 186.918 926.603 186.292 926.206C185.666 925.81 185.177 925.231 184.891 924.547C184.606 923.864 184.537 923.109 184.694 922.385C184.852 921.661 185.228 921.003 185.772 920.5C185.863 920.138 185.929 919.878 186.02 919.516C185.987 919.437 185.954 919.358 185.921 919.28C185.176 917.519 183.926 916.017 182.33 914.964C180.734 913.911 178.862 913.353 176.95 913.36C175.038 913.367 173.17 913.939 171.582 915.004C169.993 916.069 168.755 917.58 168.023 919.346C165.095 926.397 161.368 933.459 160.451 940.914C160.047 944.209 160.217 947.55 160.955 950.786C154.079 935.788 150.509 919.487 150.486 902.987C150.484 898.847 150.714 894.71 151.175 890.595C151.555 887.222 152.083 883.873 152.758 880.548C156.444 862.507 164.356 845.597 175.845 831.207C181.406 828.172 185.904 823.507 188.731 817.838C189.755 815.8 190.479 813.625 190.88 811.379C190.253 811.462 189.615 811.513 188.988 811.554C188.793 811.565 188.587 811.575 188.392 811.585L188.318 811.588C187.629 811.619 186.945 811.45 186.349 811.102C185.754 810.753 185.271 810.24 184.961 809.624C184.65 809.007 184.524 808.314 184.598 807.628C184.672 806.942 184.943 806.292 185.378 805.756C185.649 805.423 185.92 805.09 186.191 804.757C186.602 804.243 187.024 803.739 187.435 803.224C187.483 803.176 187.527 803.124 187.569 803.07C188.042 802.484 188.515 801.908 188.988 801.322C188.125 799.982 186.963 798.859 185.594 798.041C180.854 795.265 174.313 797.188 170.889 801.476C167.454 805.764 166.806 811.781 167.999 817.138C169.172 821.697 171.113 826.024 173.737 829.931C173.48 830.26 173.213 830.579 172.956 830.908C168.256 836.952 164.16 843.441 160.726 850.283C161.561 842.618 160.564 834.864 157.818 827.659C155.035 820.944 149.817 815.289 145.223 809.484C139.704 802.511 128.388 805.554 127.416 814.393C127.406 814.479 127.397 814.564 127.388 814.65C128.071 815.035 128.739 815.443 129.392 815.876C130.213 816.424 130.85 817.208 131.218 818.124C131.586 819.041 131.668 820.047 131.455 821.011C131.241 821.975 130.741 822.852 130.021 823.527C129.3 824.202 128.392 824.644 127.416 824.795L127.316 824.81C127.559 827.27 127.989 829.707 128.602 832.101C130.377 838.785 133.514 845.031 137.816 850.446C142.118 855.861 147.492 860.329 153.602 863.57C154.003 863.775 154.394 863.981 154.795 864.176C151.345 873.953 149.181 884.137 148.357 894.472C147.891 900.57 147.918 906.695 148.439 912.788L148.408 912.572C147.092 905.797 143.478 899.683 138.176 895.264C130.302 888.796 119.177 886.414 110.681 881.214C109.779 880.635 108.729 880.325 107.656 880.323C106.583 880.32 105.532 880.624 104.626 881.2C103.721 881.775 102.998 882.597 102.545 883.569C102.091 884.542 101.925 885.623 102.066 886.687C102.077 886.763 102.089 886.838 102.101 886.914C103.367 887.43 104.6 888.024 105.792 888.693C106.475 889.078 107.143 889.487 107.796 889.919C108.617 890.467 109.254 891.251 109.622 892.168C109.99 893.084 110.072 894.09 109.859 895.054C109.645 896.018 109.145 896.895 108.425 897.57C107.704 898.246 106.796 898.687 105.82 898.838L105.72 898.853C105.648 898.864 105.587 898.874 105.515 898.884C107.679 904.051 110.715 908.806 114.492 912.942C119.158 917.949 124.798 921.95 131.065 924.699C137.332 927.449 144.095 928.89 150.938 928.933H150.948C152.806 937.006 155.498 944.864 158.98 952.38H187.672C187.775 952.062 187.867 951.732 187.96 951.414C185.304 951.581 182.638 951.422 180.021 950.941C182.149 948.329 184.278 945.696 186.407 943.084C186.454 943.035 186.499 942.983 186.541 942.93C187.62 941.593 188.71 940.266 189.79 938.929L189.791 938.928C189.848 934.83 189.378 930.741 188.392 926.763L188.391 926.763Z" fill="#F2F2F2"/>
<path d="M381.104 954.389L105.354 954.696C105.039 954.696 104.736 954.571 104.512 954.347C104.289 954.124 104.164 953.821 104.164 953.505C104.164 953.189 104.289 952.887 104.512 952.663C104.736 952.44 105.039 952.315 105.354 952.315L381.104 952.007C381.42 952.007 381.723 952.133 381.946 952.356C382.17 952.579 382.295 952.882 382.295 953.198C382.295 953.514 382.17 953.817 381.946 954.04C381.723 954.263 381.42 954.389 381.104 954.389Z" fill="#CACACA"/>
<rect x="598" y="901" width="20" height="20" rx="10" fill="white"/>
<rect x="535" y="869" width="20" height="20" rx="10" fill="white"/>
<rect x="599" y="933" width="20" height="20" rx="10" fill="white"/>
<rect x="567" y="933" width="20" height="20" rx="10" fill="white"/>
<rect x="535" y="933" width="20" height="20" rx="10" fill="white"/>
<rect x="567" y="901" width="20" height="20" rx="10" fill="white"/>
<rect x="535" y="901" width="20" height="20" rx="10" fill="white"/>
<rect x="598" y="869" width="20" height="20" rx="10" fill="white"/>
<rect x="567" y="869" width="20" height="20" rx="10" fill="white"/>
</g>
<path fill-rule="evenodd" clip-rule="evenodd" d="M1703.2 771.795V772.205L1803.2 772.205V672.205H1802.8L1703.2 771.795Z" fill="white"/>
<path fill-rule="evenodd" clip-rule="evenodd" d="M895.409 705.205H895L895 805.205H995V804.795L895.409 705.205Z" fill="white"/>
<rect x="1439" y="835" width="20" height="20" rx="10" fill="white"/>
<rect x="1376" y="803" width="20" height="20" rx="10" fill="white"/>
<rect x="1440" y="867" width="20" height="20" rx="10" fill="white"/>
<rect x="1408" y="867" width="20" height="20" rx="10" fill="white"/>
<rect x="1376" y="867" width="20" height="20" rx="10" fill="white"/>
<rect x="1408" y="835" width="20" height="20" rx="10" fill="white"/>
<rect x="1376" y="835" width="20" height="20" rx="10" fill="white"/>
<rect x="1439" y="803" width="20" height="20" rx="10" fill="white"/>
<rect x="1408" y="803" width="20" height="20" rx="10" fill="white"/>
<rect x="170" y="414" width="20" height="20" rx="10" fill="#3EFAFA"/>
<rect x="107" y="382" width="20" height="20" rx="10" fill="#3EFAFA"/>
<rect x="171" y="446" width="20" height="20" rx="10" fill="#3EFAFA"/>
<rect x="139" y="446" width="20" height="20" rx="10" fill="#3EFAFA"/>
<rect x="107" y="446" width="20" height="20" rx="10" fill="#3EFAFA"/>
<rect x="139" y="414" width="20" height="20" rx="10" fill="#3EFAFA"/>
<rect x="107" y="414" width="20" height="20" rx="10" fill="#3EFAFA"/>
<rect x="170" y="382" width="20" height="20" rx="10" fill="#3EFAFA"/>
<rect x="139" y="382" width="20" height="20" rx="10" fill="#3EFAFA"/>
</g>
<defs>
<clipPath id="clip0_1_2">
<rect width="1920" height="1080" fill="white"/>
</clipPath>
<clipPath id="clip1_1_2">
<rect width="570.222" height="670.696" fill="white" transform="translate(102 284)"/>
</clipPath>
</defs>
</svg>
