<svg width="1920" height="1080" viewBox="0 0 1920 1080" fill="none" xmlns="http://www.w3.org/2000/svg">
<g clip-path="url(#clip0_1_2)">
<rect y="698" width="902" height="382" fill="#6C9FDA"/>
<rect x="923" y="688" width="20" height="20" rx="10" fill="white"/>
<rect x="860" y="656" width="20" height="20" rx="10" fill="white"/>
<rect x="924" y="720" width="20" height="20" rx="10" fill="white"/>
<rect x="892" y="720" width="20" height="20" rx="10" fill="white"/>
<rect x="860" y="720" width="20" height="20" rx="10" fill="white"/>
<rect x="892" y="688" width="20" height="20" rx="10" fill="white"/>
<rect x="860" y="688" width="20" height="20" rx="10" fill="white"/>
<rect x="1186" y="690" width="734" height="392" fill="#3EFAFA"/>
<rect x="1737" y="479" width="20" height="20" rx="10" fill="white"/>
<rect x="1674" y="447" width="20" height="20" rx="10" fill="white"/>
<rect x="1738" y="511" width="20" height="20" rx="10" fill="white"/>
<rect x="1706" y="511" width="20" height="20" rx="10" fill="white"/>
<rect x="1674" y="511" width="20" height="20" rx="10" fill="white"/>
<rect x="1706" y="479" width="20" height="20" rx="10" fill="white"/>
<rect x="1674" y="479" width="20" height="20" rx="10" fill="white"/>
<rect x="1737" y="447" width="20" height="20" rx="10" fill="white"/>
<rect x="1706" y="447" width="20" height="20" rx="10" fill="white"/>
<rect x="923" y="656" width="20" height="20" rx="10" fill="white"/>
<rect x="892" y="656" width="20" height="20" rx="10" fill="white"/>
<rect y="638" width="345" height="442" fill="#3EFAFA"/>
<rect x="335" y="621" width="21" height="459" fill="white"/>
<path fill-rule="evenodd" clip-rule="evenodd" d="M172.409 571.205H172L172 671.205H272V670.795L172.409 571.205Z" fill="white"/>
<rect x="472" y="708" width="20" height="20" rx="10" fill="#3EFAFA"/>
<rect x="409" y="676" width="20" height="20" rx="10" fill="#3EFAFA"/>
<rect x="473" y="740" width="20" height="20" rx="10" fill="#3EFAFA"/>
<rect x="441" y="740" width="20" height="20" rx="10" fill="#3EFAFA"/>
<rect x="409" y="740" width="20" height="20" rx="10" fill="#3EFAFA"/>
<rect x="441" y="708" width="20" height="20" rx="10" fill="#3EFAFA"/>
<rect x="409" y="708" width="20" height="20" rx="10" fill="#3EFAFA"/>
<rect x="472" y="676" width="20" height="20" rx="10" fill="#3EFAFA"/>
<rect x="441" y="676" width="20" height="20" rx="10" fill="#3EFAFA"/>
<g clip-path="url(#clip1_1_2)">
<path d="M1238.78 816.736C1237.94 815.312 1234.29 816.836 1233.62 815.544C1232.95 814.257 1236.34 812.295 1238.28 807.814C1238.63 807.006 1240.83 801.914 1239.2 800.343C1236.11 797.364 1221.96 809.655 1217.01 805.633C1215.92 804.751 1215.16 802.988 1211.88 800.127C1210.57 798.989 1209.78 798.475 1209.01 798.667C1207.92 798.938 1207.84 800.392 1206.67 803.251C1204.93 807.538 1203.89 807.279 1202.88 810.7C1202.12 813.239 1202.29 814.715 1201.4 815.003C1200.14 815.41 1198.99 812.716 1197.39 812.957C1195.77 813.204 1194.78 816.34 1194.47 818.687C1193.89 823.094 1195.51 826.001 1196.4 829.058C1197.38 832.38 1197.96 837.433 1195.7 844.586L1173.43 907.352C1178.35 894.472 1192.59 859.166 1198.57 846.047C1200.3 842.259 1202.2 838.417 1206.12 836.901C1209.89 835.441 1215.07 836.313 1221.67 834.723C1222.44 834.537 1224.58 833.993 1224.85 832.734C1225.07 831.694 1223.81 831.113 1224.01 830.139C1224.27 828.832 1226.74 828.816 1229.78 827.308C1231.93 826.244 1233.26 824.98 1234.41 823.892C1234.76 823.565 1239.91 818.631 1238.78 816.736Z" fill="#F2F2F2"/>
<path d="M1151.14 849.778C1150.2 849.782 1149.89 852.014 1149.06 851.971C1148.24 851.928 1148.25 849.697 1146.61 847.452C1146.32 847.047 1144.46 844.497 1143.21 844.844C1140.86 845.502 1142.81 855.992 1139.41 857.262C1138.66 857.54 1137.58 857.405 1135.22 858.193C1134.29 858.507 1133.81 858.747 1133.68 859.178C1133.5 859.789 1134.19 860.251 1135.26 861.648C1136.86 863.742 1136.43 864.174 1137.82 865.661C1138.84 866.764 1139.62 867.106 1139.5 867.625C1139.34 868.36 1137.68 868.151 1137.34 869.004C1136.99 869.873 1138.25 871.261 1139.31 872.091C1141.31 873.648 1143.2 873.693 1144.96 874.135C1146.87 874.615 1149.52 875.789 1152.38 878.958L1176.76 908.001C1171.85 901.871 1158.63 884.695 1153.92 877.973C1152.56 876.032 1151.23 873.988 1151.61 871.628C1151.98 869.356 1153.91 867.066 1155.03 863.367C1155.16 862.935 1155.51 861.728 1154.97 861.233C1154.52 860.824 1153.88 861.274 1153.45 860.898C1152.89 860.393 1153.59 859.174 1153.73 857.246C1153.83 855.887 1153.59 854.866 1153.39 853.989C1153.33 853.724 1152.39 849.774 1151.14 849.778Z" fill="#F2F2F2"/>
<path d="M1169.94 853.998L1169.37 848.93L1169.63 848.546C1170.83 846.769 1171.44 845.034 1171.45 843.387C1171.45 843.126 1171.44 842.864 1171.43 842.597C1171.38 841.54 1171.32 840.226 1172 838.694C1172.39 837.84 1173.46 835.862 1175.09 836.107C1175.52 836.168 1175.85 836.369 1176.11 836.604C1176.14 836.545 1176.18 836.486 1176.22 836.423C1176.73 835.652 1177.13 835.321 1177.51 835.003C1177.81 834.759 1178.11 834.506 1178.59 833.909C1178.8 833.647 1178.97 833.417 1179.11 833.224C1179.53 832.639 1180.07 831.942 1181.04 831.954C1182.07 832.003 1182.61 832.857 1182.97 833.422C1183.61 834.431 1183.9 835.157 1184.09 835.64C1184.16 835.816 1184.24 836.014 1184.28 836.075C1184.62 836.565 1187.32 836.107 1188.34 835.94C1190.63 835.559 1192.61 835.228 1193.43 836.672C1194.01 837.705 1193.58 839.07 1192.1 840.84C1191.64 841.39 1191.15 841.809 1190.71 842.137C1191.07 842.352 1191.39 842.683 1191.53 843.201C1191.83 844.43 1190.78 845.661 1188.39 846.865C1187.79 847.166 1187 847.567 1185.88 847.761C1185.35 847.851 1184.87 847.873 1184.47 847.885C1184.46 848.12 1184.4 848.375 1184.26 848.637C1183.84 849.408 1182.97 849.775 1181.65 849.686C1180.2 849.611 1179.01 849.334 1177.96 849.092C1177.04 848.881 1176.25 848.703 1175.62 848.744C1174.47 848.837 1173.58 849.76 1172.54 850.957L1169.94 853.998Z" fill="#F2F2F2"/>
<path d="M1172.57 823.823L1167.81 825.657L1167.38 825.504C1165.35 824.793 1163.52 824.642 1161.92 825.052C1161.67 825.118 1161.42 825.196 1161.17 825.275C1160.16 825.591 1158.9 825.983 1157.24 825.709C1156.32 825.554 1154.13 825.012 1153.96 823.38C1153.91 822.942 1154.02 822.572 1154.18 822.269C1154.12 822.249 1154.05 822.227 1153.98 822.204C1153.1 821.911 1152.68 821.608 1152.28 821.315C1151.97 821.091 1151.64 820.859 1150.94 820.547C1150.64 820.409 1150.37 820.309 1150.15 820.224C1149.48 819.967 1148.67 819.614 1148.43 818.675C1148.22 817.664 1148.91 816.924 1149.36 816.434C1150.18 815.559 1150.81 815.094 1151.22 814.786C1151.38 814.674 1151.55 814.547 1151.6 814.492C1151.99 814.046 1150.86 811.545 1150.44 810.602C1149.49 808.484 1148.66 806.652 1149.85 805.496C1150.71 804.668 1152.14 804.742 1154.22 805.725C1154.87 806.032 1155.4 806.4 1155.83 806.739C1155.95 806.335 1156.18 805.939 1156.65 805.68C1157.76 805.07 1159.22 805.78 1160.99 807.786C1161.43 808.284 1162.02 808.955 1162.5 809.989C1162.72 810.476 1162.86 810.929 1162.97 811.319C1163.2 811.268 1163.46 811.257 1163.75 811.329C1164.61 811.539 1165.18 812.291 1165.43 813.587C1165.72 815.008 1165.76 816.232 1165.79 817.311C1165.82 818.253 1165.85 819.064 1166.05 819.655C1166.43 820.746 1167.55 821.372 1168.97 822.077L1172.57 823.823Z" fill="#F2F2F2"/>
<path d="M1169.94 808.892L1169.37 803.823L1169.63 803.439C1170.83 801.662 1171.44 799.927 1171.45 798.28C1171.45 798.019 1171.44 797.757 1171.43 797.49C1171.38 796.433 1171.32 795.119 1172 793.587C1172.39 792.733 1173.46 790.755 1175.09 791C1175.52 791.061 1175.85 791.262 1176.11 791.497C1176.14 791.438 1176.18 791.379 1176.22 791.316C1176.73 790.545 1177.13 790.214 1177.51 789.896C1177.81 789.652 1178.11 789.4 1178.59 788.802C1178.8 788.541 1178.97 788.311 1179.11 788.117C1179.53 787.532 1180.07 786.835 1181.04 786.847C1182.07 786.896 1182.61 787.75 1182.97 788.315C1183.61 789.324 1183.9 790.05 1184.09 790.533C1184.16 790.709 1184.24 790.907 1184.28 790.968C1184.62 791.458 1187.32 791 1188.34 790.834C1190.63 790.452 1192.61 790.121 1193.43 791.565C1194.01 792.598 1193.58 793.964 1192.1 795.733C1191.64 796.284 1191.15 796.702 1190.71 797.03C1191.07 797.245 1191.39 797.576 1191.53 798.094C1191.83 799.323 1190.78 800.554 1188.39 801.758C1187.79 802.059 1187 802.46 1185.88 802.654C1185.35 802.744 1184.87 802.766 1184.47 802.778C1184.46 803.013 1184.4 803.268 1184.26 803.53C1183.84 804.301 1182.97 804.668 1181.65 804.58C1180.2 804.504 1179.01 804.227 1177.96 803.985C1177.04 803.774 1176.25 803.596 1175.62 803.637C1174.47 803.73 1173.58 804.653 1172.54 805.85L1169.94 808.892Z" fill="#F2F2F2"/>
<path d="M1175.12 907.269L1174.06 906.604L1172.82 906.746C1172.8 906.63 1172.74 906.366 1172.64 905.953C1172.08 903.686 1170.39 896.79 1168.98 885.93C1168 878.348 1167.44 870.554 1167.33 862.759C1167.21 854.953 1167.58 849.043 1167.88 844.293C1168.1 840.71 1168.37 837.299 1168.64 833.975C1169.35 825.097 1170.02 816.71 1169.52 807.426C1169.41 805.353 1169.18 801.038 1166.66 796.447C1165.2 793.785 1163.18 791.421 1160.67 789.424L1162.23 787.461C1165 789.669 1167.23 792.287 1168.86 795.243C1171.65 800.334 1171.9 805.035 1172.02 807.293C1172.53 816.742 1171.85 825.21 1171.14 834.174C1170.87 837.485 1170.6 840.881 1170.38 844.449C1170.08 849.155 1169.72 855.014 1169.83 862.72C1169.94 870.422 1170.5 878.121 1171.47 885.607C1172.86 896.33 1174.52 903.124 1175.07 905.356C1175.36 906.547 1175.42 906.797 1175.12 907.269Z" fill="#F2F2F2"/>
<path d="M1156.08 793.406C1155.97 793.406 1155.87 793.403 1155.76 793.396C1153.63 793.281 1151.65 792.003 1149.89 789.6C1149.06 788.47 1148.64 787.18 1147.79 784.608C1147.66 784.211 1147.03 782.2 1146.64 779.432C1146.39 777.624 1146.42 776.867 1146.78 776.199C1147.17 775.455 1147.82 774.937 1148.54 774.587C1148.51 774.347 1148.54 774.1 1148.64 773.847C1149.07 772.803 1150.2 772.94 1150.82 773.006C1151.13 773.045 1151.52 773.096 1151.93 773.074C1152.59 773.042 1152.95 772.847 1153.48 772.553C1153.99 772.271 1154.63 771.922 1155.58 771.728C1157.44 771.339 1159.01 771.868 1159.52 772.041C1162.23 772.944 1163.57 775.052 1165.11 777.491C1165.42 777.981 1166.48 779.762 1167.18 782.205C1167.68 783.967 1167.61 784.75 1167.46 785.332C1167.15 786.529 1166.42 787.214 1164.58 788.726C1162.64 790.31 1161.68 791.103 1160.84 791.585C1158.91 792.703 1157.69 793.406 1156.08 793.406Z" fill="#F2F2F2"/>
<path d="M1716.04 906.13C1716.04 906.594 1715.66 906.97 1715.2 906.97H1133V905.29H1715.2C1715.66 905.29 1716.04 905.666 1716.04 906.13Z" fill="#E6E6E6"/>
<path d="M1547.97 640.596C1547.97 640.596 1516.63 644.365 1521.91 619.586C1527.2 594.808 1557.17 549.041 1557.17 549.041L1574.18 558.579L1554.65 604.737L1563.06 611.369L1547.97 640.596Z" fill="#A0616A"/>
<path d="M1650.67 610.43L1646.25 646.75L1535.59 646.208L1557.82 607.583L1650.67 610.43Z" fill="#664C94"/>
<path d="M1584.91 550.971C1591.68 541.513 1592.22 530.304 1586.12 525.935C1580.02 521.566 1569.58 525.692 1562.81 535.149C1556.04 544.607 1555.49 555.816 1561.6 560.185C1567.7 564.554 1578.13 560.428 1584.91 550.971Z" fill="#A0616A"/>
<path d="M1640.03 748.901V906.526H1646.82V748.901H1640.03Z" fill="#3F3D56"/>
<path d="M1607.41 748.901V906.526H1614.21V748.901H1607.41Z" fill="#3F3D56"/>
<path d="M1424.65 649.707V906.526H1431.45V649.707H1424.65Z" fill="#E6E6E6"/>
<path d="M1534.04 748.901V906.526H1540.83V748.901H1534.04Z" fill="#3F3D56"/>
<path d="M1508.04 748.901V906.526H1514.83V748.901H1508.04Z" fill="#3F3D56"/>
<path d="M1633.91 745.504H1502.71L1477.54 781.204L1608.09 788.987L1633.91 745.504Z" fill="#3F3D56"/>
<path d="M1393.67 623.362L1394.26 597.472L1315.08 603.563L1314.67 621.106L1393.67 623.362Z" fill="#A0616A"/>
<path d="M1340.07 600.47L1336.29 609.581L1330.85 609.755C1330.85 609.755 1337.22 611.705 1338.99 623.277L1333.76 624.844C1333.76 624.844 1328.74 629.526 1319.36 629.072L1294.2 626.968L1294.11 618.199L1311.49 616.189C1311.49 616.189 1315.37 613.641 1296.19 603.162C1296.19 603.162 1289.84 599.278 1295.55 580.094C1296.34 577.457 1298.71 575.564 1301.46 575.504C1302.98 575.471 1304.4 576.017 1304.97 577.902C1306.41 582.701 1304.95 587.486 1308.92 590.481C1312.89 593.477 1340.07 600.47 1340.07 600.47Z" fill="#2F2E41"/>
<path d="M1624.09 722.34C1624.09 722.34 1596.77 768.81 1534.95 760.435C1520.23 758.442 1507.29 749.695 1499.92 736.809C1485.66 711.903 1464.02 668.294 1471.04 643.601L1366.47 623.644L1358.24 598.25L1471.4 583.55C1481.41 582.25 1491.21 587.118 1496.23 595.877L1551.35 692.145L1567.79 693.94L1624.09 722.34Z" fill="#2F2E41"/>
<path d="M1395.73 633.96L1394.24 608.106L1315.8 620.548L1316.81 638.067L1395.73 633.96Z" fill="#A0616A"/>
<path d="M1340.47 615.454L1337.43 624.841L1332.02 625.451C1332.02 625.451 1338.53 626.883 1341.22 638.275L1336.14 640.257C1336.14 640.257 1331.51 645.328 1322.12 645.63L1296.88 645.557L1296.08 636.823L1313.25 633.422C1313.25 633.422 1316.9 630.57 1296.94 621.669C1296.94 621.669 1290.3 618.307 1294.45 598.726C1295.02 596.035 1297.23 593.957 1299.97 593.676C1301.48 593.521 1302.94 593.95 1303.66 595.784C1305.49 600.451 1304.41 605.338 1308.61 608.004C1312.81 610.671 1340.47 615.454 1340.47 615.454Z" fill="#2F2E41"/>
<path d="M1633.37 714.08C1633.37 714.08 1609.88 762.596 1547.58 759.223C1532.76 758.42 1519.15 750.743 1510.76 738.492C1494.55 714.813 1469.47 673.087 1474.48 647.909L1368.65 636.429L1358.39 611.781L1470.01 588.024C1479.88 585.923 1490.05 589.986 1495.75 598.313L1558.44 689.835L1574.96 690.301L1633.37 714.08Z" fill="#2F2E41"/>
<path d="M1561.75 509.206L1556.32 513.283L1584.85 552.689L1590.29 551.33L1561.75 509.206Z" fill="#3F3D56"/>
<path d="M1635.95 596.712L1667.2 595.354L1680.79 656.501C1680.79 656.501 1652.26 763.848 1618.28 759.772C1618.28 759.772 1597.22 744.145 1597.22 738.71C1597.22 733.275 1568.69 719.686 1568.69 719.686L1561.89 696.586L1582.28 665.333C1582.28 665.333 1590.43 640.874 1617.6 627.286L1635.95 596.712Z" fill="#664C94"/>
<path d="M1457.26 644.271H1179.38V651.066H1315.27V906.526H1322.06V651.066H1457.26V644.271Z" fill="#E6E6E6"/>
<path d="M1652.26 591.277C1672.52 591.277 1688.94 574.851 1688.94 554.589C1688.94 534.326 1672.52 517.9 1652.26 517.9C1631.99 517.9 1615.57 534.326 1615.57 554.589C1615.57 574.851 1631.99 591.277 1652.26 591.277Z" fill="#A0616A"/>
<path d="M1524.33 601.468L1498.71 611.659L1548.98 678.242L1566.65 664.654L1524.33 601.468Z" fill="#E6E6E6"/>
<path d="M1624.4 729.198C1624.4 729.198 1614.89 759.296 1594.5 744.247C1574.12 729.198 1544.82 682.998 1544.82 682.998L1560.53 671.448L1594.5 708.297L1604.02 703.381L1624.4 729.198Z" fill="#A0616A"/>
<path d="M1639.35 623.21L1670.6 642.233L1624.4 742.787L1594.5 702.022L1639.35 623.21Z" fill="#664C94"/>
<path d="M1556.8 683.573C1563.3 679.821 1563.85 668.613 1558.03 658.539C1552.22 648.465 1542.23 643.341 1535.74 647.093C1529.24 650.845 1528.68 662.054 1534.5 672.127C1540.31 682.201 1550.3 687.326 1556.8 683.573Z" fill="#A0616A"/>
<path d="M1656.27 665.67C1665.68 634.802 1675.79 625.033 1686.41 631.149C1694.5 635.804 1696.93 646.401 1692.19 654.438C1680.11 674.926 1655.22 721.866 1660.41 752.978C1660.41 752.978 1668.56 796.46 1603.34 796.46C1538.11 796.46 1475.61 781.513 1475.61 781.513L1509.58 776.078L1586.83 781.596C1604.48 782.857 1619.36 767.754 1617 750.217C1616.92 749.638 1616.83 749.052 1616.72 748.461C1612.85 727.16 1656.27 665.67 1656.27 665.67Z" fill="#3F3D56"/>
<path d="M1638.5 539.38C1635.51 547.771 1642.09 556.485 1650.98 555.893L1651.2 555.878C1657.17 563.35 1657.34 573.918 1651.6 581.572C1651.13 591.437 1652.67 601.295 1656.14 610.543L1665.88 636.526L1680.88 629.526L1688 648.526L1729.88 626.95L1704.5 569.839L1696.75 538.855C1691.24 516.811 1668.76 503.542 1646.8 509.375L1629.95 513.851C1616.64 517.386 1608.97 531.323 1613.12 544.456L1638.5 539.38Z" fill="#2F2E41"/>
</g>
</g>
<defs>
<clipPath id="clip0_1_2">
<rect width="1920" height="1080" fill="white"/>
</clipPath>
<clipPath id="clip1_1_2">
<rect width="596.882" height="400.001" fill="white" transform="translate(1133 508)"/>
</clipPath>
</defs>
</svg>
