<svg width="1920" height="1080" viewBox="0 0 1920 1080" fill="none" xmlns="http://www.w3.org/2000/svg">
<g clip-path="url(#clip0_0_3)">
<rect y="774" width="550" height="306" fill="#3EFAFA"/>
<path fill-rule="evenodd" clip-rule="evenodd" d="M134.409 724.205H134L134 824.205H234V823.795L134.409 724.205Z" fill="white"/>
<path fill-rule="evenodd" clip-rule="evenodd" d="M1584 444.409V444L1484 444V544H1484.41L1584 444.409Z" fill="white"/>
<rect x="1354" y="736" width="566" height="344" fill="#6C9FDA"/>
<rect x="1781" y="672" width="20" height="20" rx="10" fill="#3EFAFA"/>
<rect x="1718" y="640" width="20" height="20" rx="10" fill="#3EFAFA"/>
<rect x="1782" y="704" width="20" height="20" rx="10" fill="#3EFAFA"/>
<rect x="1750" y="704" width="20" height="20" rx="10" fill="#3EFAFA"/>
<rect x="1718" y="704" width="20" height="20" rx="10" fill="#3EFAFA"/>
<rect x="1750" y="672" width="20" height="20" rx="10" fill="#3EFAFA"/>
<rect x="1718" y="672" width="20" height="20" rx="10" fill="#3EFAFA"/>
<rect x="1781" y="640" width="20" height="20" rx="10" fill="#3EFAFA"/>
<rect x="1750" y="640" width="20" height="20" rx="10" fill="#3EFAFA"/>
<g clip-path="url(#clip1_0_3)">
<path d="M1467.06 729.497L1437.45 732.716L1423.28 723.058L1415.08 732.716L1419.02 753.096L1423.52 769.193L1450.85 755.313L1472.86 753.321L1467.06 729.497Z" fill="#A0616A"/>
<path d="M1617.09 695.371L1545.62 694.084L1458.69 730.785L1470.28 755.896L1548.84 734.004L1670.53 768.774L1653.79 686.357L1617.09 695.371Z" fill="#2F2E41"/>
<path d="M1421.05 731.844L1435.26 730.739L1417.19 692.568C1417.19 692.568 1408.82 689.612 1407.53 698.816C1406.24 708.021 1417.23 770.344 1420.45 770.344C1423.67 770.344 1434.47 764.042 1434.47 764.042L1418.48 733.776L1421.05 731.844Z" fill="#2F2E41"/>
<path d="M1667.55 609.51L1674.64 585.687L1695.24 585.043L1703.61 614.662L1667.55 609.51Z" fill="#A0616A"/>
<path opacity="0.1" d="M1667.55 609.51L1674.64 585.687L1695.24 585.043L1703.61 614.662L1667.55 609.51Z" fill="black"/>
<path d="M1699.18 606.194L1665.7 604.906L1655.32 626.251L1639.3 720.805L1723.33 739.799C1723.33 739.799 1728.48 634.203 1716.89 619.394C1705.3 604.584 1699.18 606.194 1699.18 606.194Z" fill="#E6E6E6"/>
<path d="M1601.12 532.149C1599.73 524.695 1594.75 519.374 1590.01 520.263C1585.26 521.152 1582.55 527.914 1583.95 535.37C1584.47 538.356 1585.69 541.175 1587.52 543.59L1593.83 575.096L1606.28 572.568L1600.77 541.107C1601.6 538.192 1601.72 535.12 1601.12 532.149Z" fill="#A0616A"/>
<path d="M1694.17 614.774L1625.79 601.299L1606.57 543.503L1585.04 548.596L1606.64 633.977L1684.04 644.161L1694.17 614.774Z" fill="#E6E6E6"/>
<path d="M1599.19 628.766C1599.07 628.886 1598.95 629.012 1598.83 629.133C1579.76 610.208 1549.05 610.042 1529.77 628.758C1510.43 647.549 1509.77 678.395 1528.31 697.988L1528.29 698L1528.75 698.475L1596.99 768.734L1667.73 700.035L1667.53 699.833C1667.65 699.719 1667.77 699.614 1667.89 699.5C1687.42 680.529 1687.88 649.316 1668.91 629.783C1649.94 610.25 1618.72 609.795 1599.19 628.766Z" fill="#3E446D"/>
<path d="M1703.52 707.083C1703.52 707.083 1728.78 728.136 1719.41 740.902C1710.04 753.668 1678.16 776.528 1663.76 769.438C1649.37 762.348 1619.47 711.106 1619.47 711.106L1611.65 763.595L1591.19 761.787C1591.19 761.787 1576.33 687.643 1590.03 676.273C1603.74 664.903 1666.14 685.002 1666.14 685.002L1703.52 707.083Z" fill="#2F2E41"/>
<path d="M1596.3 754.824L1590.44 773.026L1578.23 790.14L1587.59 804.155L1617.34 784.559L1617.24 774.481L1612.56 768.193L1609.27 756.132L1596.3 754.824Z" fill="#A0616A"/>
<path d="M1586.94 797.25L1579.48 785.115L1553.76 818.609C1553.76 818.609 1554.95 827.406 1563.72 824.352C1572.5 821.298 1626.93 793.388 1625.46 790.523C1623.99 787.659 1617.96 772.229 1617.96 772.229L1589.84 798.661L1586.94 797.25Z" fill="#2F2E41"/>
<path d="M1602.73 706.905C1595.18 707.653 1589.45 712.154 1589.93 716.956C1590.41 721.758 1596.91 725.043 1604.46 724.294C1607.48 724.036 1610.39 723.058 1612.96 721.443L1644.89 717.869L1643.44 705.245L1611.63 708.03C1608.79 706.95 1605.74 706.564 1602.73 706.905Z" fill="#A0616A"/>
<path d="M1693.07 621.325L1673.75 688.289L1614.51 702.454L1617.73 724.346L1704.66 710.181L1721.47 633.945L1693.07 621.325Z" fill="#E6E6E6"/>
<path d="M1682.32 592.818C1697.43 592.818 1709.68 580.567 1709.68 565.455C1709.68 550.343 1697.43 538.092 1682.32 538.092C1667.21 538.092 1654.96 550.343 1654.96 565.455C1654.96 580.567 1667.21 592.818 1682.32 592.818Z" fill="#A0616A"/>
<path d="M1684.5 528.668C1683.71 529.13 1682.65 528.431 1682.4 527.55C1682.14 526.669 1682.44 525.733 1682.73 524.865C1683.22 523.407 1683.72 521.949 1684.21 520.492C1685.26 517.391 1686.37 514.181 1688.64 511.82C1692.06 508.258 1697.5 507.351 1702.39 508.008C1708.68 508.851 1714.89 512.256 1717.81 517.887C1720.73 523.518 1719.49 531.374 1714.21 534.887C1721.74 543.518 1724.36 553.136 1723.95 564.582C1723.53 576.028 1711.06 586.562 1702.92 594.625C1701.11 593.524 1699.46 588.364 1700.46 586.489C1701.45 584.614 1700.02 582.442 1701.26 580.715C1702.5 578.989 1703.53 581.738 1702.28 580.021C1701.49 578.938 1704.57 576.445 1703.4 575.797C1697.73 572.66 1695.84 565.588 1692.27 560.172C1687.98 553.639 1680.62 549.215 1672.83 548.481C1668.54 548.076 1664.01 548.809 1660.5 551.299C1656.98 553.789 1654.71 558.238 1655.52 562.468C1653.41 560.324 1652.36 557.183 1652.76 554.2C1653.15 551.218 1654.99 548.46 1657.59 546.942C1656.01 541.719 1657.36 535.71 1661.03 531.668C1664.69 527.625 1679.57 528.314 1684.92 529.378L1684.5 528.668Z" fill="#2F2E41"/>
<path d="M1685.34 548.639C1692.42 549.405 1697.54 555.545 1701.87 561.217C1704.36 564.485 1706.97 568.095 1706.9 572.204C1706.84 576.359 1704.06 579.922 1702.73 583.86C1700.56 590.295 1702.68 597.952 1707.85 602.362C1702.74 603.331 1697.22 599.504 1696.34 594.384C1695.32 588.424 1699.83 582.671 1699.3 576.647C1698.83 571.34 1694.65 567.256 1691.09 563.287C1687.53 559.319 1684.2 554.054 1685.83 548.983L1685.34 548.639Z" fill="#2F2E41"/>
</g>
<rect x="341" y="497" width="20" height="20" rx="10" fill="white"/>
<rect x="278" y="465" width="20" height="20" rx="10" fill="white"/>
<rect x="342" y="529" width="20" height="20" rx="10" fill="white"/>
<rect x="310" y="529" width="20" height="20" rx="10" fill="white"/>
<rect x="278" y="529" width="20" height="20" rx="10" fill="white"/>
<rect x="310" y="497" width="20" height="20" rx="10" fill="white"/>
<rect x="278" y="497" width="20" height="20" rx="10" fill="white"/>
<rect x="341" y="465" width="20" height="20" rx="10" fill="white"/>
<rect x="310" y="465" width="20" height="20" rx="10" fill="white"/>
<rect x="1833" y="369" width="20" height="20" rx="10" fill="white"/>
<rect x="1770" y="337" width="20" height="20" rx="10" fill="white"/>
<rect x="1834" y="401" width="20" height="20" rx="10" fill="white"/>
<rect x="1802" y="401" width="20" height="20" rx="10" fill="white"/>
<rect x="1770" y="401" width="20" height="20" rx="10" fill="white"/>
<rect x="1802" y="369" width="20" height="20" rx="10" fill="white"/>
<rect x="1770" y="369" width="20" height="20" rx="10" fill="white"/>
<rect x="1833" y="337" width="20" height="20" rx="10" fill="white"/>
<rect x="1802" y="337" width="20" height="20" rx="10" fill="white"/>
<rect x="405" y="364" width="21" height="716" fill="white"/>
<g clip-path="url(#clip2_0_3)">
<path d="M1355.52 926.915L1352.8 948.533L1346.06 1002.23H1210.65C1211.7 990.194 1213.15 972.871 1214.69 954.171C1214.85 952.304 1215.01 950.424 1215.16 948.533C1219.03 901.526 1223.27 848.332 1223.27 848.332L1241.07 851.648L1275.61 858.068L1289.69 860.682L1327.37 867.698C1346.17 871.188 1359.09 898.386 1355.52 926.915Z" fill="#F2F2F2"/>
<path d="M1253.09 761.346L1269.74 790.475L1237.74 813.149L1224.08 777.343L1253.09 761.346Z" fill="#FFB6B6"/>
<path d="M1231.89 788.903C1254.67 788.903 1273.14 770.44 1273.14 747.665C1273.14 724.89 1254.67 706.428 1231.89 706.428C1209.11 706.428 1190.64 724.89 1190.64 747.665C1190.64 770.44 1209.11 788.903 1231.89 788.903Z" fill="#FFB6B6"/>
<path d="M1228.93 756.884C1225.65 751.901 1226.94 749.295 1224.2 747.463C1224.2 747.463 1223.09 746.726 1215.19 746.306C1213.43 733.584 1211.22 732.041 1211.22 732.041C1208.67 730.263 1204.9 730.841 1202.55 731.928C1197.58 734.228 1198.16 739.197 1194.81 740.147C1190.19 741.461 1181.79 734.057 1180.96 725.581C1180.28 718.667 1184.74 711.951 1186.51 712.307C1188.26 712.659 1192.45 707.304 1194.72 707.387C1196.27 707.443 1202.59 704.697 1204.29 704.912C1206.15 705.146 1212.27 708.34 1212.52 707.611C1214.3 702.539 1213.78 701.132 1215.28 699.681C1217.95 697.111 1222.31 698.901 1229.15 699.862C1243.23 701.839 1245.68 697.199 1252.9 700.344C1256.54 701.933 1259.59 706.218 1265.54 714.722C1273.86 726.615 1278.02 732.562 1278.05 739.498C1278.08 746.571 1274.65 746.122 1273.15 756.593C1271.47 768.25 1275.03 773.58 1271.14 777.367C1268.14 780.294 1262.03 780.989 1258.82 778.42C1253.32 774.022 1260.51 763.41 1254.43 755.657C1250.7 750.897 1243.19 748.78 1239.75 751.132C1235.86 753.792 1238.01 761.6 1235.27 762.34C1232.93 762.974 1229.5 757.753 1228.93 756.884Z" fill="#2F2E41"/>
<path d="M1325.02 919.301C1323.87 938.968 1319.3 945.177 1317.7 968.404C1317.35 973.503 1317.14 979.422 1317.14 986.481C1317.14 988.281 1317.15 990.021 1317.15 991.721C1317.15 995.34 1317.08 998.759 1316.66 1002.23C1316.34 1005 1315.79 1007.79 1314.88 1010.73H1226.03C1226.02 1010.71 1226.02 1010.69 1226.01 1010.67C1225.49 1008.41 1225.16 1006.25 1224.91 1004.18C1224.83 1003.52 1224.76 1002.87 1224.7 1002.23C1224.62 1001.48 1224.55 1000.74 1224.48 1000.01C1224.21 997.1 1223.94 994.35 1223.3 991.721C1222.44 988.091 1220.88 984.671 1217.68 981.372C1216.37 980.022 1215.06 978.972 1213.78 978.053C1213.53 977.882 1213.29 977.712 1213.04 977.543C1209.5 975.113 1206.15 973.363 1203.25 968.404C1203.2 968.334 1203.16 968.254 1203.12 968.184C1202.62 967.314 1201.32 965.034 1200.38 961.995C1199.39 958.835 1198.79 954.866 1199.87 950.807C1202.44 941.188 1211.96 940.228 1219.74 930.51C1220.58 929.46 1221.41 928.3 1222.2 927.01C1225.72 921.291 1226.67 916.252 1227.79 910.263C1227.97 909.293 1228.13 908.333 1228.26 907.403C1228.36 906.703 1228.45 906.013 1228.52 905.333C1229.14 899.624 1228.84 894.705 1228.11 890.306C1225.73 875.898 1218.71 866.979 1223.67 854.051C1225.23 849.992 1227.44 846.942 1229.67 844.333C1234.39 838.803 1239.25 835.214 1238.41 828.076C1237.56 820.876 1232.09 819.886 1231.48 813.597C1231.17 810.418 1232.21 807.069 1234.17 803.779V803.769C1240.41 793.181 1255.99 783.432 1265.89 783.742C1267.72 783.792 1269.34 784.202 1270.69 784.992C1275.58 787.871 1273.54 794.16 1281.04 802.979C1286.61 809.528 1292.91 812.148 1295.3 813.387C1304.77 818.327 1312.47 832.895 1317.7 851.522C1317.74 851.662 1317.78 851.801 1317.82 851.952C1321.05 863.62 1323.34 876.868 1324.47 890.306C1324.94 895.995 1325.23 901.714 1325.28 907.373C1325.34 911.892 1325.23 915.812 1325.02 919.301Z" fill="#3E446D"/>
<path d="M1258.49 986.681L1256.68 991.72L1255.54 994.88L1252.9 1002.23L1249.84 1010.73H1230.16L1233.46 1002.23L1235 998.269L1237.54 991.72L1241.8 980.722L1258.49 986.681Z" fill="#FFB6B6"/>
<path d="M1318.01 849.802C1317.96 850.452 1317.89 851.172 1317.82 851.952C1317.04 859.891 1315.2 874.098 1312.51 890.306C1311.09 898.854 1309.43 907.963 1307.56 917.012C1303.54 936.539 1298.54 955.766 1292.89 968.404C1291.88 970.684 1290.84 972.743 1289.78 974.563C1288.97 975.953 1288.12 977.322 1287.23 978.672C1284.35 983.102 1281.11 987.301 1277.76 991.221C1277.63 991.39 1277.48 991.551 1277.33 991.721C1276.79 992.36 1276.23 992.99 1275.67 993.62C1272.93 996.71 1270.13 999.589 1267.42 1002.23C1264.12 1005.45 1260.94 1008.3 1258.09 1010.73H1226.14L1226.01 1010.67L1221.41 1008.63C1221.41 1008.63 1222.72 1007.09 1224.91 1004.18C1225.36 1003.59 1225.84 1002.94 1226.36 1002.23C1227 1001.36 1227.69 1000.4 1228.43 999.359C1229.97 997.18 1231.72 994.62 1233.6 991.72C1237.25 986.111 1241.4 979.212 1245.59 971.224C1246.07 970.294 1246.56 969.354 1247.05 968.404C1247.06 968.374 1247.08 968.344 1247.09 968.314C1247.92 966.694 1248.74 965.024 1249.56 963.324C1256.51 948.867 1258.5 936.869 1259.07 932.979C1259.87 927.48 1260.98 919.791 1260.68 911.332C1260.48 905.754 1259.67 899.854 1257.74 893.995V893.985C1257.34 892.756 1256.89 891.526 1256.38 890.306C1255.47 888.116 1254.39 885.956 1253.11 883.827C1247.46 874.448 1242.87 874.058 1239.22 863.84C1238.14 860.81 1235.69 853.972 1236.44 846.752V846.743C1236.53 845.853 1236.68 844.953 1236.88 844.053V844.043C1236.93 843.793 1237 843.533 1237.07 843.283C1237.64 841.074 1238.58 838.883 1240.01 836.804C1242.8 832.765 1246.61 830.365 1250.02 828.935L1250.03 828.925C1253.97 827.286 1257.37 826.936 1258.03 826.876C1272.64 825.576 1283.98 837.854 1290.17 844.563C1292.56 847.152 1294.75 849.322 1296.75 851.092C1312.32 864.99 1316.59 856.111 1317.7 851.522C1317.87 850.812 1317.96 850.202 1318.01 849.802Z" fill="#3E446D"/>
<path d="M1318.06 849.282C1318.06 849.332 1318.05 849.502 1318.01 849.782C1318.03 849.632 1318.04 849.482 1318.05 849.342C1318.05 849.312 1318.05 849.292 1318.06 849.282Z" fill="#3E446D"/>
<path d="M1238.63 1060.26H702.459C697.477 1060.26 693.417 1064.31 693.417 1069.29C693.417 1074.28 697.477 1078.33 702.459 1078.33H1238.63C1243.61 1078.33 1247.66 1074.28 1247.66 1069.29C1247.66 1064.31 1243.61 1060.26 1238.63 1060.26Z" fill="#E6E6E6"/>
<path d="M762.121 763.262L795.912 749.047L810.406 778.748L774.896 793.236L762.121 763.262Z" fill="#FFB6B6"/>
<path opacity="0.1" d="M762.121 763.262L795.912 749.047L810.406 778.748L774.896 793.236L762.121 763.262Z" fill="black"/>
<path d="M766.925 751.944L800.26 790.338C800.26 790.338 777.07 863.504 753.88 870.024C730.691 876.543 687.934 908.418 687.934 908.418L634.308 873.646L660.396 835.252C660.396 835.252 723.444 749.047 740.111 749.047C756.779 749.047 766.925 751.944 766.925 751.944Z" fill="#3E446D"/>
<path d="M721.886 1002.23H644.287L639.381 995.673L619.35 968.906L614.741 962.749C614.741 962.749 597.349 930.874 600.973 901.898C604.596 872.921 642.279 866.402 642.279 866.402H643.83L689.963 906.925L687.21 944.638L701.819 968.906L721.886 1002.23Z" fill="#2F2E41"/>
<path d="M660.179 1002.23H639.381V971.442L660.179 1002.23Z" fill="#2F2E41"/>
<path d="M1108.77 955.49L1106.18 968.906L1099.76 1002.23H970.778C971.785 994.76 973.162 984.01 974.633 972.405C974.778 971.246 974.93 970.08 975.075 968.906C978.764 939.734 982.8 906.722 982.8 906.722L999.758 908.78L1032.66 912.764L1046.06 914.387L1081.97 918.74C1099.87 920.906 1112.18 937.785 1108.77 955.49Z" fill="#F2F2F2"/>
<path d="M1291.31 1002.23H1221.35C1222.42 1000.98 1223.02 1000.25 1223.02 1000.25L1243.99 996.789L1287.2 989.66C1287.2 989.66 1289.17 994.753 1291.31 1002.23Z" fill="#2F2E41"/>
<path d="M994.557 777.752L1024.98 820.763L971.911 822.347L966.215 781.927L994.557 777.752Z" fill="#A0616A"/>
<path opacity="0.1" d="M994.557 777.752L1024.98 820.763L971.911 822.347L966.215 781.927L994.557 777.752Z" fill="black"/>
<path d="M844.516 866.868C840.612 855.611 831.637 848.499 824.47 850.984C817.304 853.469 814.66 864.607 818.567 875.868C820.066 880.388 822.626 884.483 826.032 887.811L843.176 935.3L865.298 926.783L846.049 880.872C846.664 876.148 846.138 871.347 844.516 866.868Z" fill="#A0616A"/>
<path d="M1050.46 844.952L1050.42 888.786L1046.34 904.977L1037.95 938.278L1031.84 968.906L1027.29 991.725L1025.67 999.875C1024.44 1000.69 1023.22 1001.48 1022.01 1002.23H916.006C909.984 998.614 906.614 995.803 906.614 995.803C906.614 995.803 908.281 994.239 910.187 991.725C913.405 987.48 917.296 980.526 914.912 973.883C914.412 972.492 914.282 970.797 914.434 968.906C915.405 956.432 928.493 935.337 928.493 935.337L925.782 904.028L924.594 890.307L932.973 823.407L960.287 807.536L965.002 807.079L1011.55 804.566L1030.79 805.674L1031.66 805.913L1050.46 844.952Z" fill="#CCCCCC"/>
<path d="M1052.53 1002.23H1029.34L1028.32 991.725L1028.3 991.515L1034.86 991.066L1051.94 989.9L1052.24 996.187L1052.47 1001.01L1052.53 1002.23Z" fill="#FFB6B6"/>
<path d="M1058.24 855.55L1067.98 912.684L1060.03 968.906L1058.79 977.657L1056.6 993.109L1055.93 997.861L1055.95 998.375L1056.12 1002.23H1028.58L1027.56 991.725L1027.48 990.783L1025.4 969.268L1025.37 968.906L1020.97 923.283L1029.59 890.307L1030.23 887.88V887.873L1033.98 831.412L1031.08 805.754L1031.05 805.515C1031.11 805.551 1031.16 805.587 1031.21 805.623C1031.37 805.718 1031.52 805.812 1031.66 805.913C1048.59 816.649 1058.68 835.484 1058.24 855.55Z" fill="#CCCCCC"/>
<path d="M942.839 834.356L932.249 823.407C932.249 823.407 909.58 833.623 908.45 839.29C907.32 844.958 867.294 928.202 867.294 928.202L849.881 881.711L827.214 896.839C827.214 896.839 845.402 969.02 862.411 972.408C879.421 975.797 936.429 886.975 936.429 886.975L942.839 834.356Z" fill="#CCCCCC"/>
<path d="M1372.83 968.404H548.165C536.492 968.404 527 977.902 527 989.571C527 1001.24 536.492 1010.73 548.165 1010.73H1372.83C1384.5 1010.73 1394 1001.24 1394 989.571C1394 977.902 1384.5 968.404 1372.83 968.404Z" fill="#E6E6E6"/>
<path d="M1045.64 903.906L1044.03 978.697C1043.88 985.937 1037.96 991.725 1030.72 991.725H893.085C886.011 991.725 880.172 986.198 879.786 979.138L875.696 904.347C875.279 896.72 881.353 890.307 888.994 890.307H1032.32C1039.79 890.307 1045.8 896.443 1045.64 903.906Z" fill="#3F3D56"/>
<path d="M823.45 781.316C841.636 781.316 856.379 766.579 856.379 748.399C856.379 730.22 841.636 715.483 823.45 715.483C805.264 715.483 790.521 730.22 790.521 748.399C790.521 766.579 805.264 781.316 823.45 781.316Z" fill="#FFB6B6"/>
<path d="M768.374 834.527L771.997 873.646L796.637 972.89L775.35 980.348L739.387 872.197L734.42 828.732L768.374 834.527Z" fill="#FFB6B6"/>
<path d="M758.573 903.906L756.97 978.697C756.814 985.937 750.899 991.725 743.654 991.725H606.022C598.949 991.725 593.109 986.198 592.723 979.138L588.633 904.347C588.216 896.72 594.29 890.307 601.931 890.307H745.258C752.725 890.307 758.733 896.443 758.573 903.906Z" fill="#3F3D56"/>
<path d="M800.56 992.231C814.923 992.231 826.566 987.083 826.566 980.732C826.566 974.382 814.923 969.234 800.56 969.234C786.197 969.234 774.554 974.382 774.554 980.732C774.554 987.083 786.197 992.231 800.56 992.231Z" fill="#FFB6B6"/>
<path d="M717.284 840.508L732.14 761.362C732.14 761.362 773.447 755.566 774.896 769.33C776.346 783.094 773.861 850.36 773.861 850.36L717.284 840.508Z" fill="#3E446D"/>
<path d="M810.157 753.575C810.157 753.575 830.527 746.308 839.12 742.398C847.712 738.488 864.782 765.76 865.162 751.357C865.542 736.953 859.643 730.913 859.643 730.913C859.643 730.913 858.17 699.402 826.413 703.342C826.413 703.342 833.398 687.577 810.468 685.139C787.539 682.701 751.866 738.052 755.061 746.324C758.256 754.596 762.085 761.435 753.022 770.279C743.958 779.123 726.986 829.039 739.899 842.471C752.812 855.903 753.659 861.732 744.812 870.088C735.964 878.445 715.051 896.614 737.663 899.769C760.275 902.923 735.594 900.567 752.452 885.745C769.309 870.922 793.908 871.527 784.723 847.746C775.539 823.964 791.496 789.885 789.499 784.716C787.503 779.546 793.973 746.716 793.973 746.716C793.973 746.716 809.031 744.505 810.157 753.575Z" fill="#2F2E41"/>
<path d="M978.29 793.32C998.087 793.32 1014.14 777.277 1014.14 757.487C1014.14 737.698 998.087 721.655 978.29 721.655C958.493 721.655 942.444 737.698 942.444 757.487C942.444 777.277 958.493 793.32 978.29 793.32Z" fill="#A0616A"/>
<path d="M981.151 709.313C980.114 709.919 978.724 709.003 978.392 707.849C978.059 706.696 978.446 705.471 978.831 704.333L980.765 698.607C982.136 694.546 983.592 690.343 986.563 687.251C991.047 682.586 998.172 681.399 1004.59 682.259C1012.82 683.363 1020.95 687.822 1024.78 695.196C1028.61 702.569 1026.98 712.858 1020.06 717.458C1029.93 728.76 1033.36 741.355 1032.82 756.344C1032.28 771.332 1015.94 785.127 1005.28 795.686C1002.9 794.244 1000.74 787.486 1002.05 785.031C1003.36 782.576 1001.48 779.732 1003.1 777.471C1004.72 775.21 1006.08 778.81 1004.44 776.562C1003.41 775.143 1007.44 771.879 1005.9 771.03C998.471 766.922 995.999 757.661 991.331 750.568C985.7 742.013 976.062 736.22 965.863 735.259C960.244 734.729 954.31 735.688 949.705 738.949C945.1 742.21 942.118 748.036 943.186 753.575C940.42 750.768 939.044 746.654 939.563 742.749C940.082 738.843 942.486 735.232 945.889 733.244C943.82 726.404 945.593 718.535 950.395 713.242C955.198 707.949 974.681 708.85 981.693 710.243L981.151 709.313Z" fill="#2F2E41"/>
<path d="M982.24 735.467C991.527 736.469 998.232 744.51 1003.89 751.937C1007.16 756.217 1010.58 760.944 1010.49 766.325C1010.41 771.766 1006.77 776.432 1005.03 781.588C1002.19 790.016 1004.96 800.043 1011.73 805.817C1005.04 807.086 997.814 802.074 996.659 795.37C995.316 787.565 1001.23 780.032 1000.53 772.144C999.916 765.194 994.437 759.845 989.779 754.648C985.121 749.452 980.747 742.557 982.89 735.916L982.24 735.467Z" fill="#2F2E41"/>
<path d="M1121.08 972.933C1111.88 978.163 1107.12 987.147 1110.45 992.998C1113.78 998.85 1123.94 999.352 1133.14 994.119C1136.84 992.079 1140.01 989.182 1142.36 985.67L1181.06 963.018L1170.04 945.092L1133.06 969.327C1128.83 969.555 1124.73 970.792 1121.08 972.933Z" fill="#FFB6B6"/>
<path d="M1252.09 806.822C1250.94 806.364 1240.79 802.523 1231.53 807.594C1220.89 813.419 1219.24 826.717 1218.67 831.382C1217.34 842.156 1221.26 844.571 1222.09 855.479C1223.64 875.886 1227.72 852.605 1221.2 861.92C1218.94 865.144 1195.87 915.11 1183.15 924.897C1158.42 943.931 1142.71 957.336 1142.71 957.336L1160.64 976.811C1160.64 976.811 1188.98 969.262 1214.03 953.004C1239.72 936.327 1252.57 927.988 1262.51 911.675C1263.36 910.271 1283.84 875.505 1272.85 837.062C1270.34 828.294 1265.74 812.228 1252.09 806.822Z" fill="#3E446D"/>
<path d="M1344.7 903.906L1343.1 978.697C1342.94 985.937 1337.03 991.725 1329.78 991.725H1192.15C1185.08 991.725 1179.24 986.198 1178.85 979.138L1174.76 904.347C1174.34 896.72 1180.42 890.307 1188.06 890.307H1331.39C1338.85 890.307 1344.86 896.443 1344.7 903.906Z" fill="#3F3D56"/>
</g>
</g>
<defs>
<clipPath id="clip0_0_3">
<rect width="1920" height="1080" fill="white"/>
</clipPath>
<clipPath id="clip1_0_3">
<rect width="524.67" height="392.996" fill="white" transform="translate(1321 432)"/>
</clipPath>
<clipPath id="clip2_0_3">
<rect width="867" height="443" fill="white" transform="translate(527 682)"/>
</clipPath>
</defs>
</svg>
